<svg width="20" height="20" viewBox="0 0 20 20" fill="none" xmlns="http://www.w3.org/2000/svg">
<g clip-path="url(#clip0_364_460)">
<path d="M18.3332 9.99984C18.3332 14.6022 14.6022 18.3332 9.99984 18.3332C5.39746 18.3332 1.6665 14.6022 1.6665 9.99984C1.6665 5.39746 5.39746 1.6665 9.99984 1.6665C14.6022 1.6665 18.3332 5.39746 18.3332 9.99984Z" stroke="#FDFEFF" stroke-width="1.5"/>
<path d="M12.5 11.6665C12.5 12.587 11.7538 13.3332 10.8333 13.3332H10C9.22342 13.3332 8.83517 13.3332 8.52883 13.2063C8.12048 13.0372 7.79602 12.7127 7.62687 12.3043C7.5 11.998 7.5 11.6098 7.5 10.8332V9.1665C7.5 8.38992 7.5 8.00165 7.62687 7.69536C7.79602 7.28699 8.12048 6.96253 8.52883 6.79337C8.83517 6.6665 9.22342 6.6665 10 6.6665H10.8333C11.7538 6.6665 12.5 7.4127 12.5 8.33317" stroke="#FDFEFF" stroke-width="1.5" stroke-linecap="round"/>
</g>
<defs>
<clipPath id="clip0_364_460">
<rect width="20" height="20" fill="white"/>
</clipPath>
</defs>
</svg>
