<svg width="14" height="14" viewBox="0 0 14 14" fill="none" xmlns="http://www.w3.org/2000/svg">
<g clip-path="url(#clip0_376_5059)">
<path d="M12.8334 6.99935C12.8334 10.221 10.2217 12.8327 7.00008 12.8327C3.77842 12.8327 1.16675 10.221 1.16675 6.99935C1.16675 3.77769 3.77842 1.16602 7.00008 1.16602C10.2217 1.16602 12.8334 3.77769 12.8334 6.99935Z" stroke="#101313"/>
<path d="M8.75 8.16602C8.75 8.81037 8.22768 9.33268 7.58333 9.33268H7C6.45639 9.33268 6.18462 9.33268 5.97018 9.2439C5.68434 9.12548 5.45722 8.89833 5.33881 8.6125C5.25 8.39807 5.25 8.12629 5.25 7.58268V6.41602C5.25 5.87241 5.25 5.60062 5.33881 5.38622C5.45722 5.10035 5.68434 4.87323 5.97018 4.75482C6.18462 4.66602 6.45639 4.66602 7 4.66602H7.58333C8.22768 4.66602 8.75 5.18835 8.75 5.83268" stroke="#101313" stroke-linecap="round"/>
</g>
<defs>
<clipPath id="clip0_376_5059">
<rect width="14" height="14" fill="white"/>
</clipPath>
</defs>
</svg>
