<svg width="54" height="48" viewBox="0 0 54 48" fill="none" xmlns="http://www.w3.org/2000/svg">
<path fill-rule="evenodd" clip-rule="evenodd" d="M25.6915 0.839784L25.6634 0.791016H14.0011L0.185059 24.4757L9.66903 41.0699L9.68067 41.0498L13.266 47.2598L40.6854 47.3824L50.3146 30.8718H50.2505L53.8076 24.7108L40.2041 0.903451L25.6915 0.839784ZM34.713 16.6346H34.7857L27.9302 4.72806L37.9477 4.77199L49.335 24.7008L45.7708 30.8744L36.4302 30.8793L39.6869 25.2389L34.713 16.6346ZM23.3166 4.66936L27.9911 12.756L21.5189 12.7559L10.4384 31.9717L9.68258 33.2773L4.66355 24.4954L16.2288 4.66936H23.3166ZM18.8222 25.1963L23.7593 16.6343L30.2332 16.6346L35.2077 25.2401L31.9503 30.8818L22.1076 30.8872L18.8222 25.1963ZM11.9184 37.1689L13.7967 33.9117L16.5899 29.0869L19.8689 34.7667L29.7102 34.7614L29.6943 34.7889L43.5308 34.8053L38.4634 43.4941L15.5109 43.3914L11.9184 37.1689Z" fill="#3D8E87"/>
</svg>
