<svg width="61" height="50" viewBox="0 0 61 50" fill="none" xmlns="http://www.w3.org/2000/svg">
<path d="M57.25 0.899994H60.25V-2.10001H57.25V0.899994ZM57.25 11.1V14.1H60.25V11.1H57.25ZM44.5 22.8H41.5V25.8H44.5V22.8ZM56.95 26.4L54.9152 28.6044L54.9359 28.6235L54.9569 28.6422L56.95 26.4ZM56.95 45.3L54.9118 43.0987L54.891 43.1179L54.8707 43.1375L56.95 45.3ZM37 45.3L34.8787 47.4213L34.8995 47.4421L34.9207 47.4625L37 45.3ZM24.25 0.899994H27.25V-2.10001H24.25V0.899994ZM24.25 11.1V14.1H27.25V11.1H24.25ZM11.5 22.8H8.5V25.8H11.5V22.8ZM23.95 26.4L21.9152 28.6044L21.9359 28.6235L21.9569 28.6422L23.95 26.4ZM23.95 45.3L21.9118 43.0987L21.891 43.1179L21.8707 43.1375L23.95 45.3ZM4 45.3L1.87868 47.4213L1.89948 47.4421L1.92067 47.4625L4 45.3ZM54.25 0.899994V11.1H60.25V0.899994H54.25ZM57.25 8.09999H51.4V14.1H57.25V8.09999ZM51.4 8.09999C48.6376 8.09999 46.0147 8.79264 44.1037 10.7037C42.1926 12.6147 41.5 15.2376 41.5 18H47.5C47.5 16.1624 47.9574 15.3353 48.3463 14.9463C48.7353 14.5574 49.5624 14.1 51.4 14.1V8.09999ZM41.5 18V22.8H47.5V18H41.5ZM44.5 25.8H47.05V19.8H44.5V25.8ZM47.05 25.8C50.4018 25.8 52.9426 26.7835 54.9152 28.6044L58.9848 24.1956C55.7574 21.2165 51.6982 19.8 47.05 19.8V25.8ZM54.9569 28.6422C56.9989 30.4574 58 32.6832 58 35.55H64C64 31.0168 62.3011 27.1426 58.9431 24.1578L54.9569 28.6422ZM58 35.55C58 38.7955 56.9414 41.2194 54.9118 43.0987L58.9882 47.5013C62.3586 44.3806 64 40.3045 64 35.55H58ZM54.8707 43.1375C52.8925 45.0396 50.3668 46.05 47.05 46.05V52.05C51.7332 52.05 55.8075 50.5604 59.0293 47.4625L54.8707 43.1375ZM47.05 46.05C43.6107 46.05 41.043 45.0256 39.0793 43.1375L34.9207 47.4625C38.157 50.5744 42.2893 52.05 47.05 52.05V46.05ZM39.1213 43.1787C37.1791 41.2364 36.1 38.5998 36.1 34.95H30.1C30.1 39.9002 31.6209 44.1636 34.8787 47.4213L39.1213 43.1787ZM36.1 34.95V17.7H30.1V34.95H36.1ZM36.1 17.7C36.1 12.5624 37.3824 9.26027 39.4213 7.22131C41.4603 5.18235 44.7624 3.89999 49.9 3.89999V-2.10001C43.8376 -2.10001 38.7397 -0.582367 35.1787 2.97867C31.6176 6.53971 30.1 11.6376 30.1 17.7H36.1ZM49.9 3.89999H57.25V-2.10001H49.9V3.89999ZM21.25 0.899994V11.1H27.25V0.899994H21.25ZM24.25 8.09999H18.4V14.1H24.25V8.09999ZM18.4 8.09999C15.6376 8.09999 13.0147 8.79264 11.1037 10.7037C9.19264 12.6147 8.5 15.2376 8.5 18H14.5C14.5 16.1624 14.9574 15.3353 15.3463 14.9463C15.7353 14.5574 16.5624 14.1 18.4 14.1V8.09999ZM8.5 18V22.8H14.5V18H8.5ZM11.5 25.8H14.05V19.8H11.5V25.8ZM14.05 25.8C17.4018 25.8 19.9426 26.7835 21.9152 28.6044L25.9848 24.1956C22.7574 21.2165 18.6982 19.8 14.05 19.8V25.8ZM21.9569 28.6422C23.9989 30.4574 25 32.6832 25 35.55H31C31 31.0168 29.3011 27.1426 25.9431 24.1578L21.9569 28.6422ZM25 35.55C25 38.7955 23.9414 41.2194 21.9118 43.0987L25.9882 47.5013C29.3586 44.3806 31 40.3045 31 35.55H25ZM21.8707 43.1375C19.8925 45.0396 17.3668 46.05 14.05 46.05V52.05C18.7332 52.05 22.8075 50.5604 26.0293 47.4625L21.8707 43.1375ZM14.05 46.05C10.6107 46.05 8.04296 45.0256 6.07933 43.1375L1.92067 47.4625C5.15704 50.5744 9.28935 52.05 14.05 52.05V46.05ZM6.12132 43.1787C4.17906 41.2364 3.1 38.5998 3.1 34.95H-2.9C-2.9 39.9002 -1.37906 44.1636 1.87868 47.4213L6.12132 43.1787ZM3.1 34.95V17.7H-2.9V34.95H3.1ZM3.1 17.7C3.1 12.5624 4.38236 9.26027 6.42132 7.22131C8.46028 5.18235 11.7624 3.89999 16.9 3.89999V-2.10001C10.8376 -2.10001 5.73972 -0.582367 2.17868 2.97867C-1.38236 6.53971 -2.9 11.6376 -2.9 17.7H3.1ZM16.9 3.89999H24.25V-2.10001H16.9V3.89999Z" fill="#3D8E87"/>
</svg>
