<svg width="61" height="50" viewBox="0 0 61 50" fill="none" xmlns="http://www.w3.org/2000/svg">
<path d="M57.25 0.899994H59.25V-1.10001H57.25V0.899994ZM57.25 11.1V13.1H59.25V11.1H57.25ZM44.5 22.8H42.5V24.8H44.5V22.8ZM56.95 26.4L55.5934 27.8696L55.6072 27.8823L55.6213 27.8948L56.95 26.4ZM56.95 45.3L55.5912 43.8325L55.5774 43.8453L55.5638 43.8583L56.95 45.3ZM37 45.3L35.5858 46.7142L35.5997 46.7281L35.6138 46.7417L37 45.3ZM24.25 0.899994H26.25V-1.10001H24.25V0.899994ZM24.25 11.1V13.1H26.25V11.1H24.25ZM11.5 22.8H9.5V24.8H11.5V22.8ZM23.95 26.4L22.5934 27.8696L22.6072 27.8823L22.6213 27.8948L23.95 26.4ZM23.95 45.3L22.5912 43.8325L22.5774 43.8453L22.5638 43.8583L23.95 45.3ZM4 45.3L2.58579 46.7142L2.59965 46.7281L2.61378 46.7417L4 45.3ZM55.25 0.899994V11.1H59.25V0.899994H55.25ZM57.25 9.09999H51.4V13.1H57.25V9.09999ZM51.4 9.09999C48.7917 9.09999 46.4682 9.75342 44.8108 11.4108C43.1534 13.0681 42.5 15.3917 42.5 18H46.5C46.5 16.0083 46.9966 14.8819 47.6392 14.2392C48.2819 13.5966 49.4083 13.1 51.4 13.1V9.09999ZM42.5 18V22.8H46.5V18H42.5ZM44.5 24.8H47.05V20.8H44.5V24.8ZM47.05 24.8C50.6179 24.8 53.4117 25.8557 55.5934 27.8696L58.3066 24.9304C55.2883 22.1443 51.4821 20.8 47.05 20.8V24.8ZM55.6213 27.8948C57.8826 29.9049 59 32.4055 59 35.55H63C63 31.2945 61.4174 27.6951 58.2787 24.9052L55.6213 27.8948ZM59 35.55C59 39.047 57.8443 41.7463 55.5912 43.8325L58.3088 46.7675C61.4557 43.8537 63 40.053 63 35.55H59ZM55.5638 43.8583C53.3784 45.9597 50.5945 47.05 47.05 47.05V51.05C51.5055 51.05 55.3216 49.6403 58.3362 46.7417L55.5638 43.8583ZM47.05 47.05C43.3904 47.05 40.562 45.9504 38.3862 43.8583L35.6138 46.7417C38.638 49.6496 42.5096 51.05 47.05 51.05V47.05ZM38.4142 43.8858C36.2527 41.7243 35.1 38.8165 35.1 34.95H31.1C31.1 39.6834 32.5473 43.6757 35.5858 46.7142L38.4142 43.8858ZM35.1 34.95V17.7H31.1V34.95H35.1ZM35.1 17.7C35.1 12.4083 36.4216 8.80685 38.7142 6.51421C41.0069 4.22157 44.6083 2.89999 49.9 2.89999V-1.10001C43.9917 -1.10001 39.1931 0.378418 35.8858 3.68578C32.5784 6.99314 31.1 11.7917 31.1 17.7H35.1ZM49.9 2.89999H57.25V-1.10001H49.9V2.89999ZM22.25 0.899994V11.1H26.25V0.899994H22.25ZM24.25 9.09999H18.4V13.1H24.25V9.09999ZM18.4 9.09999C15.7917 9.09999 13.4681 9.75342 11.8108 11.4108C10.1534 13.0681 9.5 15.3917 9.5 18H13.5C13.5 16.0083 13.9966 14.8819 14.6392 14.2392C15.2819 13.5966 16.4083 13.1 18.4 13.1V9.09999ZM9.5 18V22.8H13.5V18H9.5ZM11.5 24.8H14.05V20.8H11.5V24.8ZM14.05 24.8C17.6179 24.8 20.4117 25.8557 22.5934 27.8696L25.3066 24.9304C22.2883 22.1443 18.4821 20.8 14.05 20.8V24.8ZM22.6213 27.8948C24.8826 29.9049 26 32.4055 26 35.55H30C30 31.2945 28.4174 27.6951 25.2787 24.9052L22.6213 27.8948ZM26 35.55C26 39.047 24.8443 41.7463 22.5912 43.8325L25.3088 46.7675C28.4557 43.8537 30 40.053 30 35.55H26ZM22.5638 43.8583C20.3784 45.9597 17.5945 47.05 14.05 47.05V51.05C18.5055 51.05 22.3216 49.6403 25.3362 46.7417L22.5638 43.8583ZM14.05 47.05C10.3904 47.05 7.56198 45.9504 5.38622 43.8583L2.61378 46.7417C5.63803 49.6496 9.50957 51.05 14.05 51.05V47.05ZM5.41422 43.8858C3.25271 41.7243 2.1 38.8165 2.1 34.95H-1.9C-1.9 39.6834 -0.452705 43.6757 2.58579 46.7142L5.41422 43.8858ZM2.1 34.95V17.7H-1.9V34.95H2.1ZM2.1 17.7C2.1 12.4083 3.42157 8.80685 5.71421 6.51421C8.00686 4.22157 11.6083 2.89999 16.9 2.89999V-1.10001C10.9917 -1.10001 6.19315 0.378418 2.88579 3.68578C-0.421573 6.99314 -1.9 11.7917 -1.9 17.7H2.1ZM16.9 2.89999H24.25V-1.10001H16.9V2.89999Z" fill="#9DFBFC"/>
</svg>
