<svg width="332" height="266" viewBox="0 0 332 266" fill="none" xmlns="http://www.w3.org/2000/svg">
<g filter="url(#filter0_bd_364_229)">
<rect x="4" width="324" height="258" rx="25" fill="#757474" fill-opacity="0.05" shape-rendering="crispEdges"/>
<rect x="4.5" y="0.5" width="323" height="257" rx="24.5" stroke="url(#paint0_linear_364_229)" shape-rendering="crispEdges"/>
</g>
<rect x="23" y="41" width="24" height="24" rx="5" fill="#FF3141"/>
<rect x="22.5142" y="71.6229" width="42.5829" height="22.8343" rx="5" fill="#757474" fill-opacity="0.05"/>
<path d="M40.6629 85.7772V84.0372H38.9429V83.3172H40.6629V81.5772H41.4229V83.3172H43.1429V84.0372H41.4229V85.7772H40.6629ZM47.164 87.3172C46.6507 87.3172 46.2074 87.2205 45.834 87.0272C45.4607 86.8272 45.1707 86.5538 44.964 86.2072C44.7574 85.8538 44.654 85.4472 44.654 84.9872V84.8672H45.464V84.9572C45.464 85.4838 45.6174 85.8872 45.924 86.1672C46.2307 86.4472 46.6374 86.5872 47.144 86.5872C47.6774 86.5872 48.094 86.4372 48.394 86.1372C48.694 85.8372 48.844 85.4272 48.844 84.9072V84.8172C48.844 84.3172 48.6974 83.9205 48.404 83.6272C48.1174 83.3272 47.744 83.1772 47.284 83.1772C47.0174 83.1772 46.7974 83.2205 46.624 83.3072C46.4507 83.3872 46.314 83.4905 46.214 83.6172C46.114 83.7372 46.0307 83.8538 45.964 83.9672H44.864V80.1772H49.464V80.9072H45.674V83.3272H45.814C45.8874 83.1938 45.9874 83.0638 46.114 82.9372C46.2474 82.8105 46.424 82.7038 46.644 82.6172C46.864 82.5305 47.1374 82.4872 47.464 82.4872C47.8707 82.4872 48.2374 82.5805 48.564 82.7672C48.8974 82.9538 49.1607 83.2205 49.354 83.5672C49.554 83.9138 49.654 84.3272 49.654 84.8072V84.9172C49.654 85.3905 49.554 85.8072 49.354 86.1672C49.154 86.5272 48.8674 86.8105 48.494 87.0172C48.1207 87.2172 47.6774 87.3172 47.164 87.3172Z" fill="#FDFEFF"/>
<rect x="71.2686" y="71.6229" width="42.5829" height="22.8343" rx="5" fill="#757474" fill-opacity="0.05"/>
<path d="M86.9485 85.7772V84.0372H85.2285V83.3172H86.9485V81.5772H87.7085V83.3172H89.4285V84.0372H87.7085V85.7772H86.9485ZM92.9997 87.1772V80.7172H92.8497L91.4897 83.2072H90.6097L92.2797 80.1772H93.8097V87.1772H92.9997ZM97.8094 87.3172C97.016 87.3172 96.3827 87.0838 95.9094 86.6172C95.4427 86.1438 95.2094 85.4372 95.2094 84.4972V82.8572C95.2094 81.9238 95.4427 81.2205 95.9094 80.7472C96.3827 80.2738 97.016 80.0372 97.8094 80.0372C98.6094 80.0372 99.2427 80.2738 99.7094 80.7472C100.183 81.2205 100.419 81.9238 100.419 82.8572V84.4972C100.419 85.4372 100.183 86.1438 99.7094 86.6172C99.2427 87.0838 98.6094 87.3172 97.8094 87.3172ZM97.8094 86.5872C98.4094 86.5872 98.8594 86.4072 99.1594 86.0472C99.4594 85.6872 99.6094 85.1838 99.6094 84.5372V82.8072C99.6094 82.1605 99.456 81.6605 99.1494 81.3072C98.8427 80.9472 98.396 80.7672 97.8094 80.7672C97.2227 80.7672 96.776 80.9472 96.4694 81.3072C96.1694 81.6672 96.0194 82.1672 96.0194 82.8072V84.5372C96.0194 85.1905 96.1694 85.6972 96.4694 86.0572C96.7694 86.4105 97.216 86.5872 97.8094 86.5872Z" fill="#FDFEFF"/>
<rect x="120.023" y="71.6229" width="42.5829" height="22.8343" rx="5" fill="#757474" fill-opacity="0.05"/>
<path d="M135.086 85.7772V84.0372H133.366V83.3172H135.086V81.5772H135.846V83.3172H137.566V84.0372H135.846V85.7772H135.086ZM139.097 87.1772V86.4472C139.097 85.9472 139.184 85.5472 139.357 85.2472C139.537 84.9472 139.784 84.7072 140.097 84.5272C140.417 84.3405 140.797 84.1805 141.237 84.0472L141.787 83.8772C142.087 83.7838 142.35 83.6705 142.577 83.5372C142.804 83.3972 142.98 83.2238 143.107 83.0172C143.234 82.8038 143.297 82.5438 143.297 82.2372V82.1972C143.297 81.7572 143.144 81.4105 142.837 81.1572C142.53 80.8972 142.137 80.7672 141.657 80.7672C141.15 80.7672 140.737 80.9038 140.417 81.1772C140.097 81.4438 139.937 81.8505 139.937 82.3972V82.5372H139.137V82.4072C139.137 81.9005 139.247 81.4705 139.467 81.1172C139.687 80.7638 139.987 80.4972 140.367 80.3172C140.747 80.1305 141.177 80.0372 141.657 80.0372C142.137 80.0372 142.56 80.1272 142.927 80.3072C143.3 80.4872 143.59 80.7372 143.797 81.0572C144.004 81.3772 144.107 81.7505 144.107 82.1772V82.2672C144.107 82.7205 144.017 83.0972 143.837 83.3972C143.657 83.6905 143.407 83.9305 143.087 84.1172C142.774 84.3038 142.404 84.4638 141.977 84.5972L141.437 84.7672C141.097 84.8738 140.814 84.9872 140.587 85.1072C140.367 85.2205 140.2 85.3672 140.087 85.5472C139.974 85.7272 139.917 85.9705 139.917 86.2772V86.4472H144.047V87.1772H139.097ZM147.792 87.3172C146.999 87.3172 146.366 87.0838 145.892 86.6172C145.426 86.1438 145.192 85.4372 145.192 84.4972V82.8572C145.192 81.9238 145.426 81.2205 145.892 80.7472C146.366 80.2738 146.999 80.0372 147.792 80.0372C148.592 80.0372 149.226 80.2738 149.692 80.7472C150.166 81.2205 150.402 81.9238 150.402 82.8572V84.4972C150.402 85.4372 150.166 86.1438 149.692 86.6172C149.226 87.0838 148.592 87.3172 147.792 87.3172ZM147.792 86.5872C148.392 86.5872 148.842 86.4072 149.142 86.0472C149.442 85.6872 149.592 85.1838 149.592 84.5372V82.8072C149.592 82.1605 149.439 81.6605 149.132 81.3072C148.826 80.9472 148.379 80.7672 147.792 80.7672C147.206 80.7672 146.759 80.9472 146.452 81.3072C146.152 81.6672 146.002 82.1672 146.002 82.8072V84.5372C146.002 85.1905 146.152 85.6972 146.452 86.0572C146.752 86.4105 147.199 86.5872 147.792 86.5872Z" fill="#FDFEFF"/>
<rect x="169.395" y="71.6229" width="42.5829" height="22.8343" rx="5" fill="#757474" fill-opacity="0.05"/>
<path d="M184.457 85.7772V84.0372H182.737V83.3172H184.457V81.5772H185.217V83.3172H186.937V84.0372H185.217V85.7772H184.457ZM190.958 87.3172C190.445 87.3172 190.002 87.2205 189.628 87.0272C189.255 86.8272 188.965 86.5538 188.758 86.2072C188.552 85.8538 188.448 85.4472 188.448 84.9872V84.8672H189.258V84.9572C189.258 85.4838 189.412 85.8872 189.718 86.1672C190.025 86.4472 190.432 86.5872 190.938 86.5872C191.472 86.5872 191.888 86.4372 192.188 86.1372C192.488 85.8372 192.638 85.4272 192.638 84.9072V84.8172C192.638 84.3172 192.492 83.9205 192.198 83.6272C191.912 83.3272 191.538 83.1772 191.078 83.1772C190.812 83.1772 190.592 83.2205 190.418 83.3072C190.245 83.3872 190.108 83.4905 190.008 83.6172C189.908 83.7372 189.825 83.8538 189.758 83.9672H188.658V80.1772H193.258V80.9072H189.468V83.3272H189.608C189.682 83.1938 189.782 83.0638 189.908 82.9372C190.042 82.8105 190.218 82.7038 190.438 82.6172C190.658 82.5305 190.932 82.4872 191.258 82.4872C191.665 82.4872 192.032 82.5805 192.358 82.7672C192.692 82.9538 192.955 83.2205 193.148 83.5672C193.348 83.9138 193.448 84.3272 193.448 84.8072V84.9172C193.448 85.3905 193.348 85.8072 193.148 86.1672C192.948 86.5272 192.662 86.8105 192.288 87.0172C191.915 87.2172 191.472 87.3172 190.958 87.3172ZM197.125 87.3172C196.331 87.3172 195.698 87.0838 195.225 86.6172C194.758 86.1438 194.525 85.4372 194.525 84.4972V82.8572C194.525 81.9238 194.758 81.2205 195.225 80.7472C195.698 80.2738 196.331 80.0372 197.125 80.0372C197.925 80.0372 198.558 80.2738 199.025 80.7472C199.498 81.2205 199.735 81.9238 199.735 82.8572V84.4972C199.735 85.4372 199.498 86.1438 199.025 86.6172C198.558 87.0838 197.925 87.3172 197.125 87.3172ZM197.125 86.5872C197.725 86.5872 198.175 86.4072 198.475 86.0472C198.775 85.6872 198.925 85.1838 198.925 84.5372V82.8072C198.925 82.1605 198.771 81.6605 198.465 81.3072C198.158 80.9472 197.711 80.7672 197.125 80.7672C196.538 80.7672 196.091 80.9472 195.785 81.3072C195.485 81.6672 195.335 82.1672 195.335 82.8072V84.5372C195.335 85.1905 195.485 85.6972 195.785 86.0572C196.085 86.4105 196.531 86.5872 197.125 86.5872Z" fill="#FDFEFF"/>
<rect x="218.148" y="71.6229" width="42.5829" height="22.8343" rx="5" fill="#757474" fill-opacity="0.05"/>
<path d="M228.438 85.4421V83.7021H226.718V82.9821H228.438V81.2421H229.198V82.9821H230.918V83.7021H229.198V85.4421H228.438ZM234.489 86.8421V80.3821H234.339L232.979 82.8721H232.099L233.769 79.8421H235.299V86.8421H234.489ZM239.299 86.9821C238.506 86.9821 237.872 86.7488 237.399 86.2821C236.932 85.8088 236.699 85.1021 236.699 84.1621V82.5221C236.699 81.5888 236.932 80.8855 237.399 80.4121C237.872 79.9388 238.506 79.7021 239.299 79.7021C240.099 79.7021 240.732 79.9388 241.199 80.4121C241.672 80.8855 241.909 81.5888 241.909 82.5221V84.1621C241.909 85.1021 241.672 85.8088 241.199 86.2821C240.732 86.7488 240.099 86.9821 239.299 86.9821ZM239.299 86.2521C239.899 86.2521 240.349 86.0721 240.649 85.7121C240.949 85.3521 241.099 84.8488 241.099 84.2021V82.4721C241.099 81.8255 240.946 81.3255 240.639 80.9721C240.332 80.6121 239.886 80.4321 239.299 80.4321C238.712 80.4321 238.266 80.6121 237.959 80.9721C237.659 81.3321 237.509 81.8321 237.509 82.4721V84.2021C237.509 84.8555 237.659 85.3621 237.959 85.7221C238.259 86.0755 238.706 86.2521 239.299 86.2521ZM245.705 86.9821C244.912 86.9821 244.279 86.7488 243.805 86.2821C243.339 85.8088 243.105 85.1021 243.105 84.1621V82.5221C243.105 81.5888 243.339 80.8855 243.805 80.4121C244.279 79.9388 244.912 79.7021 245.705 79.7021C246.505 79.7021 247.139 79.9388 247.605 80.4121C248.079 80.8855 248.315 81.5888 248.315 82.5221V84.1621C248.315 85.1021 248.079 85.8088 247.605 86.2821C247.139 86.7488 246.505 86.9821 245.705 86.9821ZM245.705 86.2521C246.305 86.2521 246.755 86.0721 247.055 85.7121C247.355 85.3521 247.505 84.8488 247.505 84.2021V82.4721C247.505 81.8255 247.352 81.3255 247.045 80.9721C246.739 80.6121 246.292 80.4321 245.705 80.4321C245.119 80.4321 244.672 80.6121 244.365 80.9721C244.065 81.3321 243.915 81.8321 243.915 82.4721V84.2021C243.915 84.8555 244.065 85.3621 244.365 85.7221C244.665 86.0755 245.112 86.2521 245.705 86.2521Z" fill="#FDFEFF"/>
<rect x="266.903" y="71.6229" width="42.5829" height="22.8343" rx="5" fill="#757474" fill-opacity="0.05"/>
<path d="M283.362 86.8421L285.522 79.8421H287.002L289.162 86.8421H288.292L287.752 85.0721H284.772L284.232 86.8421H283.362ZM284.982 84.3121H287.532L286.332 80.3521H286.192L284.982 84.3121ZM290.241 86.8421V79.8421H291.031V86.8421H290.241ZM292.692 86.8421V79.8421H293.482V86.8421H292.692Z" fill="#FDFEFF"/>
<rect x="53" y="41" width="226" height="24" rx="5" fill="#757474" fill-opacity="0.05"/>
<rect x="285" y="41" width="24" height="24" rx="5" fill="#008E76"/>
<path d="M66.11 57.14C65.5833 57.14 65.1167 57.0467 64.71 56.86C64.3033 56.6733 63.9833 56.4 63.75 56.04C63.5233 55.6733 63.41 55.23 63.41 54.71V54.46H64.48V54.71C64.48 55.2033 64.6267 55.5733 64.92 55.82C65.22 56.0667 65.6167 56.19 66.11 56.19C66.61 56.19 66.9867 56.0867 67.24 55.88C67.4933 55.6667 67.62 55.3933 67.62 55.06C67.62 54.84 67.56 54.66 67.44 54.52C67.3267 54.38 67.16 54.27 66.94 54.19C66.72 54.1033 66.4567 54.0233 66.15 53.95L65.78 53.86C65.3333 53.7533 64.9467 53.6233 64.62 53.47C64.2933 53.31 64.04 53.1 63.86 52.84C63.68 52.58 63.59 52.2467 63.59 51.84C63.59 51.4267 63.69 51.0733 63.89 50.78C64.09 50.4867 64.37 50.26 64.73 50.1C65.09 49.94 65.5133 49.86 66 49.86C66.4867 49.86 66.92 49.9433 67.3 50.11C67.6867 50.2767 67.99 50.5233 68.21 50.85C68.4367 51.1767 68.55 51.5867 68.55 52.08V52.44H67.48V52.08C67.48 51.78 67.4167 51.5367 67.29 51.35C67.17 51.1633 66.9967 51.0267 66.77 50.94C66.55 50.8533 66.2933 50.81 66 50.81C65.5733 50.81 65.2433 50.9 65.01 51.08C64.7767 51.2533 64.66 51.4967 64.66 51.81C64.66 52.0233 64.71 52.2 64.81 52.34C64.9167 52.4733 65.07 52.5833 65.27 52.67C65.47 52.7567 65.7167 52.8333 66.01 52.9L66.38 52.99C66.8333 53.09 67.2333 53.22 67.58 53.38C67.9267 53.5333 68.1967 53.7433 68.39 54.01C68.59 54.2767 68.69 54.62 68.69 55.04C68.69 55.46 68.5833 55.8267 68.37 56.14C68.1633 56.4533 67.8667 56.7 67.48 56.88C67.0933 57.0533 66.6367 57.14 66.11 57.14ZM65.61 58.16V48.84H66.6V58.16H65.61Z" fill="#FDFEFF"/>
<path d="M161.119 57V50.94H160.939L159.999 53.16H158.659L160.089 50H162.399V57H161.119ZM166.301 57.14C165.474 57.14 164.811 56.9133 164.311 56.46C163.811 56 163.561 55.3067 163.561 54.38V52.62C163.561 51.72 163.811 51.0367 164.311 50.57C164.811 50.0967 165.474 49.86 166.301 49.86C167.134 49.86 167.797 50.0967 168.291 50.57C168.791 51.0367 169.041 51.72 169.041 52.62V54.38C169.041 55.3067 168.791 56 168.291 56.46C167.797 56.9133 167.134 57.14 166.301 57.14ZM166.301 56C166.801 56 167.167 55.8633 167.401 55.59C167.641 55.3167 167.761 54.9267 167.761 54.42V52.56C167.761 52.0467 167.627 51.66 167.361 51.4C167.101 51.1333 166.747 51 166.301 51C165.841 51 165.481 51.1367 165.221 51.41C164.967 51.6833 164.841 52.0667 164.841 52.56V54.42C164.841 54.9467 164.961 55.3433 165.201 55.61C165.447 55.87 165.814 56 166.301 56ZM172.785 57.14C171.958 57.14 171.295 56.9133 170.795 56.46C170.295 56 170.045 55.3067 170.045 54.38V52.62C170.045 51.72 170.295 51.0367 170.795 50.57C171.295 50.0967 171.958 49.86 172.785 49.86C173.618 49.86 174.282 50.0967 174.775 50.57C175.275 51.0367 175.525 51.72 175.525 52.62V54.38C175.525 55.3067 175.275 56 174.775 56.46C174.282 56.9133 173.618 57.14 172.785 57.14ZM172.785 56C173.285 56 173.652 55.8633 173.885 55.59C174.125 55.3167 174.245 54.9267 174.245 54.42V52.56C174.245 52.0467 174.112 51.66 173.845 51.4C173.585 51.1333 173.232 51 172.785 51C172.325 51 171.965 51.1367 171.705 51.41C171.452 51.6833 171.325 52.0667 171.325 52.56V54.42C171.325 54.9467 171.445 55.3433 171.685 55.61C171.932 55.87 172.298 56 172.785 56Z" fill="#FDFEFF"/>
<rect x="124.343" y="208.629" width="82.9029" height="30.8571" rx="5" fill="#757474" fill-opacity="0.05"/>
<path d="M140.411 220.331V214.731H142.555C142.891 214.731 143.19 214.798 143.451 214.931C143.718 215.059 143.929 215.243 144.083 215.483C144.238 215.723 144.315 216.014 144.315 216.355V216.459C144.315 216.795 144.235 217.086 144.075 217.331C143.921 217.571 143.71 217.755 143.443 217.883C143.177 218.011 142.881 218.075 142.555 218.075H141.083V220.331H140.411ZM141.083 217.467H142.483C142.841 217.467 143.123 217.379 143.331 217.203C143.539 217.022 143.643 216.769 143.643 216.443V216.363C143.643 216.038 143.539 215.787 143.331 215.611C143.129 215.43 142.846 215.339 142.483 215.339H141.083V217.467ZM145.24 220.331V214.731H145.872V220.331H145.24ZM148.993 220.443C148.598 220.443 148.252 220.361 147.953 220.195C147.654 220.025 147.422 219.787 147.257 219.483C147.092 219.179 147.009 218.827 147.009 218.427V218.331C147.009 217.926 147.092 217.571 147.257 217.267C147.422 216.963 147.652 216.729 147.945 216.563C148.238 216.393 148.574 216.307 148.953 216.307C149.321 216.307 149.646 216.387 149.929 216.547C150.212 216.702 150.433 216.926 150.593 217.219C150.753 217.513 150.833 217.857 150.833 218.251V218.539H147.641C147.657 218.961 147.793 219.291 148.049 219.531C148.305 219.766 148.625 219.883 149.009 219.883C149.345 219.883 149.604 219.806 149.785 219.651C149.966 219.497 150.105 219.313 150.201 219.099L150.745 219.363C150.665 219.529 150.553 219.694 150.409 219.859C150.27 220.025 150.086 220.163 149.857 220.275C149.633 220.387 149.345 220.443 148.993 220.443ZM147.649 218.019H150.193C150.172 217.657 150.046 217.374 149.817 217.171C149.593 216.969 149.305 216.867 148.953 216.867C148.596 216.867 148.302 216.969 148.073 217.171C147.844 217.374 147.702 217.657 147.649 218.019ZM153.135 220.443C152.863 220.443 152.615 220.395 152.391 220.299C152.167 220.203 151.991 220.065 151.863 219.883C151.735 219.702 151.671 219.481 151.671 219.219C151.671 218.953 151.735 218.734 151.863 218.563C151.991 218.387 152.167 218.257 152.391 218.171C152.615 218.081 152.866 218.035 153.143 218.035H154.463V217.747C154.463 217.47 154.381 217.251 154.215 217.091C154.055 216.931 153.815 216.851 153.495 216.851C153.181 216.851 152.935 216.929 152.759 217.083C152.583 217.233 152.463 217.435 152.399 217.691L151.807 217.499C151.871 217.281 151.973 217.083 152.111 216.907C152.25 216.726 152.434 216.582 152.663 216.475C152.898 216.363 153.178 216.307 153.503 216.307C154.005 216.307 154.394 216.438 154.671 216.699C154.949 216.955 155.087 217.318 155.087 217.787V219.555C155.087 219.715 155.162 219.795 155.311 219.795H155.671V220.331H155.119C154.943 220.331 154.802 220.283 154.695 220.187C154.589 220.086 154.535 219.953 154.535 219.787V219.747H154.439C154.381 219.849 154.301 219.955 154.199 220.067C154.103 220.174 153.97 220.262 153.799 220.331C153.629 220.406 153.407 220.443 153.135 220.443ZM153.207 219.899C153.581 219.899 153.882 219.79 154.111 219.571C154.346 219.347 154.463 219.035 154.463 218.635V218.547H153.167C152.917 218.547 152.709 218.603 152.543 218.715C152.383 218.822 152.303 218.985 152.303 219.203C152.303 219.422 152.386 219.593 152.551 219.715C152.722 219.838 152.941 219.899 153.207 219.899ZM158.082 220.443C157.596 220.443 157.186 220.331 156.85 220.107C156.519 219.883 156.319 219.529 156.25 219.043L156.85 218.907C156.892 219.163 156.972 219.366 157.09 219.515C157.207 219.659 157.351 219.763 157.522 219.827C157.698 219.886 157.884 219.915 158.082 219.915C158.375 219.915 158.607 219.857 158.778 219.739C158.948 219.622 159.034 219.465 159.034 219.267C159.034 219.065 158.951 218.923 158.786 218.843C158.626 218.758 158.404 218.689 158.122 218.635L157.794 218.579C157.543 218.537 157.314 218.47 157.106 218.379C156.898 218.289 156.732 218.166 156.61 218.011C156.487 217.857 156.426 217.662 156.426 217.427C156.426 217.075 156.562 216.801 156.834 216.603C157.106 216.406 157.466 216.307 157.914 216.307C158.356 216.307 158.714 216.409 158.986 216.611C159.263 216.809 159.442 217.089 159.522 217.451L158.93 217.603C158.882 217.321 158.767 217.123 158.586 217.011C158.404 216.894 158.18 216.835 157.914 216.835C157.647 216.835 157.436 216.886 157.282 216.987C157.127 217.083 157.05 217.227 157.05 217.419C157.05 217.606 157.122 217.745 157.266 217.835C157.415 217.921 157.612 217.985 157.858 218.027L158.186 218.083C158.463 218.131 158.711 218.198 158.93 218.283C159.154 218.363 159.33 218.481 159.458 218.635C159.591 218.79 159.658 218.993 159.658 219.243C159.658 219.627 159.514 219.923 159.226 220.131C158.943 220.339 158.562 220.443 158.082 220.443ZM162.517 220.443C162.122 220.443 161.775 220.361 161.477 220.195C161.178 220.025 160.946 219.787 160.781 219.483C160.615 219.179 160.533 218.827 160.533 218.427V218.331C160.533 217.926 160.615 217.571 160.781 217.267C160.946 216.963 161.175 216.729 161.469 216.563C161.762 216.393 162.098 216.307 162.477 216.307C162.845 216.307 163.17 216.387 163.453 216.547C163.735 216.702 163.957 216.926 164.117 217.219C164.277 217.513 164.357 217.857 164.357 218.251V218.539H161.165C161.181 218.961 161.317 219.291 161.573 219.531C161.829 219.766 162.149 219.883 162.533 219.883C162.869 219.883 163.127 219.806 163.309 219.651C163.49 219.497 163.629 219.313 163.725 219.099L164.269 219.363C164.189 219.529 164.077 219.694 163.933 219.859C163.794 220.025 163.61 220.163 163.381 220.275C163.157 220.387 162.869 220.443 162.517 220.443ZM161.173 218.019H163.717C163.695 217.657 163.57 217.374 163.341 217.171C163.117 216.969 162.829 216.867 162.477 216.867C162.119 216.867 161.826 216.969 161.597 217.171C161.367 217.374 161.226 217.657 161.173 218.019ZM168.655 220.331V215.339H166.855V214.731H171.127V215.339H169.327V220.331H168.655ZM171.396 220.331V216.419H172.012V216.899H172.124C172.194 216.729 172.3 216.603 172.444 216.523C172.588 216.443 172.778 216.403 173.012 216.403H173.476V216.979H172.972C172.69 216.979 172.46 217.059 172.284 217.219C172.114 217.374 172.028 217.617 172.028 217.947V220.331H171.396ZM175.479 220.443C175.207 220.443 174.959 220.395 174.735 220.299C174.511 220.203 174.335 220.065 174.207 219.883C174.079 219.702 174.015 219.481 174.015 219.219C174.015 218.953 174.079 218.734 174.207 218.563C174.335 218.387 174.511 218.257 174.735 218.171C174.959 218.081 175.21 218.035 175.487 218.035H176.807V217.747C176.807 217.47 176.725 217.251 176.559 217.091C176.399 216.931 176.159 216.851 175.839 216.851C175.525 216.851 175.279 216.929 175.103 217.083C174.927 217.233 174.807 217.435 174.743 217.691L174.151 217.499C174.215 217.281 174.317 217.083 174.455 216.907C174.594 216.726 174.778 216.582 175.007 216.475C175.242 216.363 175.522 216.307 175.847 216.307C176.349 216.307 176.738 216.438 177.015 216.699C177.293 216.955 177.431 217.318 177.431 217.787V219.555C177.431 219.715 177.506 219.795 177.655 219.795H178.015V220.331H177.463C177.287 220.331 177.146 220.283 177.039 220.187C176.933 220.086 176.879 219.953 176.879 219.787V219.747H176.783C176.725 219.849 176.645 219.955 176.543 220.067C176.447 220.174 176.314 220.262 176.143 220.331C175.973 220.406 175.751 220.443 175.479 220.443ZM175.551 219.899C175.925 219.899 176.226 219.79 176.455 219.571C176.69 219.347 176.807 219.035 176.807 218.635V218.547H175.511C175.261 218.547 175.053 218.603 174.887 218.715C174.727 218.822 174.647 218.985 174.647 219.203C174.647 219.422 174.73 219.593 174.895 219.715C175.066 219.838 175.285 219.899 175.551 219.899ZM180.427 220.443C180.091 220.443 179.782 220.363 179.499 220.203C179.217 220.043 178.993 219.811 178.827 219.507C178.662 219.203 178.579 218.843 178.579 218.427V218.323C178.579 217.907 178.662 217.55 178.827 217.251C178.993 216.947 179.214 216.715 179.491 216.555C179.774 216.39 180.086 216.307 180.427 216.307C180.699 216.307 180.929 216.345 181.115 216.419C181.307 216.489 181.462 216.579 181.579 216.691C181.697 216.798 181.787 216.913 181.851 217.035H181.963V214.731H182.595V220.331H181.979V219.683H181.867C181.761 219.881 181.595 220.057 181.371 220.211C181.147 220.366 180.833 220.443 180.427 220.443ZM180.595 219.883C181.001 219.883 181.329 219.755 181.579 219.499C181.835 219.238 181.963 218.875 181.963 218.411V218.339C181.963 217.875 181.835 217.515 181.579 217.259C181.329 216.998 181.001 216.867 180.595 216.867C180.195 216.867 179.865 216.998 179.603 217.259C179.347 217.515 179.219 217.875 179.219 218.339V218.411C179.219 218.875 179.347 219.238 179.603 219.499C179.865 219.755 180.195 219.883 180.595 219.883ZM185.712 220.443C185.317 220.443 184.971 220.361 184.672 220.195C184.373 220.025 184.141 219.787 183.976 219.483C183.811 219.179 183.728 218.827 183.728 218.427V218.331C183.728 217.926 183.811 217.571 183.976 217.267C184.141 216.963 184.371 216.729 184.664 216.563C184.957 216.393 185.293 216.307 185.672 216.307C186.04 216.307 186.365 216.387 186.648 216.547C186.931 216.702 187.152 216.926 187.312 217.219C187.472 217.513 187.552 217.857 187.552 218.251V218.539H184.36C184.376 218.961 184.512 219.291 184.768 219.531C185.024 219.766 185.344 219.883 185.728 219.883C186.064 219.883 186.323 219.806 186.504 219.651C186.685 219.497 186.824 219.313 186.92 219.099L187.464 219.363C187.384 219.529 187.272 219.694 187.128 219.859C186.989 220.025 186.805 220.163 186.576 220.275C186.352 220.387 186.064 220.443 185.712 220.443ZM184.368 218.019H186.912C186.891 217.657 186.765 217.374 186.536 217.171C186.312 216.969 186.024 216.867 185.672 216.867C185.315 216.867 185.021 216.969 184.792 217.171C184.563 217.374 184.421 217.657 184.368 218.019Z" fill="#757474"/>
<path d="M158.088 233.44V232.6C158.088 232.113 158.168 231.71 158.328 231.39C158.488 231.063 158.718 230.797 159.018 230.59C159.325 230.377 159.698 230.203 160.138 230.07L160.808 229.86C161.055 229.78 161.262 229.683 161.428 229.57C161.595 229.45 161.722 229.307 161.808 229.14C161.902 228.973 161.948 228.783 161.948 228.57V228.53C161.948 228.197 161.835 227.933 161.608 227.74C161.382 227.54 161.072 227.44 160.678 227.44C160.292 227.44 159.978 227.547 159.738 227.76C159.505 227.967 159.388 228.267 159.388 228.66V228.84H158.108V228.68C158.108 228.173 158.222 227.743 158.448 227.39C158.675 227.037 158.982 226.767 159.368 226.58C159.762 226.393 160.198 226.3 160.678 226.3C161.158 226.3 161.592 226.393 161.978 226.58C162.365 226.76 162.668 227.017 162.888 227.35C163.115 227.677 163.228 228.063 163.228 228.51V228.61C163.228 229.057 163.135 229.437 162.948 229.75C162.768 230.057 162.522 230.31 162.208 230.51C161.895 230.703 161.538 230.863 161.138 230.99L160.498 231.19C160.212 231.277 159.988 231.373 159.828 231.48C159.668 231.58 159.555 231.693 159.488 231.82C159.428 231.94 159.398 232.087 159.398 232.26V232.3H163.168V233.44H158.088ZM166.726 233.58C166.193 233.58 165.729 233.48 165.336 233.28C164.943 233.08 164.639 232.803 164.426 232.45C164.213 232.097 164.106 231.69 164.106 231.23V228.84C164.106 228.273 164.219 227.803 164.446 227.43C164.679 227.05 164.996 226.767 165.396 226.58C165.803 226.393 166.266 226.3 166.786 226.3C167.306 226.3 167.756 226.387 168.136 226.56C168.523 226.733 168.819 226.983 169.026 227.31C169.239 227.637 169.346 228.027 169.346 228.48H168.046C168.046 228.2 167.949 227.957 167.756 227.75C167.563 227.543 167.239 227.44 166.786 227.44C166.339 227.44 165.993 227.557 165.746 227.79C165.506 228.023 165.386 228.347 165.386 228.76V229.48H165.566C165.679 229.347 165.853 229.22 166.086 229.1C166.319 228.98 166.659 228.92 167.106 228.92C167.513 228.92 167.886 229.007 168.226 229.18C168.573 229.353 168.853 229.607 169.066 229.94C169.279 230.267 169.386 230.663 169.386 231.13V231.25C169.386 231.71 169.276 232.117 169.056 232.47C168.836 232.817 168.526 233.09 168.126 233.29C167.726 233.483 167.259 233.58 166.726 233.58ZM166.746 232.44C167.166 232.44 167.496 232.33 167.736 232.11C167.983 231.89 168.106 231.597 168.106 231.23V231.15C168.106 230.903 168.049 230.69 167.936 230.51C167.829 230.33 167.673 230.19 167.466 230.09C167.266 229.99 167.026 229.94 166.746 229.94C166.473 229.94 166.233 229.99 166.026 230.09C165.819 230.19 165.659 230.33 165.546 230.51C165.439 230.69 165.386 230.903 165.386 231.15V231.23C165.386 231.597 165.506 231.89 165.746 232.11C165.993 232.33 166.326 232.44 166.746 232.44ZM172.548 233.58C171.901 233.58 171.371 233.44 170.958 233.16C170.544 232.88 170.294 232.48 170.208 231.96L171.368 231.66C171.414 231.893 171.491 232.077 171.598 232.21C171.711 232.343 171.848 232.44 172.008 232.5C172.174 232.553 172.354 232.58 172.548 232.58C172.841 232.58 173.058 232.53 173.198 232.43C173.338 232.323 173.408 232.193 173.408 232.04C173.408 231.887 173.341 231.77 173.208 231.69C173.074 231.603 172.861 231.533 172.568 231.48L172.288 231.43C171.941 231.363 171.624 231.273 171.338 231.16C171.051 231.04 170.821 230.877 170.648 230.67C170.474 230.463 170.388 230.197 170.388 229.87C170.388 229.377 170.568 229 170.928 228.74C171.288 228.473 171.761 228.34 172.348 228.34C172.901 228.34 173.361 228.463 173.728 228.71C174.094 228.957 174.334 229.28 174.448 229.68L173.278 230.04C173.224 229.787 173.114 229.607 172.948 229.5C172.788 229.393 172.588 229.34 172.348 229.34C172.108 229.34 171.924 229.383 171.798 229.47C171.671 229.55 171.608 229.663 171.608 229.81C171.608 229.97 171.674 230.09 171.808 230.17C171.941 230.243 172.121 230.3 172.348 230.34L172.628 230.39C173.001 230.457 173.338 230.547 173.638 230.66C173.944 230.767 174.184 230.923 174.358 231.13C174.538 231.33 174.628 231.603 174.628 231.95C174.628 232.47 174.438 232.873 174.058 233.16C173.684 233.44 173.181 233.58 172.548 233.58Z" fill="#FDFEFF"/>
<path d="M23.252 26L25.828 16.2H29.048L31.624 26H29.72L29.188 23.844H25.688L25.156 26H23.252ZM26.122 22.136H28.754L27.564 17.362H27.312L26.122 22.136ZM32.853 26V19.056H34.589V19.812H34.841C34.9624 19.5787 35.163 19.378 35.443 19.21C35.723 19.0327 36.0917 18.944 36.549 18.944C37.0437 18.944 37.4404 19.042 37.739 19.238C38.0377 19.4247 38.2664 19.672 38.425 19.98H38.677C38.8357 19.6813 39.0597 19.434 39.349 19.238C39.6384 19.042 40.049 18.944 40.581 18.944C41.0104 18.944 41.3977 19.0373 41.743 19.224C42.0977 19.4013 42.3777 19.6767 42.583 20.05C42.7977 20.414 42.905 20.876 42.905 21.436V26H41.141V21.562C41.141 21.1793 41.043 20.8947 40.847 20.708C40.651 20.512 40.3757 20.414 40.021 20.414C39.6197 20.414 39.307 20.5447 39.083 20.806C38.8684 21.058 38.761 21.422 38.761 21.898V26H36.997V21.562C36.997 21.1793 36.899 20.8947 36.703 20.708C36.507 20.512 36.2317 20.414 35.877 20.414C35.4757 20.414 35.163 20.5447 34.939 20.806C34.7244 21.058 34.617 21.422 34.617 21.898V26H32.853ZM48.1063 26.196C47.4156 26.196 46.7949 26.056 46.2443 25.776C45.6936 25.496 45.2596 25.09 44.9423 24.558C44.6249 24.026 44.4663 23.3867 44.4663 22.64V22.416C44.4663 21.6693 44.6249 21.03 44.9423 20.498C45.2596 19.966 45.6936 19.56 46.2443 19.28C46.7949 19 47.4156 18.86 48.1063 18.86C48.7969 18.86 49.4176 19 49.9683 19.28C50.5189 19.56 50.9529 19.966 51.2703 20.498C51.5876 21.03 51.7463 21.6693 51.7463 22.416V22.64C51.7463 23.3867 51.5876 24.026 51.2703 24.558C50.9529 25.09 50.5189 25.496 49.9683 25.776C49.4176 26.056 48.7969 26.196 48.1063 26.196ZM48.1063 24.628C48.6476 24.628 49.0956 24.4553 49.4503 24.11C49.8049 23.7553 49.9823 23.2513 49.9823 22.598V22.458C49.9823 21.8047 49.8049 21.3053 49.4503 20.96C49.1049 20.6053 48.6569 20.428 48.1063 20.428C47.5649 20.428 47.1169 20.6053 46.7623 20.96C46.4076 21.3053 46.2303 21.8047 46.2303 22.458V22.598C46.2303 23.2513 46.4076 23.7553 46.7623 24.11C47.1169 24.4553 47.5649 24.628 48.1063 24.628ZM56.0205 26.112C55.4792 26.112 55.0032 25.9907 54.5925 25.748C54.1912 25.496 53.8785 25.1507 53.6545 24.712C53.4305 24.2733 53.3185 23.7693 53.3185 23.2V19.056H55.0825V23.06C55.0825 23.5827 55.2085 23.9747 55.4605 24.236C55.7219 24.4973 56.0905 24.628 56.5665 24.628C57.1079 24.628 57.5279 24.4507 57.8265 24.096C58.1252 23.732 58.2745 23.228 58.2745 22.584V19.056H60.0385V26H58.3025V25.09H58.0505C57.9385 25.3233 57.7285 25.552 57.4205 25.776C57.1125 26 56.6459 26.112 56.0205 26.112ZM62.0015 26V19.056H63.7375V19.966H63.9895C64.1015 19.7233 64.3115 19.4947 64.6195 19.28C64.9275 19.056 65.3942 18.944 66.0195 18.944C66.5608 18.944 67.0322 19.07 67.4335 19.322C67.8442 19.5647 68.1615 19.9053 68.3855 20.344C68.6095 20.7733 68.7215 21.2773 68.7215 21.856V26H66.9575V21.996C66.9575 21.4733 66.8268 21.0813 66.5655 20.82C66.3135 20.5587 65.9495 20.428 65.4735 20.428C64.9322 20.428 64.5122 20.61 64.2135 20.974C63.9148 21.3287 63.7655 21.828 63.7655 22.472V26H62.0015ZM73.097 26C72.6397 26 72.2664 25.86 71.977 25.58C71.697 25.2907 71.557 24.908 71.557 24.432V20.512H69.821V19.056H71.557V16.9H73.321V19.056H75.225V20.512H73.321V24.124C73.321 24.404 73.4517 24.544 73.713 24.544H75.057V26H73.097Z" fill="#FDFEFF"/>
<path d="M297 49V57M301 53H293" stroke="#FDFEFF" stroke-width="1.5" stroke-linecap="round" stroke-linejoin="round"/>
<path d="M39 53H31" stroke="#FDFEFF" stroke-width="1.5" stroke-linecap="round" stroke-linejoin="round"/>
<path d="M141.189 118.034V111.034H143.869C144.289 111.034 144.662 111.118 144.989 111.284C145.322 111.444 145.585 111.674 145.779 111.974C145.972 112.274 146.069 112.638 146.069 113.064V113.194C146.069 113.614 145.969 113.978 145.769 114.284C145.575 114.584 145.312 114.814 144.979 114.974C144.645 115.134 144.275 115.214 143.869 115.214H142.029V118.034H141.189ZM142.029 114.454H143.779C144.225 114.454 144.579 114.344 144.839 114.124C145.099 113.898 145.229 113.581 145.229 113.174V113.074C145.229 112.668 145.099 112.354 144.839 112.134C144.585 111.908 144.232 111.794 143.779 111.794H142.029V114.454ZM147.225 118.034V113.144H147.995V113.744H148.135C148.221 113.531 148.355 113.374 148.535 113.274C148.715 113.174 148.951 113.124 149.245 113.124H149.825V113.844H149.195C148.841 113.844 148.555 113.944 148.335 114.144C148.121 114.338 148.015 114.641 148.015 115.054V118.034H147.225ZM153.078 118.174C152.585 118.174 152.148 118.071 151.768 117.864C151.395 117.658 151.102 117.368 150.888 116.994C150.682 116.614 150.578 116.168 150.578 115.654V115.524C150.578 115.018 150.682 114.574 150.888 114.194C151.102 113.814 151.395 113.521 151.768 113.314C152.148 113.108 152.585 113.004 153.078 113.004C153.572 113.004 154.005 113.108 154.378 113.314C154.758 113.521 155.052 113.814 155.258 114.194C155.472 114.574 155.578 115.018 155.578 115.524V115.654C155.578 116.168 155.472 116.614 155.258 116.994C155.052 117.368 154.758 117.658 154.378 117.864C154.005 118.071 153.572 118.174 153.078 118.174ZM153.078 117.464C153.598 117.464 154.012 117.301 154.318 116.974C154.632 116.641 154.788 116.194 154.788 115.634V115.544C154.788 114.984 154.632 114.541 154.318 114.214C154.012 113.881 153.598 113.714 153.078 113.714C152.565 113.714 152.152 113.881 151.838 114.214C151.525 114.541 151.368 114.984 151.368 115.544V115.634C151.368 116.194 151.525 116.641 151.838 116.974C152.152 117.301 152.565 117.464 153.078 117.464ZM157.755 118.034V113.834H156.255V113.144H157.755V111.894C157.755 111.628 157.828 111.418 157.975 111.264C158.128 111.111 158.345 111.034 158.625 111.034H159.825V111.714H158.845C158.645 111.714 158.545 111.814 158.545 112.014V113.144H160.975V113.834H158.545V118.034H157.755ZM160.975 118.034V113.144H161.765V118.034H160.975ZM161.365 112.394C161.198 112.394 161.055 112.338 160.935 112.224C160.822 112.111 160.765 111.968 160.765 111.794C160.765 111.614 160.822 111.471 160.935 111.364C161.055 111.251 161.198 111.194 161.365 111.194C161.545 111.194 161.692 111.251 161.805 111.364C161.918 111.471 161.975 111.614 161.975 111.794C161.975 111.968 161.918 112.111 161.805 112.224C161.692 112.338 161.545 112.394 161.365 112.394ZM165.226 118.034C164.946 118.034 164.729 117.958 164.576 117.804C164.429 117.651 164.356 117.441 164.356 117.174V113.834H162.886V113.144H164.356V111.404H165.146V113.144H166.746V113.834H165.146V117.054C165.146 117.254 165.242 117.354 165.436 117.354H166.526V118.034H165.226Z" fill="#FDFEFF"/>
<path d="M174.246 118.174C173.726 118.174 173.279 118.088 172.906 117.914C172.532 117.734 172.246 117.484 172.046 117.164C171.846 116.838 171.746 116.458 171.746 116.024H172.816C172.816 116.371 172.929 116.661 173.156 116.894C173.389 117.121 173.752 117.234 174.246 117.234C174.746 117.234 175.129 117.101 175.396 116.834C175.662 116.568 175.796 116.204 175.796 115.744V114.904H175.636C175.522 115.064 175.339 115.218 175.086 115.364C174.832 115.511 174.466 115.584 173.986 115.584C173.579 115.584 173.202 115.494 172.856 115.314C172.509 115.134 172.229 114.878 172.016 114.544C171.809 114.204 171.706 113.801 171.706 113.334V113.214C171.706 112.748 171.812 112.341 172.026 111.994C172.246 111.648 172.549 111.378 172.936 111.184C173.329 110.991 173.779 110.894 174.286 110.894C174.799 110.894 175.246 110.994 175.626 111.194C176.012 111.388 176.312 111.661 176.526 112.014C176.739 112.361 176.846 112.771 176.846 113.244V115.664C176.846 116.211 176.736 116.671 176.516 117.044C176.302 117.418 175.999 117.701 175.606 117.894C175.219 118.081 174.766 118.174 174.246 118.174ZM174.276 114.734C174.582 114.734 174.849 114.674 175.076 114.554C175.302 114.434 175.479 114.271 175.606 114.064C175.732 113.851 175.796 113.601 175.796 113.314V113.234C175.796 112.801 175.656 112.461 175.376 112.214C175.102 111.961 174.736 111.834 174.276 111.834C173.816 111.834 173.446 111.961 173.166 112.214C172.892 112.461 172.756 112.801 172.756 113.234V113.314C172.756 113.601 172.816 113.851 172.936 114.064C173.062 114.271 173.239 114.434 173.466 114.554C173.699 114.674 173.969 114.734 174.276 114.734ZM180.418 118.174C179.891 118.174 179.435 118.078 179.048 117.884C178.661 117.691 178.361 117.418 178.148 117.064C177.941 116.711 177.838 116.301 177.838 115.834V115.724H178.908V115.824C178.908 116.251 179.038 116.594 179.298 116.854C179.565 117.108 179.935 117.234 180.408 117.234C180.895 117.234 181.271 117.101 181.538 116.834C181.805 116.568 181.938 116.208 181.938 115.754V115.664C181.938 115.231 181.805 114.884 181.538 114.624C181.278 114.364 180.945 114.234 180.538 114.234C180.311 114.234 180.121 114.271 179.968 114.344C179.821 114.411 179.701 114.494 179.608 114.594C179.521 114.694 179.448 114.791 179.388 114.884H178.058V111.034H182.748V111.984H179.108V114.044H179.268C179.335 113.931 179.428 113.824 179.548 113.724C179.675 113.618 179.838 113.531 180.038 113.464C180.238 113.398 180.478 113.364 180.758 113.364C181.171 113.364 181.545 113.454 181.878 113.634C182.218 113.808 182.488 114.068 182.688 114.414C182.888 114.754 182.988 115.168 182.988 115.654V115.764C182.988 116.251 182.885 116.674 182.678 117.034C182.471 117.394 182.175 117.674 181.788 117.874C181.408 118.074 180.951 118.174 180.418 118.174ZM184.794 118.164L184.154 117.644L189.624 110.904L190.264 111.424L184.794 118.164ZM189.124 118.144C188.631 118.144 188.241 118.008 187.954 117.734C187.668 117.454 187.524 117.078 187.524 116.604V116.544C187.524 116.064 187.668 115.688 187.954 115.414C188.241 115.134 188.631 114.994 189.124 114.994C189.611 114.994 190.001 115.134 190.294 115.414C190.588 115.688 190.734 116.064 190.734 116.544V116.604C190.734 117.078 190.588 117.454 190.294 117.734C190.008 118.008 189.618 118.144 189.124 118.144ZM189.124 117.444C189.364 117.444 189.551 117.371 189.684 117.224C189.824 117.078 189.894 116.884 189.894 116.644V116.504C189.894 116.258 189.824 116.061 189.684 115.914C189.551 115.768 189.364 115.694 189.124 115.694C188.891 115.694 188.704 115.768 188.564 115.914C188.431 116.061 188.364 116.258 188.364 116.504V116.644C188.364 116.884 188.431 117.078 188.564 117.224C188.704 117.371 188.891 117.444 189.124 117.444ZM185.294 114.074C184.801 114.074 184.408 113.938 184.114 113.664C183.828 113.384 183.684 113.008 183.684 112.534V112.464C183.684 111.984 183.828 111.608 184.114 111.334C184.408 111.061 184.801 110.924 185.294 110.924C185.781 110.924 186.168 111.061 186.454 111.334C186.748 111.608 186.894 111.984 186.894 112.464V112.534C186.894 113.008 186.751 113.384 186.464 113.664C186.178 113.938 185.788 114.074 185.294 114.074ZM185.294 113.374C185.528 113.374 185.711 113.301 185.844 113.154C185.984 113.001 186.054 112.804 186.054 112.564V112.424C186.054 112.184 185.984 111.991 185.844 111.844C185.711 111.698 185.528 111.624 185.294 111.624C185.054 111.624 184.864 111.698 184.724 111.844C184.591 111.991 184.524 112.184 184.524 112.424V112.564C184.524 112.804 184.591 113.001 184.724 113.154C184.864 113.301 185.054 113.374 185.294 113.374Z" fill="#9DFBFC"/>
<path d="M134.02 139.18V136.14H131.02V133.86H134.02V130.82H136.38V133.86H139.38V136.14H136.38V139.18H134.02ZM147.582 142.28C146.502 142.28 145.549 142.087 144.722 141.7C143.896 141.313 143.249 140.76 142.782 140.04C142.316 139.32 142.082 138.453 142.082 137.44V136.88H144.682V137.44C144.682 138.28 144.942 138.913 145.462 139.34C145.982 139.753 146.689 139.96 147.582 139.96C148.489 139.96 149.162 139.78 149.602 139.42C150.056 139.06 150.282 138.6 150.282 138.04C150.282 137.653 150.176 137.34 149.962 137.1C149.749 136.86 149.436 136.667 149.022 136.52C148.609 136.36 148.102 136.213 147.502 136.08L147.042 135.98C146.082 135.767 145.256 135.5 144.562 135.18C143.882 134.847 143.356 134.413 142.982 133.88C142.622 133.347 142.442 132.653 142.442 131.8C142.442 130.947 142.642 130.22 143.042 129.62C143.456 129.007 144.029 128.54 144.762 128.22C145.509 127.887 146.382 127.72 147.382 127.72C148.382 127.72 149.269 127.893 150.042 128.24C150.829 128.573 151.442 129.08 151.882 129.76C152.336 130.427 152.562 131.267 152.562 132.28V132.88H149.962V132.28C149.962 131.747 149.856 131.32 149.642 131C149.442 130.667 149.149 130.427 148.762 130.28C148.376 130.12 147.916 130.04 147.382 130.04C146.582 130.04 145.989 130.193 145.602 130.5C145.229 130.793 145.042 131.2 145.042 131.72C145.042 132.067 145.129 132.36 145.302 132.6C145.489 132.84 145.762 133.04 146.122 133.2C146.482 133.36 146.942 133.5 147.502 133.62L147.962 133.72C148.962 133.933 149.829 134.207 150.562 134.54C151.296 134.873 151.862 135.313 152.262 135.86C152.676 136.407 152.882 137.107 152.882 137.96C152.882 138.813 152.662 139.567 152.222 140.22C151.796 140.86 151.182 141.367 150.382 141.74C149.596 142.1 148.662 142.28 147.582 142.28ZM146.362 144.32V125.68H148.762V144.32H146.362ZM159.591 142.28C158.498 142.28 157.551 142.087 156.751 141.7C155.965 141.313 155.358 140.767 154.931 140.06C154.505 139.353 154.291 138.533 154.291 137.6V137.4H156.891V137.58C156.891 138.247 157.111 138.82 157.551 139.3C158.005 139.767 158.671 140 159.551 140C160.431 140 161.105 139.767 161.571 139.3C162.051 138.82 162.291 138.2 162.291 137.44V137.24C162.291 136.493 162.051 135.9 161.571 135.46C161.105 135.02 160.518 134.8 159.811 134.8C159.425 134.8 159.105 134.853 158.851 134.96C158.598 135.067 158.391 135.2 158.231 135.36C158.071 135.52 157.938 135.68 157.831 135.84H154.731V128H164.291V130.32H157.291V133.74H157.651C157.785 133.567 157.965 133.4 158.191 133.24C158.418 133.08 158.711 132.947 159.071 132.84C159.431 132.733 159.858 132.68 160.351 132.68C161.178 132.68 161.931 132.853 162.611 133.2C163.291 133.547 163.831 134.06 164.231 134.74C164.645 135.407 164.851 136.233 164.851 137.22V137.46C164.851 138.447 164.638 139.3 164.211 140.02C163.798 140.74 163.198 141.3 162.411 141.7C161.625 142.087 160.685 142.28 159.591 142.28ZM172.003 142.28C170.35 142.28 169.023 141.827 168.023 140.92C167.023 140 166.523 138.613 166.523 136.76V133.24C166.523 131.44 167.023 130.073 168.023 129.14C169.023 128.193 170.35 127.72 172.003 127.72C173.67 127.72 174.997 128.193 175.983 129.14C176.983 130.073 177.483 131.44 177.483 133.24V136.76C177.483 138.613 176.983 140 175.983 140.92C174.997 141.827 173.67 142.28 172.003 142.28ZM172.003 140C173.003 140 173.737 139.727 174.203 139.18C174.683 138.633 174.923 137.853 174.923 136.84V133.12C174.923 132.093 174.657 131.32 174.123 130.8C173.603 130.267 172.897 130 172.003 130C171.083 130 170.363 130.273 169.843 130.82C169.337 131.367 169.083 132.133 169.083 133.12V136.84C169.083 137.893 169.323 138.687 169.803 139.22C170.297 139.74 171.03 140 172.003 140ZM181.238 142.28C180.704 142.28 180.251 142.107 179.878 141.76C179.518 141.4 179.338 140.94 179.338 140.38C179.338 139.82 179.518 139.367 179.878 139.02C180.251 138.66 180.704 138.48 181.238 138.48C181.784 138.48 182.238 138.66 182.598 139.02C182.958 139.367 183.138 139.82 183.138 140.38C183.138 140.94 182.958 141.4 182.598 141.76C182.238 142.107 181.784 142.28 181.238 142.28ZM190.275 142.28C189.182 142.28 188.235 142.087 187.435 141.7C186.648 141.313 186.042 140.767 185.615 140.06C185.188 139.353 184.975 138.533 184.975 137.6V137.4H187.575V137.58C187.575 138.247 187.795 138.82 188.235 139.3C188.688 139.767 189.355 140 190.235 140C191.115 140 191.788 139.767 192.255 139.3C192.735 138.82 192.975 138.2 192.975 137.44V137.24C192.975 136.493 192.735 135.9 192.255 135.46C191.788 135.02 191.202 134.8 190.495 134.8C190.108 134.8 189.788 134.853 189.535 134.96C189.282 135.067 189.075 135.2 188.915 135.36C188.755 135.52 188.622 135.68 188.515 135.84H185.415V128H194.975V130.32H187.975V133.74H188.335C188.468 133.567 188.648 133.4 188.875 133.24C189.102 133.08 189.395 132.947 189.755 132.84C190.115 132.733 190.542 132.68 191.035 132.68C191.862 132.68 192.615 132.853 193.295 133.2C193.975 133.547 194.515 134.06 194.915 134.74C195.328 135.407 195.535 136.233 195.535 137.22V137.46C195.535 138.447 195.322 139.3 194.895 140.02C194.482 140.74 193.882 141.3 193.095 141.7C192.308 142.087 191.368 142.28 190.275 142.28Z" fill="#008E76"/>
<path d="M26.528 174V165.264H23.378V164.2H30.854V165.264H27.704V174H26.528ZM31.3261 174V167.154H32.4041V167.994H32.6001C32.7214 167.695 32.9081 167.476 33.1601 167.336C33.4121 167.196 33.7434 167.126 34.1541 167.126H34.9661V168.134H34.0841C33.5894 168.134 33.1881 168.274 32.8801 168.554C32.5814 168.825 32.4321 169.249 32.4321 169.828V174H31.3261ZM38.471 174.196C37.995 174.196 37.561 174.112 37.169 173.944C36.777 173.776 36.469 173.533 36.245 173.216C36.021 172.899 35.909 172.511 35.909 172.054C35.909 171.587 36.021 171.205 36.245 170.906C36.469 170.598 36.777 170.369 37.169 170.22C37.561 170.061 37.9997 169.982 38.485 169.982H40.795V169.478C40.795 168.993 40.6503 168.61 40.361 168.33C40.081 168.05 39.661 167.91 39.101 167.91C38.5503 167.91 38.121 168.045 37.813 168.316C37.505 168.577 37.295 168.932 37.183 169.38L36.147 169.044C36.259 168.661 36.4363 168.316 36.679 168.008C36.9217 167.691 37.2437 167.439 37.645 167.252C38.0557 167.056 38.5457 166.958 39.115 166.958C39.9923 166.958 40.6737 167.187 41.159 167.644C41.6443 168.092 41.887 168.727 41.887 169.548V172.642C41.887 172.922 42.0177 173.062 42.279 173.062H42.909V174H41.943C41.635 174 41.3877 173.916 41.201 173.748C41.0143 173.571 40.921 173.337 40.921 173.048V172.978H40.753C40.6503 173.155 40.5103 173.342 40.333 173.538C40.165 173.725 39.9317 173.879 39.633 174C39.3343 174.131 38.947 174.196 38.471 174.196ZM38.597 173.244C39.2503 173.244 39.7777 173.053 40.179 172.67C40.5897 172.278 40.795 171.732 40.795 171.032V170.878H38.527C38.0883 170.878 37.7243 170.976 37.435 171.172C37.155 171.359 37.015 171.643 37.015 172.026C37.015 172.409 37.1597 172.707 37.449 172.922C37.7477 173.137 38.1303 173.244 38.597 173.244ZM47.1303 174.196C46.5423 174.196 46.001 174.056 45.5063 173.776C45.0116 173.496 44.6196 173.09 44.3303 172.558C44.041 172.026 43.8963 171.396 43.8963 170.668V170.486C43.8963 169.758 44.041 169.133 44.3303 168.61C44.6196 168.078 45.007 167.672 45.4923 167.392C45.987 167.103 46.533 166.958 47.1303 166.958C47.6063 166.958 48.0076 167.023 48.3343 167.154C48.6703 167.275 48.941 167.434 49.1463 167.63C49.3516 167.817 49.5103 168.017 49.6223 168.232H49.8183V164.2H50.9243V174H49.8463V172.866H49.6503C49.4636 173.211 49.1743 173.519 48.7823 173.79C48.3903 174.061 47.8396 174.196 47.1303 174.196ZM47.4243 173.216C48.1336 173.216 48.7076 172.992 49.1463 172.544C49.5943 172.087 49.8183 171.452 49.8183 170.64V170.514C49.8183 169.702 49.5943 169.072 49.1463 168.624C48.7076 168.167 48.1336 167.938 47.4243 167.938C46.7243 167.938 46.1456 168.167 45.6883 168.624C45.2403 169.072 45.0163 169.702 45.0163 170.514V170.64C45.0163 171.452 45.2403 172.087 45.6883 172.544C46.1456 172.992 46.7243 173.216 47.4243 173.216ZM56.3781 174.196C55.6874 174.196 55.0807 174.051 54.5581 173.762C54.0354 173.463 53.6294 173.048 53.3401 172.516C53.0507 171.984 52.9061 171.368 52.9061 170.668V170.5C52.9061 169.791 53.0507 169.17 53.3401 168.638C53.6294 168.106 54.0307 167.695 54.5441 167.406C55.0574 167.107 55.6454 166.958 56.3081 166.958C56.9521 166.958 57.5214 167.098 58.0161 167.378C58.5107 167.649 58.8981 168.041 59.1781 168.554C59.4581 169.067 59.5981 169.669 59.5981 170.36V170.864H54.0121C54.0401 171.601 54.2781 172.18 54.7261 172.6C55.1741 173.011 55.7341 173.216 56.4061 173.216C56.9941 173.216 57.4467 173.081 57.7641 172.81C58.0814 172.539 58.3241 172.217 58.4921 171.844L59.4441 172.306C59.3041 172.595 59.1081 172.885 58.8561 173.174C58.6134 173.463 58.2914 173.706 57.8901 173.902C57.4981 174.098 56.9941 174.196 56.3781 174.196ZM54.0261 169.954H58.4781C58.4407 169.319 58.2214 168.825 57.8201 168.47C57.4281 168.115 56.9241 167.938 56.3081 167.938C55.6827 167.938 55.1694 168.115 54.7681 168.47C54.3667 168.825 54.1194 169.319 54.0261 169.954ZM61.5272 174V167.154H62.6052V167.994H62.8012C62.9226 167.695 63.1092 167.476 63.3612 167.336C63.6132 167.196 63.9446 167.126 64.3552 167.126H65.1672V168.134H64.2852C63.7906 168.134 63.3892 168.274 63.0812 168.554C62.7826 168.825 62.6332 169.249 62.6332 169.828V174H61.5272ZM69.4259 174.196C68.5765 174.196 67.8579 174 67.2699 173.608C66.6912 173.216 66.3412 172.595 66.2199 171.746L67.2699 171.508C67.3445 171.956 67.4845 172.311 67.6899 172.572C67.8952 172.824 68.1472 173.006 68.4459 173.118C68.7539 173.221 69.0805 173.272 69.4259 173.272C69.9392 173.272 70.3452 173.169 70.6439 172.964C70.9425 172.759 71.0919 172.483 71.0919 172.138C71.0919 171.783 70.9472 171.536 70.6579 171.396C70.3779 171.247 69.9905 171.125 69.4959 171.032L68.9219 170.934C68.4832 170.859 68.0819 170.743 67.7179 170.584C67.3539 170.425 67.0645 170.211 66.8499 169.94C66.6352 169.669 66.5279 169.329 66.5279 168.918C66.5279 168.302 66.7659 167.821 67.2419 167.476C67.7179 167.131 68.3479 166.958 69.1319 166.958C69.9065 166.958 70.5319 167.135 71.0079 167.49C71.4932 167.835 71.8059 168.325 71.9459 168.96L70.9099 169.226C70.8259 168.731 70.6252 168.386 70.3079 168.19C69.9905 167.985 69.5985 167.882 69.1319 167.882C68.6652 167.882 68.2965 167.971 68.0259 168.148C67.7552 168.316 67.6199 168.568 67.6199 168.904C67.6199 169.231 67.7459 169.473 67.9979 169.632C68.2592 169.781 68.6045 169.893 69.0339 169.968L69.6079 170.066C70.0932 170.15 70.5272 170.267 70.9099 170.416C71.3019 170.556 71.6099 170.761 71.8339 171.032C72.0672 171.303 72.1839 171.657 72.1839 172.096C72.1839 172.768 71.9319 173.286 71.4279 173.65C70.9332 174.014 70.2659 174.196 69.4259 174.196ZM80.4044 174.196C79.555 174.196 78.8364 174 78.2484 173.608C77.6697 173.216 77.3197 172.595 77.1984 171.746L78.2484 171.508C78.323 171.956 78.463 172.311 78.6684 172.572C78.8737 172.824 79.1257 173.006 79.4244 173.118C79.7324 173.221 80.059 173.272 80.4044 173.272C80.9177 173.272 81.3237 173.169 81.6224 172.964C81.921 172.759 82.0704 172.483 82.0704 172.138C82.0704 171.783 81.9257 171.536 81.6364 171.396C81.3564 171.247 80.969 171.125 80.4744 171.032L79.9004 170.934C79.4617 170.859 79.0604 170.743 78.6964 170.584C78.3324 170.425 78.043 170.211 77.8284 169.94C77.6137 169.669 77.5064 169.329 77.5064 168.918C77.5064 168.302 77.7444 167.821 78.2204 167.476C78.6964 167.131 79.3264 166.958 80.1104 166.958C80.885 166.958 81.5104 167.135 81.9864 167.49C82.4717 167.835 82.7844 168.325 82.9244 168.96L81.8884 169.226C81.8044 168.731 81.6037 168.386 81.2864 168.19C80.969 167.985 80.577 167.882 80.1104 167.882C79.6437 167.882 79.275 167.971 79.0044 168.148C78.7337 168.316 78.5984 168.568 78.5984 168.904C78.5984 169.231 78.7244 169.473 78.9764 169.632C79.2377 169.781 79.583 169.893 80.0124 169.968L80.5864 170.066C81.0717 170.15 81.5057 170.267 81.8884 170.416C82.2804 170.556 82.5884 170.761 82.8124 171.032C83.0457 171.303 83.1624 171.657 83.1624 172.096C83.1624 172.768 82.9104 173.286 82.4064 173.65C81.9117 174.014 81.2444 174.196 80.4044 174.196ZM88.1652 174.196C87.4745 174.196 86.8679 174.051 86.3452 173.762C85.8225 173.463 85.4165 173.048 85.1272 172.516C84.8379 171.984 84.6932 171.368 84.6932 170.668V170.5C84.6932 169.791 84.8379 169.17 85.1272 168.638C85.4165 168.106 85.8179 167.695 86.3312 167.406C86.8445 167.107 87.4325 166.958 88.0952 166.958C88.7392 166.958 89.3085 167.098 89.8032 167.378C90.2979 167.649 90.6852 168.041 90.9652 168.554C91.2452 169.067 91.3852 169.669 91.3852 170.36V170.864H85.7992C85.8272 171.601 86.0652 172.18 86.5132 172.6C86.9612 173.011 87.5212 173.216 88.1932 173.216C88.7812 173.216 89.2339 173.081 89.5512 172.81C89.8685 172.539 90.1112 172.217 90.2792 171.844L91.2312 172.306C91.0912 172.595 90.8952 172.885 90.6432 173.174C90.4005 173.463 90.0785 173.706 89.6772 173.902C89.2852 174.098 88.7812 174.196 88.1652 174.196ZM85.8132 169.954H90.2652C90.2279 169.319 90.0085 168.825 89.6072 168.47C89.2152 168.115 88.7112 167.938 88.0952 167.938C87.4699 167.938 86.9565 168.115 86.5552 168.47C86.1539 168.825 85.9065 169.319 85.8132 169.954ZM93.3143 174V167.154H94.3923V168.316H94.5883C94.7377 167.989 94.9897 167.695 95.3443 167.434C95.7083 167.163 96.2403 167.028 96.9403 167.028C97.4537 167.028 97.911 167.135 98.3123 167.35C98.723 167.565 99.0497 167.882 99.2923 168.302C99.535 168.722 99.6563 169.24 99.6563 169.856V174H98.5503V169.94C98.5503 169.259 98.3777 168.764 98.0323 168.456C97.6963 168.148 97.239 167.994 96.6603 167.994C95.9977 167.994 95.4563 168.209 95.0363 168.638C94.6257 169.067 94.4203 169.707 94.4203 170.556V174H93.3143ZM104.229 174C103.837 174 103.534 173.893 103.319 173.678C103.114 173.463 103.011 173.169 103.011 172.796V168.12H100.953V167.154H103.011V164.718H104.117V167.154H106.357V168.12H104.117V172.628C104.117 172.908 104.252 173.048 104.523 173.048H106.049V174H104.229ZM108.148 174V167.154H109.254V174H108.148ZM108.708 166.09C108.466 166.09 108.26 166.011 108.092 165.852C107.934 165.693 107.854 165.493 107.854 165.25C107.854 164.998 107.934 164.793 108.092 164.634C108.26 164.475 108.466 164.396 108.708 164.396C108.951 164.396 109.152 164.475 109.31 164.634C109.469 164.793 109.548 164.998 109.548 165.25C109.548 165.493 109.469 165.693 109.31 165.852C109.152 166.011 108.951 166.09 108.708 166.09ZM111.58 174V167.154H112.658V168.008H112.854C112.985 167.765 113.199 167.541 113.498 167.336C113.797 167.131 114.217 167.028 114.758 167.028C115.29 167.028 115.719 167.145 116.046 167.378C116.382 167.611 116.625 167.896 116.774 168.232H116.97C117.129 167.896 117.367 167.611 117.684 167.378C118.011 167.145 118.463 167.028 119.042 167.028C119.499 167.028 119.901 167.121 120.246 167.308C120.591 167.495 120.862 167.765 121.058 168.12C121.263 168.465 121.366 168.881 121.366 169.366V174H120.26V169.464C120.26 169.007 120.125 168.647 119.854 168.386C119.593 168.115 119.224 167.98 118.748 167.98C118.244 167.98 117.829 168.143 117.502 168.47C117.185 168.797 117.026 169.268 117.026 169.884V174H115.92V169.464C115.92 169.007 115.785 168.647 115.514 168.386C115.253 168.115 114.884 167.98 114.408 167.98C113.904 167.98 113.489 168.143 113.162 168.47C112.845 168.797 112.686 169.268 112.686 169.884V174H111.58ZM126.761 174.196C126.07 174.196 125.464 174.051 124.941 173.762C124.418 173.463 124.012 173.048 123.723 172.516C123.434 171.984 123.289 171.368 123.289 170.668V170.5C123.289 169.791 123.434 169.17 123.723 168.638C124.012 168.106 124.414 167.695 124.927 167.406C125.44 167.107 126.028 166.958 126.691 166.958C127.335 166.958 127.904 167.098 128.399 167.378C128.894 167.649 129.281 168.041 129.561 168.554C129.841 169.067 129.981 169.669 129.981 170.36V170.864H124.395C124.423 171.601 124.661 172.18 125.109 172.6C125.557 173.011 126.117 173.216 126.789 173.216C127.377 173.216 127.83 173.081 128.147 172.81C128.464 172.539 128.707 172.217 128.875 171.844L129.827 172.306C129.687 172.595 129.491 172.885 129.239 173.174C128.996 173.463 128.674 173.706 128.273 173.902C127.881 174.098 127.377 174.196 126.761 174.196ZM124.409 169.954H128.861C128.824 169.319 128.604 168.825 128.203 168.47C127.811 168.115 127.307 167.938 126.691 167.938C126.066 167.938 125.552 168.115 125.151 168.47C124.75 168.825 124.502 169.319 124.409 169.954ZM131.91 174V167.154H132.988V168.316H133.184C133.333 167.989 133.585 167.695 133.94 167.434C134.304 167.163 134.836 167.028 135.536 167.028C136.049 167.028 136.507 167.135 136.908 167.35C137.319 167.565 137.645 167.882 137.888 168.302C138.131 168.722 138.252 169.24 138.252 169.856V174H137.146V169.94C137.146 169.259 136.973 168.764 136.628 168.456C136.292 168.148 135.835 167.994 135.256 167.994C134.593 167.994 134.052 168.209 133.632 168.638C133.221 169.067 133.016 169.707 133.016 170.556V174H131.91ZM142.825 174C142.433 174 142.129 173.893 141.915 173.678C141.709 173.463 141.607 173.169 141.607 172.796V168.12H139.549V167.154H141.607V164.718H142.713V167.154H144.953V168.12H142.713V172.628C142.713 172.908 142.848 173.048 143.119 173.048H144.645V174H142.825ZM149.502 174.196C148.653 174.196 147.934 174 147.346 173.608C146.767 173.216 146.417 172.595 146.296 171.746L147.346 171.508C147.421 171.956 147.561 172.311 147.766 172.572C147.971 172.824 148.223 173.006 148.522 173.118C148.83 173.221 149.157 173.272 149.502 173.272C150.015 173.272 150.421 173.169 150.72 172.964C151.019 172.759 151.168 172.483 151.168 172.138C151.168 171.783 151.023 171.536 150.734 171.396C150.454 171.247 150.067 171.125 149.572 171.032L148.998 170.934C148.559 170.859 148.158 170.743 147.794 170.584C147.43 170.425 147.141 170.211 146.926 169.94C146.711 169.669 146.604 169.329 146.604 168.918C146.604 168.302 146.842 167.821 147.318 167.476C147.794 167.131 148.424 166.958 149.208 166.958C149.983 166.958 150.608 167.135 151.084 167.49C151.569 167.835 151.882 168.325 152.022 168.96L150.986 169.226C150.902 168.731 150.701 168.386 150.384 168.19C150.067 167.985 149.675 167.882 149.208 167.882C148.741 167.882 148.373 167.971 148.102 168.148C147.831 168.316 147.696 168.568 147.696 168.904C147.696 169.231 147.822 169.473 148.074 169.632C148.335 169.781 148.681 169.893 149.11 169.968L149.684 170.066C150.169 170.15 150.603 170.267 150.986 170.416C151.378 170.556 151.686 170.761 151.91 171.032C152.143 171.303 152.26 171.657 152.26 172.096C152.26 172.768 152.008 173.286 151.504 173.65C151.009 174.014 150.342 174.196 149.502 174.196Z" fill="#FDFEFF"/>
<path d="M58 186H285" stroke="#FF3141" stroke-width="4" stroke-linecap="round"/>
<path d="M48 184C46.8954 184 46 184.895 46 186C46 187.105 46.8954 188 48 188L48 184ZM192 188L194 188L194 184L192 184L192 188ZM48 188L192 188L192 184L48 184L48 188Z" fill="#008E76"/>
<path d="M26.02 190.14C25.5067 190.14 25.0633 190.043 24.69 189.85C24.3167 189.65 24.0267 189.377 23.82 189.03C23.6133 188.677 23.51 188.27 23.51 187.81V187.69H24.32V187.78C24.32 188.307 24.4733 188.71 24.78 188.99C25.0867 189.27 25.4933 189.41 26 189.41C26.5333 189.41 26.95 189.26 27.25 188.96C27.55 188.66 27.7 188.25 27.7 187.73V187.64C27.7 187.14 27.5533 186.743 27.26 186.45C26.9733 186.15 26.6 186 26.14 186C25.8733 186 25.6533 186.043 25.48 186.13C25.3067 186.21 25.17 186.313 25.07 186.44C24.97 186.56 24.8867 186.677 24.82 186.79H23.72V183H28.32V183.73H24.53V186.15H24.67C24.7433 186.017 24.8433 185.887 24.97 185.76C25.1033 185.633 25.28 185.527 25.5 185.44C25.72 185.353 25.9933 185.31 26.32 185.31C26.7267 185.31 27.0933 185.403 27.42 185.59C27.7533 185.777 28.0167 186.043 28.21 186.39C28.41 186.737 28.51 187.15 28.51 187.63V187.74C28.51 188.213 28.41 188.63 28.21 188.99C28.01 189.35 27.7233 189.633 27.35 189.84C26.9767 190.04 26.5333 190.14 26.02 190.14ZM31.9763 190.14C31.463 190.14 31.023 190.05 30.6563 189.87C30.2963 189.683 30.023 189.43 29.8363 189.11C29.6497 188.79 29.5563 188.427 29.5563 188.02H30.3663C30.3663 188.433 30.503 188.77 30.7763 189.03C31.0497 189.283 31.4497 189.41 31.9763 189.41C32.5297 189.41 32.953 189.263 33.2463 188.97C33.5463 188.67 33.6963 188.26 33.6963 187.74V186.77H33.5663C33.4397 186.97 33.2363 187.157 32.9563 187.33C32.683 187.497 32.2963 187.58 31.7963 187.58C31.3763 187.58 30.9897 187.487 30.6363 187.3C30.2897 187.113 30.013 186.85 29.8063 186.51C29.5997 186.17 29.4963 185.767 29.4963 185.3V185.18C29.4963 184.7 29.6063 184.29 29.8263 183.95C30.0463 183.603 30.343 183.337 30.7163 183.15C31.0963 182.957 31.5263 182.86 32.0063 182.86C32.493 182.86 32.923 182.957 33.2963 183.15C33.6763 183.337 33.973 183.607 34.1863 183.96C34.3997 184.307 34.5063 184.727 34.5063 185.22V187.66C34.5063 188.18 34.403 188.627 34.1963 189C33.9963 189.367 33.7063 189.65 33.3263 189.85C32.9463 190.043 32.4963 190.14 31.9763 190.14ZM32.0063 186.9C32.3397 186.9 32.633 186.833 32.8863 186.7C33.1397 186.56 33.3363 186.37 33.4763 186.13C33.623 185.883 33.6963 185.597 33.6963 185.27V185.19C33.6963 184.69 33.5397 184.3 33.2263 184.02C32.9197 183.733 32.513 183.59 32.0063 183.59C31.4997 183.59 31.0897 183.733 30.7763 184.02C30.463 184.3 30.3063 184.69 30.3063 185.19V185.27C30.3063 185.597 30.3763 185.883 30.5163 186.13C30.663 186.37 30.863 186.56 31.1163 186.7C31.3763 186.833 31.673 186.9 32.0063 186.9ZM36.4594 190.14L35.9194 189.71L41.4894 182.86L42.0194 183.29L36.4594 190.14ZM40.8994 190.13C40.4127 190.13 40.0227 189.99 39.7294 189.71C39.4427 189.423 39.2994 189.037 39.2994 188.55V188.49C39.2994 188.003 39.4427 187.62 39.7294 187.34C40.0227 187.053 40.4127 186.91 40.8994 186.91C41.3727 186.91 41.756 187.053 42.0494 187.34C42.3427 187.62 42.4894 188.003 42.4894 188.49V188.55C42.4894 189.037 42.3427 189.423 42.0494 189.71C41.7627 189.99 41.3794 190.13 40.8994 190.13ZM40.8994 189.55C41.1794 189.55 41.3994 189.46 41.5594 189.28C41.726 189.1 41.8094 188.867 41.8094 188.58V188.46C41.8094 188.167 41.726 187.933 41.5594 187.76C41.3994 187.58 41.1794 187.49 40.8994 187.49C40.6127 187.49 40.386 187.58 40.2194 187.76C40.0594 187.933 39.9794 188.167 39.9794 188.46V188.58C39.9794 188.867 40.0594 189.1 40.2194 189.28C40.386 189.46 40.6127 189.55 40.8994 189.55ZM37.0494 186.09C36.5627 186.09 36.176 185.947 35.8894 185.66C35.6027 185.373 35.4594 184.99 35.4594 184.51V184.45C35.4594 183.963 35.6027 183.58 35.8894 183.3C36.176 183.013 36.5627 182.87 37.0494 182.87C37.5294 182.87 37.9127 183.013 38.1994 183.3C38.4927 183.58 38.6394 183.963 38.6394 184.45V184.51C38.6394 184.99 38.4927 185.373 38.1994 185.66C37.9127 185.947 37.5294 186.09 37.0494 186.09ZM37.0494 185.51C37.3294 185.51 37.5527 185.42 37.7194 185.24C37.886 185.06 37.9694 184.827 37.9694 184.54V184.42C37.9694 184.127 37.886 183.893 37.7194 183.72C37.5527 183.54 37.3294 183.45 37.0494 183.45C36.7627 183.45 36.536 183.54 36.3694 183.72C36.2094 183.893 36.1294 184.127 36.1294 184.42V184.54C36.1294 184.827 36.2094 185.06 36.3694 185.24C36.536 185.42 36.7627 185.51 37.0494 185.51Z" fill="#008E76"/>
<path d="M295.97 190V188.57H292.32V187.61L295.26 183H296.78V187.84H297.98V188.57H296.78V190H295.97ZM293.13 187.84H295.97V183.49H295.83L293.13 187.72V187.84ZM300.576 190V183.54H300.426L299.066 186.03H298.186L299.856 183H301.386V190H300.576ZM303.536 190.14L302.996 189.71L308.566 182.86L309.096 183.29L303.536 190.14ZM307.976 190.13C307.489 190.13 307.099 189.99 306.806 189.71C306.519 189.423 306.376 189.037 306.376 188.55V188.49C306.376 188.003 306.519 187.62 306.806 187.34C307.099 187.053 307.489 186.91 307.976 186.91C308.449 186.91 308.832 187.053 309.126 187.34C309.419 187.62 309.566 188.003 309.566 188.49V188.55C309.566 189.037 309.419 189.423 309.126 189.71C308.839 189.99 308.456 190.13 307.976 190.13ZM307.976 189.55C308.256 189.55 308.476 189.46 308.636 189.28C308.802 189.1 308.886 188.867 308.886 188.58V188.46C308.886 188.167 308.802 187.933 308.636 187.76C308.476 187.58 308.256 187.49 307.976 187.49C307.689 187.49 307.462 187.58 307.296 187.76C307.136 187.933 307.056 188.167 307.056 188.46V188.58C307.056 188.867 307.136 189.1 307.296 189.28C307.462 189.46 307.689 189.55 307.976 189.55ZM304.126 186.09C303.639 186.09 303.252 185.947 302.966 185.66C302.679 185.373 302.536 184.99 302.536 184.51V184.45C302.536 183.963 302.679 183.58 302.966 183.3C303.252 183.013 303.639 182.87 304.126 182.87C304.606 182.87 304.989 183.013 305.276 183.3C305.569 183.58 305.716 183.963 305.716 184.45V184.51C305.716 184.99 305.569 185.373 305.276 185.66C304.989 185.947 304.606 186.09 304.126 186.09ZM304.126 185.51C304.406 185.51 304.629 185.42 304.796 185.24C304.962 185.06 305.046 184.827 305.046 184.54V184.42C305.046 184.127 304.962 183.893 304.796 183.72C304.629 183.54 304.406 183.45 304.126 183.45C303.839 183.45 303.612 183.54 303.446 183.72C303.286 183.893 303.206 184.127 303.206 184.42V184.54C303.206 184.827 303.286 185.06 303.446 185.24C303.612 185.42 303.839 185.51 304.126 185.51Z" fill="#FF3141"/>
<rect x="23" y="209" width="92" height="30" rx="5" fill="#008E76"/>
<path d="M45.144 229V227.376H46.432V220.824H45.144V219.2H50.184C50.7813 219.2 51.2993 219.303 51.738 219.508C52.186 219.704 52.5313 219.989 52.774 220.362C53.026 220.726 53.152 221.165 53.152 221.678V221.818C53.152 222.266 53.068 222.635 52.9 222.924C52.732 223.204 52.5313 223.423 52.298 223.582C52.074 223.731 51.8593 223.839 51.654 223.904V224.156C51.8593 224.212 52.0833 224.319 52.326 224.478C52.5687 224.627 52.774 224.847 52.942 225.136C53.1193 225.425 53.208 225.803 53.208 226.27V226.41C53.208 226.951 53.082 227.418 52.83 227.81C52.578 228.193 52.228 228.487 51.78 228.692C51.3413 228.897 50.828 229 50.24 229H45.144ZM48.28 227.32H50.016C50.4173 227.32 50.7393 227.222 50.982 227.026C51.234 226.83 51.36 226.55 51.36 226.186V226.046C51.36 225.682 51.2387 225.402 50.996 225.206C50.7533 225.01 50.4267 224.912 50.016 224.912H48.28V227.32ZM48.28 223.232H49.988C50.3707 223.232 50.6833 223.134 50.926 222.938C51.178 222.742 51.304 222.471 51.304 222.126V221.986C51.304 221.631 51.1827 221.361 50.94 221.174C50.6973 220.978 50.38 220.88 49.988 220.88H48.28V223.232ZM58.5009 229.196C57.6982 229.196 57.0075 229.051 56.4289 228.762C55.8595 228.463 55.4209 228.043 55.1129 227.502C54.8142 226.951 54.6649 226.303 54.6649 225.556V219.2H56.5129V225.612C56.5129 226.209 56.6809 226.681 57.0169 227.026C57.3622 227.371 57.8569 227.544 58.5009 227.544C59.1449 227.544 59.6349 227.371 59.9709 227.026C60.3162 226.681 60.4889 226.209 60.4889 225.612V219.2H62.3369V225.556C62.3369 226.303 62.1829 226.951 61.8749 227.502C61.5762 228.043 61.1375 228.463 60.5589 228.762C59.9895 229.051 59.3035 229.196 58.5009 229.196ZM66.6471 229V225.626L63.3151 219.2H65.3731L67.4451 223.4H67.6971L69.7691 219.2H71.8271L68.4951 225.626V229H66.6471Z" fill="#FDFEFF"/>
<path d="M89.4167 221.083L83 227.5" stroke="#FDFEFF" stroke-width="2" stroke-linecap="round"/>
<path d="M85.9165 220.5H89.4165C89.6915 220.5 89.829 220.5 89.9144 220.585C89.9998 220.671 89.9998 220.808 89.9998 221.083V224.583" stroke="#FDFEFF" stroke-width="2" stroke-linecap="round" stroke-linejoin="round"/>
<rect x="217" y="209" width="92" height="30" rx="5" fill="#FF3141"/>
<path d="M240.826 229.196C240.07 229.196 239.403 229.061 238.824 228.79C238.245 228.519 237.793 228.132 237.466 227.628C237.139 227.124 236.976 226.517 236.976 225.808V225.416H238.796V225.808C238.796 226.396 238.978 226.839 239.342 227.138C239.706 227.427 240.201 227.572 240.826 227.572C241.461 227.572 241.932 227.446 242.24 227.194C242.557 226.942 242.716 226.62 242.716 226.228C242.716 225.957 242.637 225.738 242.478 225.57C242.329 225.402 242.105 225.267 241.806 225.164C241.517 225.052 241.162 224.949 240.742 224.856L240.42 224.786C239.748 224.637 239.169 224.45 238.684 224.226C238.208 223.993 237.839 223.689 237.578 223.316C237.326 222.943 237.2 222.457 237.2 221.86C237.2 221.263 237.34 220.754 237.62 220.334C237.909 219.905 238.311 219.578 238.824 219.354C239.347 219.121 239.958 219.004 240.658 219.004C241.358 219.004 241.979 219.125 242.52 219.368C243.071 219.601 243.5 219.956 243.808 220.432C244.125 220.899 244.284 221.487 244.284 222.196V222.616H242.464V222.196C242.464 221.823 242.389 221.524 242.24 221.3C242.1 221.067 241.895 220.899 241.624 220.796C241.353 220.684 241.031 220.628 240.658 220.628C240.098 220.628 239.683 220.735 239.412 220.95C239.151 221.155 239.02 221.44 239.02 221.804C239.02 222.047 239.081 222.252 239.202 222.42C239.333 222.588 239.524 222.728 239.776 222.84C240.028 222.952 240.35 223.05 240.742 223.134L241.064 223.204C241.764 223.353 242.371 223.545 242.884 223.778C243.407 224.011 243.813 224.319 244.102 224.702C244.391 225.085 244.536 225.575 244.536 226.172C244.536 226.769 244.382 227.297 244.074 227.754C243.775 228.202 243.346 228.557 242.786 228.818C242.235 229.07 241.582 229.196 240.826 229.196ZM245.914 229V219.2H252.214V220.88H247.762V223.218H251.822V224.898H247.762V227.32H252.298V229H245.914ZM253.666 229V219.2H255.514V227.32H259.994V229H253.666ZM261.254 229V219.2H263.102V227.32H267.582V229H261.254Z" fill="#FDFEFF"/>
<path d="M285.417 226.917L279 220.5" stroke="#FDFEFF" stroke-width="2" stroke-linecap="round"/>
<path d="M286 223.417V226.917C286 227.192 286 227.329 285.915 227.415C285.829 227.5 285.692 227.5 285.417 227.5H281.917" stroke="#FDFEFF" stroke-width="2" stroke-linecap="round" stroke-linejoin="round"/>
<defs>
<filter id="filter0_bd_364_229" x="-16" y="-20" width="364" height="298" filterUnits="userSpaceOnUse" color-interpolation-filters="sRGB">
<feFlood flood-opacity="0" result="BackgroundImageFix"/>
<feGaussianBlur in="BackgroundImageFix" stdDeviation="10"/>
<feComposite in2="SourceAlpha" operator="in" result="effect1_backgroundBlur_364_229"/>
<feColorMatrix in="SourceAlpha" type="matrix" values="0 0 0 0 0 0 0 0 0 0 0 0 0 0 0 0 0 0 127 0" result="hardAlpha"/>
<feOffset dy="4"/>
<feGaussianBlur stdDeviation="2"/>
<feComposite in2="hardAlpha" operator="out"/>
<feColorMatrix type="matrix" values="0 0 0 0 0 0 0 0 0 0 0 0 0 0 0 0 0 0 0.25 0"/>
<feBlend mode="normal" in2="effect1_backgroundBlur_364_229" result="effect2_dropShadow_364_229"/>
<feBlend mode="normal" in="SourceGraphic" in2="effect2_dropShadow_364_229" result="shape"/>
</filter>
<linearGradient id="paint0_linear_364_229" x1="4" y1="0" x2="373.07" y2="131.642" gradientUnits="userSpaceOnUse">
<stop stop-color="#7BCCC5" stop-opacity="0.5"/>
<stop offset="0.547742" stop-color="#7BCCC5" stop-opacity="0"/>
<stop offset="1" stop-color="#7BCCC5" stop-opacity="0.5"/>
</linearGradient>
</defs>
</svg>
