<svg width="37" height="29" viewBox="0 0 37 29" fill="none" xmlns="http://www.w3.org/2000/svg">
<path d="M2.7 29V23.1H6.1C8.83333 23.1 10.2 21.7333 10.2 19V15.8H8.7C6.36667 15.8 4.43333 15.1 2.9 13.7C1.36667 12.3 0.6 10.5333 0.6 8.4C0.6 6.06667 1.36667 4.2 2.9 2.8C4.43333 1.33333 6.36667 0.599995 8.7 0.599995C11.0333 0.599995 12.9333 1.36666 14.4 2.9C15.9333 4.36666 16.7 6.3 16.7 8.7V19.1C16.7 25.7 13.4 29 6.8 29H2.7ZM22.4 29V23.1H25.8C28.5333 23.1 29.9 21.7333 29.9 19V15.8H28.4C26.0667 15.8 24.1333 15.1 22.6 13.7C21.0667 12.3 20.3 10.5333 20.3 8.4C20.3 6.06667 21.0667 4.2 22.6 2.8C24.1333 1.33333 26.0667 0.599995 28.4 0.599995C30.7333 0.599995 32.6333 1.36666 34.1 2.9C35.6333 4.36666 36.4 6.3 36.4 8.7V19.1C36.4 25.7 33.1 29 26.5 29H22.4Z" fill="#3D8E87"/>
</svg>
