<svg width="30" height="30" viewBox="0 0 30 30" fill="none" xmlns="http://www.w3.org/2000/svg">
<path d="M3.125 15C3.125 9.40207 3.125 6.60311 4.86405 4.86405C6.60311 3.125 9.40207 3.125 15 3.125C20.5979 3.125 23.3969 3.125 25.136 4.86405C26.875 6.60311 26.875 9.40207 26.875 15C26.875 20.5979 26.875 23.3969 25.136 25.136C23.3969 26.875 20.5979 26.875 15 26.875C9.40207 26.875 6.60311 26.875 4.86405 25.136C3.125 23.3969 3.125 20.5979 3.125 15Z" stroke="#757474" stroke-width="1.5" stroke-linejoin="round"/>
<path d="M3.125 18.125H3.79844C4.38882 18.125 4.68401 18.125 4.9407 18.0016C5.19739 17.8783 5.3818 17.6478 5.75061 17.1868L7.5 15L9.375 18.125L11.25 13.75L14.375 20L18.75 11.25L21.25 15.625L23.125 13.75L24.9316 16.46C25.2466 16.9325 25.4041 17.1687 25.6343 17.3117C25.68 17.3401 25.7275 17.3656 25.7765 17.3879C26.0231 17.5 26.3071 17.5 26.875 17.5" stroke="#757474" stroke-width="1.5" stroke-linejoin="round"/>
<path d="M18.75 3.125V6.875M18.75 26.875V16.875" stroke="#757474" stroke-width="1.5" stroke-linecap="round" stroke-linejoin="round"/>
<path d="M18.75 12.5C19.4404 12.5 20 11.9404 20 11.25C20 10.5596 19.4404 10 18.75 10C18.0596 10 17.5 10.5596 17.5 11.25C17.5 11.9404 18.0596 12.5 18.75 12.5Z" stroke="#757474" stroke-width="1.5" stroke-linejoin="round"/>
</svg>
