<svg width="30" height="30" viewBox="0 0 30 30" fill="none" xmlns="http://www.w3.org/2000/svg">
<path d="M17.5012 4.375C22.2152 4.375 24.5722 4.375 26.0367 5.931C27.5012 7.48699 27.5012 9.99133 27.5012 15C27.5012 20.0086 27.5012 22.513 26.0367 24.069C24.5722 25.625 22.2152 25.625 17.5012 25.625H12.5012C7.78717 25.625 5.43015 25.625 3.96568 24.069C2.50122 22.513 2.50122 20.0086 2.50122 15C2.50122 9.99133 2.50122 7.48699 3.96568 5.931C5.43015 4.375 7.78717 4.375 12.5012 4.375H17.5012Z" stroke="#9DFBFC" stroke-width="1.5" stroke-linejoin="round"/>
<path d="M6.25122 19.3749C8.26203 16.7031 12.9436 16.5572 15.0012 19.3749M12.8125 12.8125C12.8125 14.0206 11.8331 15 10.625 15C9.41687 15 8.4375 14.0206 8.4375 12.8125C8.4375 11.6044 9.41687 10.625 10.625 10.625C11.8331 10.625 12.8125 11.6044 12.8125 12.8125Z" stroke="#9DFBFC" stroke-width="1.5" stroke-linecap="round"/>
<path d="M18.7512 11.875H23.7512" stroke="#9DFBFC" stroke-width="1.5" stroke-linecap="round"/>
<path d="M18.7512 16.875H21.2512" stroke="#9DFBFC" stroke-width="1.5" stroke-linecap="round"/>
</svg>
