<svg width="786" height="106" viewBox="0 0 786 106" fill="none" xmlns="http://www.w3.org/2000/svg">
<ellipse cx="12.5159" cy="12.5" rx="12.5159" ry="12.5" fill="#008E76"/>
<ellipse cx="12.5159" cy="39.5" rx="12.5159" ry="12.5" fill="#FF3141"/>
<ellipse cx="12.5159" cy="66.5" rx="12.5159" ry="12.5" fill="#008E76"/>
<ellipse cx="12.5159" cy="93.5" rx="12.5159" ry="12.5" fill="#008E76"/>
<ellipse cx="39.5503" cy="12.5" rx="12.5159" ry="12.5" fill="#FF3141"/>
<ellipse cx="39.5503" cy="39.5" rx="12.5159" ry="12.5" fill="#FF3141"/>
<ellipse cx="39.5503" cy="66.5" rx="12.5159" ry="12.5" fill="#008E76"/>
<ellipse cx="39.5503" cy="93.5" rx="12.5159" ry="12.5" fill="#FF3141"/>
<ellipse cx="66.5846" cy="12.5" rx="12.5159" ry="12.5" fill="#FF3141"/>
<ellipse cx="66.5846" cy="39.5" rx="12.5159" ry="12.5" fill="#008E76"/>
<ellipse cx="66.5846" cy="66.5" rx="12.5159" ry="12.5" fill="#FF3141"/>
<ellipse cx="66.5846" cy="93.5" rx="12.5159" ry="12.5" fill="#008E76"/>
<ellipse cx="93.6192" cy="12.5" rx="12.5159" ry="12.5" fill="#FF3141"/>
<ellipse cx="93.6192" cy="39.5" rx="12.5159" ry="12.5" fill="#FDFEFF"/>
<ellipse cx="93.6192" cy="66.5" rx="12.5159" ry="12.5" fill="#008E76"/>
<ellipse cx="93.6192" cy="93.5" rx="12.5159" ry="12.5" fill="#FF3141"/>
<ellipse cx="120.653" cy="12.5" rx="12.5159" ry="12.5" fill="#FF3141"/>
<ellipse cx="120.653" cy="39.5" rx="12.5159" ry="12.5" fill="#008E76"/>
<ellipse cx="120.653" cy="66.5" rx="12.5159" ry="12.5" fill="#FF3141"/>
<ellipse cx="120.653" cy="93.5" rx="12.5159" ry="12.5" fill="#008E76"/>
<ellipse cx="175.724" cy="12.5" rx="12.5159" ry="12.5" fill="#008E76"/>
<ellipse cx="175.724" cy="39.5" rx="12.5159" ry="12.5" fill="#008E76"/>
<ellipse cx="175.724" cy="66.5" rx="12.5159" ry="12.5" fill="#008E76"/>
<ellipse cx="175.724" cy="93.5" rx="12.5159" ry="12.5" fill="#FF3141"/>
<ellipse cx="202.758" cy="12.5" rx="12.5159" ry="12.5" fill="#FF3141"/>
<ellipse cx="202.758" cy="39.5" rx="12.5159" ry="12.5" fill="#FF3141"/>
<ellipse cx="202.758" cy="66.5" rx="12.5159" ry="12.5" fill="#FF3141"/>
<ellipse cx="202.758" cy="93.5" rx="12.5159" ry="12.5" fill="#008E76"/>
<ellipse cx="229.792" cy="12.5" rx="12.5159" ry="12.5" fill="#008E76"/>
<ellipse cx="229.792" cy="39.5" rx="12.5159" ry="12.5" fill="#FF3141"/>
<ellipse cx="229.792" cy="66.5" rx="12.5159" ry="12.5" fill="#FF3141"/>
<ellipse cx="229.792" cy="93.5" rx="12.5159" ry="12.5" fill="#008E76"/>
<ellipse cx="256.827" cy="12.5" rx="12.5159" ry="12.5" fill="#008E76"/>
<ellipse cx="256.827" cy="39.5" rx="12.5159" ry="12.5" fill="#FF3141"/>
<ellipse cx="256.827" cy="66.5" rx="12.5159" ry="12.5" fill="#008E76"/>
<ellipse cx="256.827" cy="93.5" rx="12.5159" ry="12.5" fill="#008E76"/>
<ellipse cx="283.861" cy="12.5" rx="12.5159" ry="12.5" fill="#FF3141"/>
<ellipse cx="283.861" cy="39.5" rx="12.5159" ry="12.5" fill="#008E76"/>
<ellipse cx="283.861" cy="66.5" rx="12.5159" ry="12.5" fill="#FF3141"/>
<ellipse cx="283.861" cy="93.5" rx="12.5159" ry="12.5" fill="#008E76"/>
<ellipse cx="338.931" cy="12.5" rx="12.5159" ry="12.5" fill="#FF3141"/>
<ellipse cx="338.931" cy="39.5" rx="12.5159" ry="12.5" fill="#008E76"/>
<ellipse cx="338.931" cy="66.5" rx="12.5159" ry="12.5" fill="#FF3141"/>
<ellipse cx="338.931" cy="93.5" rx="12.5159" ry="12.5" fill="#008E76"/>
<ellipse cx="365.966" cy="12.5" rx="12.5159" ry="12.5" fill="#008E76"/>
<ellipse cx="365.966" cy="39.5" rx="12.5159" ry="12.5" fill="#FF3141"/>
<ellipse cx="365.966" cy="66.5" rx="12.5159" ry="12.5" fill="#008E76"/>
<ellipse cx="365.966" cy="93.5" rx="12.5159" ry="12.5" fill="#FF3141"/>
<ellipse cx="393" cy="12.5" rx="12.5159" ry="12.5" fill="#FF3141"/>
<ellipse cx="393" cy="39.5" rx="12.5159" ry="12.5" fill="#FF3141"/>
<ellipse cx="393" cy="66.5" rx="12.5159" ry="12.5" fill="#008E76"/>
<ellipse cx="393" cy="93.5" rx="12.5159" ry="12.5" fill="#FF3141"/>
<ellipse cx="420.034" cy="12.5" rx="12.5159" ry="12.5" fill="#008E76"/>
<ellipse cx="420.034" cy="39.5" rx="12.5159" ry="12.5" fill="#008E76"/>
<ellipse cx="420.034" cy="66.5" rx="12.5159" ry="12.5" fill="#FF3141"/>
<ellipse cx="420.034" cy="93.5" rx="12.5159" ry="12.5" fill="#008E76"/>
<ellipse cx="447.069" cy="12.5" rx="12.5159" ry="12.5" fill="#008E76"/>
<ellipse cx="447.069" cy="39.5" rx="12.5159" ry="12.5" fill="#FF3141"/>
<ellipse cx="447.069" cy="66.5" rx="12.5159" ry="12.5" fill="#FF3141"/>
<ellipse cx="447.069" cy="93.5" rx="12.5159" ry="12.5" fill="#FDFEFF"/>
<ellipse cx="502.139" cy="12.5" rx="12.5159" ry="12.5" fill="#008E76"/>
<ellipse cx="502.139" cy="39.5" rx="12.5159" ry="12.5" fill="#FF3141"/>
<ellipse cx="502.139" cy="66.5" rx="12.5159" ry="12.5" fill="#FF3141"/>
<ellipse cx="502.139" cy="93.5" rx="12.5159" ry="12.5" fill="#FF3141"/>
<ellipse cx="529.173" cy="12.5" rx="12.5159" ry="12.5" fill="#FF3141"/>
<ellipse cx="529.173" cy="39.5" rx="12.5159" ry="12.5" fill="#008E76"/>
<ellipse cx="529.173" cy="66.5" rx="12.5159" ry="12.5" fill="#FF3141"/>
<ellipse cx="529.173" cy="93.5" rx="12.5159" ry="12.5" fill="#008E76"/>
<ellipse cx="556.208" cy="12.5" rx="12.5159" ry="12.5" fill="#008E76"/>
<ellipse cx="556.208" cy="39.5" rx="12.5159" ry="12.5" fill="#FF3141"/>
<ellipse cx="556.208" cy="66.5" rx="12.5159" ry="12.5" fill="#008E76"/>
<ellipse cx="556.208" cy="93.5" rx="12.5159" ry="12.5" fill="#FF3141"/>
<ellipse cx="583.242" cy="12.5" rx="12.5159" ry="12.5" fill="#FF3141"/>
<ellipse cx="583.242" cy="39.5" rx="12.5159" ry="12.5" fill="#FF3141"/>
<ellipse cx="583.242" cy="66.5" rx="12.5159" ry="12.5" fill="#008E76"/>
<ellipse cx="583.242" cy="93.5" rx="12.5159" ry="12.5" fill="#008E76"/>
<ellipse cx="610.276" cy="12.5" rx="12.5159" ry="12.5" fill="#008E76"/>
<ellipse cx="610.276" cy="39.5" rx="12.5159" ry="12.5" fill="#008E76"/>
<ellipse cx="610.276" cy="66.5" rx="12.5159" ry="12.5" fill="#FF3141"/>
<ellipse cx="610.276" cy="93.5" rx="12.5159" ry="12.5" fill="#008E76"/>
<ellipse cx="665.346" cy="12.5" rx="12.5159" ry="12.5" fill="#008E76"/>
<ellipse cx="665.346" cy="39.5" rx="12.5159" ry="12.5" fill="#008E76"/>
<ellipse cx="665.346" cy="66.5" rx="12.5159" ry="12.5" fill="#FF3141"/>
<ellipse cx="665.346" cy="93.5" rx="12.5159" ry="12.5" fill="#FDFEFF"/>
<ellipse cx="692.381" cy="12.5" rx="12.5159" ry="12.5" fill="#FF3141"/>
<ellipse cx="692.381" cy="39.5" rx="12.5159" ry="12.5" fill="#FF3141"/>
<ellipse cx="692.381" cy="66.5" rx="12.5159" ry="12.5" fill="#008E76"/>
<ellipse cx="692.381" cy="93.5" rx="12.5159" ry="12.5" fill="#008E76"/>
<ellipse cx="719.415" cy="12.5" rx="12.5159" ry="12.5" fill="#008E76"/>
<ellipse cx="719.415" cy="39.5" rx="12.5159" ry="12.5" fill="#008E76"/>
<ellipse cx="719.415" cy="66.5" rx="12.5159" ry="12.5" fill="#FF3141"/>
<ellipse cx="719.415" cy="93.5" rx="12.5159" ry="12.5" fill="#008E76"/>
<ellipse cx="746.45" cy="12.5" rx="12.5159" ry="12.5" fill="#008E76"/>
<ellipse cx="746.45" cy="39.5" rx="12.5159" ry="12.5" fill="#2F2F2F"/>
<ellipse cx="746.45" cy="66.5" rx="12.5159" ry="12.5" fill="#2F2F2F"/>
<ellipse cx="746.45" cy="93.5" rx="12.5159" ry="12.5" fill="#2F2F2F"/>
<ellipse cx="773.484" cy="12.5" rx="12.5159" ry="12.5" fill="#2F2F2F"/>
<ellipse cx="773.484" cy="39.5" rx="12.5159" ry="12.5" fill="#2F2F2F"/>
<ellipse cx="773.484" cy="66.5" rx="12.5159" ry="12.5" fill="#2F2F2F"/>
<ellipse cx="773.484" cy="93.5" rx="12.5159" ry="12.5" fill="#2F2F2F"/>
</svg>
