<svg width="242" height="218" viewBox="0 0 242 218" fill="none" xmlns="http://www.w3.org/2000/svg">
<circle cx="119.5" cy="143.5" r="74.5" fill="url(#paint0_linear_64_222)" fill-opacity="0.4"/>
<path d="M41.168 16V4.8H44.416L46.864 14.848H47.12L49.568 4.8H52.816V16H51.136V6.016H50.88L48.448 16H45.536L43.104 6.016H42.848V16H41.168ZM58.8964 16.224C58.107 16.224 57.403 16.064 56.7844 15.744C56.1764 15.4133 55.6964 14.944 55.3444 14.336C54.9924 13.728 54.8164 13.008 54.8164 12.176V11.936C54.8164 11.104 54.9924 10.3893 55.3444 9.792C55.6964 9.184 56.1764 8.71467 56.7844 8.384C57.403 8.05333 58.107 7.888 58.8964 7.888C59.6857 7.888 60.3897 8.05333 61.0084 8.384C61.627 8.71467 62.1124 9.184 62.4644 9.792C62.8164 10.3893 62.9924 11.104 62.9924 11.936V12.176C62.9924 13.008 62.8164 13.728 62.4644 14.336C62.1124 14.944 61.627 15.4133 61.0084 15.744C60.3897 16.064 59.6857 16.224 58.8964 16.224ZM58.8964 14.752C59.6217 14.752 60.2084 14.5227 60.6564 14.064C61.115 13.5947 61.3444 12.9493 61.3444 12.128V11.984C61.3444 11.1627 61.1204 10.5227 60.6724 10.064C60.2244 9.59467 59.6324 9.36 58.8964 9.36C58.1817 9.36 57.595 9.59467 57.1364 10.064C56.6884 10.5227 56.4644 11.1627 56.4644 11.984V12.128C56.4644 12.9493 56.6884 13.5947 57.1364 14.064C57.595 14.5227 58.1817 14.752 58.8964 14.752ZM66.5869 16L63.9309 8.112H65.6749L67.7709 14.784H68.0269L70.1229 8.112H71.8669L69.2109 16H66.5869ZM73.466 16V8.112H75.114V16H73.466ZM74.298 7.04C73.978 7.04 73.706 6.93867 73.482 6.736C73.2687 6.52267 73.162 6.25067 73.162 5.92C73.162 5.58933 73.2687 5.32267 73.482 5.12C73.706 4.90667 73.978 4.8 74.298 4.8C74.6287 4.8 74.9007 4.90667 75.114 5.12C75.3273 5.32267 75.434 5.58933 75.434 5.92C75.434 6.25067 75.3273 6.52267 75.114 6.736C74.9007 6.93867 74.6287 7.04 74.298 7.04ZM77.5598 16V8.112H79.1758V9.296H79.4318C79.5811 8.976 79.8478 8.67733 80.2318 8.4C80.6158 8.12267 81.1864 7.984 81.9438 7.984C82.5411 7.984 83.0691 8.11733 83.5278 8.384C83.9971 8.65067 84.3651 9.02933 84.6318 9.52C84.8984 10 85.0318 10.5813 85.0318 11.264V16H83.3838V11.392C83.3838 10.7093 83.2131 10.208 82.8718 9.888C82.5304 9.55733 82.0611 9.392 81.4638 9.392C80.7811 9.392 80.2318 9.616 79.8158 10.064C79.4104 10.512 79.2078 11.1627 79.2078 12.016V16H77.5598ZM87.0195 12.096V11.856C87.0195 11.024 87.1848 10.3147 87.5155 9.728C87.8568 9.14133 88.3048 8.688 88.8595 8.368C89.4142 8.048 90.0222 7.888 90.6835 7.888C91.4515 7.888 92.0382 8.032 92.4435 8.32C92.8595 8.608 93.1635 8.91733 93.3555 9.248H93.6115V8.112H95.2115V17.616C95.2115 18.096 95.0675 18.48 94.7795 18.768C94.5022 19.056 94.1182 19.2 93.6275 19.2H88.3155V17.76H93.1155C93.4248 17.76 93.5795 17.6 93.5795 17.28V14.768H93.3235C93.2062 14.96 93.0408 15.1573 92.8275 15.36C92.6142 15.5627 92.3315 15.728 91.9795 15.856C91.6382 15.984 91.2062 16.048 90.6835 16.048C90.0222 16.048 89.4088 15.8933 88.8435 15.584C88.2888 15.264 87.8462 14.8107 87.5155 14.224C87.1848 13.6267 87.0195 12.9173 87.0195 12.096ZM91.1315 14.608C91.8462 14.608 92.4328 14.384 92.8915 13.936C93.3608 13.4773 93.5955 12.848 93.5955 12.048V11.904C93.5955 11.0827 93.3662 10.4533 92.9075 10.016C92.4488 9.568 91.8568 9.344 91.1315 9.344C90.4275 9.344 89.8408 9.568 89.3715 10.016C88.9128 10.4533 88.6835 11.0827 88.6835 11.904V12.048C88.6835 12.848 88.9128 13.4773 89.3715 13.936C89.8408 14.384 90.4275 14.608 91.1315 14.608ZM100.633 16L103.833 4.8H106.873L110.057 16H108.281L107.545 13.36H103.161L102.425 16H100.633ZM103.593 11.76H107.113L105.481 5.872H105.225L103.593 11.76ZM113.212 16L110.556 8.112H112.3L114.396 14.784H114.652L116.748 8.112H118.492L115.836 16H113.212ZM123.426 16.224C122.626 16.224 121.927 16.0587 121.33 15.728C120.732 15.3867 120.263 14.912 119.922 14.304C119.591 13.6853 119.426 12.9707 119.426 12.16V11.968C119.426 11.1467 119.591 10.432 119.922 9.824C120.252 9.20533 120.711 8.73067 121.298 8.4C121.895 8.05867 122.583 7.888 123.362 7.888C124.119 7.888 124.78 8.05867 125.346 8.4C125.922 8.73067 126.37 9.19467 126.69 9.792C127.01 10.3893 127.17 11.088 127.17 11.888V12.512H121.106C121.127 13.2053 121.356 13.76 121.794 14.176C122.242 14.5813 122.796 14.784 123.458 14.784C124.076 14.784 124.54 14.6453 124.85 14.368C125.17 14.0907 125.415 13.7707 125.586 13.408L126.946 14.112C126.796 14.4107 126.578 14.7253 126.29 15.056C126.012 15.3867 125.644 15.664 125.186 15.888C124.727 16.112 124.14 16.224 123.426 16.224ZM121.122 11.248H125.49C125.447 10.6507 125.234 10.1867 124.85 9.856C124.466 9.51467 123.964 9.344 123.346 9.344C122.727 9.344 122.22 9.51467 121.826 9.856C121.442 10.1867 121.207 10.6507 121.122 11.248ZM129.154 16V8.112H130.77V9.04H131.026C131.154 8.70933 131.356 8.46933 131.634 8.32C131.922 8.16 132.274 8.08 132.69 8.08H133.634V9.568H132.626C132.092 9.568 131.655 9.71733 131.314 10.016C130.972 10.304 130.802 10.752 130.802 11.36V16H129.154ZM137.57 16.224C137.005 16.224 136.498 16.128 136.05 15.936C135.613 15.744 135.261 15.4613 134.994 15.088C134.738 14.7147 134.61 14.2613 134.61 13.728C134.61 13.184 134.738 12.736 134.994 12.384C135.261 12.0213 135.618 11.7493 136.066 11.568C136.525 11.3867 137.042 11.296 137.618 11.296H140.018V10.784C140.018 10.3253 139.88 9.95733 139.602 9.68C139.325 9.40267 138.898 9.264 138.322 9.264C137.757 9.264 137.325 9.39733 137.026 9.664C136.728 9.93067 136.53 10.2773 136.434 10.704L134.898 10.208C135.026 9.78133 135.229 9.39733 135.506 9.056C135.794 8.704 136.173 8.42133 136.642 8.208C137.112 7.99467 137.677 7.888 138.338 7.888C139.362 7.888 140.168 8.14933 140.754 8.672C141.341 9.19467 141.634 9.936 141.634 10.896V14.144C141.634 14.464 141.784 14.624 142.082 14.624H142.754V16H141.522C141.149 16 140.845 15.904 140.61 15.712C140.376 15.52 140.258 15.2587 140.258 14.928V14.88H140.018C139.933 15.04 139.805 15.2267 139.634 15.44C139.464 15.6533 139.213 15.84 138.882 16C138.552 16.1493 138.114 16.224 137.57 16.224ZM137.81 14.864C138.472 14.864 139.005 14.6773 139.41 14.304C139.816 13.92 140.018 13.3973 140.018 12.736V12.576H137.714C137.277 12.576 136.925 12.672 136.658 12.864C136.392 13.0453 136.258 13.3173 136.258 13.68C136.258 14.0427 136.397 14.3307 136.674 14.544C136.952 14.7573 137.33 14.864 137.81 14.864ZM143.785 12.096V11.856C143.785 11.024 143.95 10.3147 144.281 9.728C144.622 9.14133 145.07 8.688 145.625 8.368C146.18 8.048 146.788 7.888 147.449 7.888C148.217 7.888 148.804 8.032 149.209 8.32C149.625 8.608 149.929 8.91733 150.121 9.248H150.377V8.112H151.977V17.616C151.977 18.096 151.833 18.48 151.545 18.768C151.268 19.056 150.884 19.2 150.393 19.2H145.081V17.76H149.881C150.19 17.76 150.345 17.6 150.345 17.28V14.768H150.089C149.972 14.96 149.806 15.1573 149.593 15.36C149.38 15.5627 149.097 15.728 148.745 15.856C148.404 15.984 147.972 16.048 147.449 16.048C146.788 16.048 146.174 15.8933 145.609 15.584C145.054 15.264 144.612 14.8107 144.281 14.224C143.95 13.6267 143.785 12.9173 143.785 12.096ZM147.897 14.608C148.612 14.608 149.198 14.384 149.657 13.936C150.126 13.4773 150.361 12.848 150.361 12.048V11.904C150.361 11.0827 150.132 10.4533 149.673 10.016C149.214 9.568 148.622 9.344 147.897 9.344C147.193 9.344 146.606 9.568 146.137 10.016C145.678 10.4533 145.449 11.0827 145.449 11.904V12.048C145.449 12.848 145.678 13.4773 146.137 13.936C146.606 14.384 147.193 14.608 147.897 14.608ZM158.02 16.224C157.22 16.224 156.521 16.0587 155.924 15.728C155.326 15.3867 154.857 14.912 154.516 14.304C154.185 13.6853 154.02 12.9707 154.02 12.16V11.968C154.02 11.1467 154.185 10.432 154.516 9.824C154.846 9.20533 155.305 8.73067 155.892 8.4C156.489 8.05867 157.177 7.888 157.956 7.888C158.713 7.888 159.374 8.05867 159.94 8.4C160.516 8.73067 160.964 9.19467 161.284 9.792C161.604 10.3893 161.764 11.088 161.764 11.888V12.512H155.7C155.721 13.2053 155.95 13.76 156.388 14.176C156.836 14.5813 157.39 14.784 158.052 14.784C158.67 14.784 159.134 14.6453 159.444 14.368C159.764 14.0907 160.009 13.7707 160.18 13.408L161.54 14.112C161.39 14.4107 161.172 14.7253 160.884 15.056C160.606 15.3867 160.238 15.664 159.78 15.888C159.321 16.112 158.734 16.224 158.02 16.224ZM155.716 11.248H160.084C160.041 10.6507 159.828 10.1867 159.444 9.856C159.06 9.51467 158.558 9.344 157.94 9.344C157.321 9.344 156.814 9.51467 156.42 9.856C156.036 10.1867 155.801 10.6507 155.716 11.248ZM166.979 16.224C165.977 16.224 165.145 16 164.483 15.552C163.822 15.104 163.417 14.4267 163.267 13.52L164.803 13.152C164.889 13.5893 165.033 13.936 165.235 14.192C165.438 14.448 165.689 14.6293 165.987 14.736C166.297 14.8427 166.627 14.896 166.979 14.896C167.502 14.896 167.902 14.7947 168.179 14.592C168.467 14.3893 168.611 14.128 168.611 13.808C168.611 13.488 168.478 13.2533 168.211 13.104C167.945 12.9547 167.55 12.832 167.027 12.736L166.483 12.64C165.95 12.544 165.465 12.4053 165.027 12.224C164.59 12.0427 164.243 11.792 163.987 11.472C163.731 11.152 163.603 10.7413 163.603 10.24C163.603 9.49333 163.881 8.91733 164.435 8.512C164.99 8.096 165.726 7.888 166.643 7.888C167.529 7.888 168.254 8.09067 168.819 8.496C169.395 8.89067 169.769 9.42933 169.939 10.112L168.403 10.544C168.307 10.064 168.105 9.728 167.795 9.536C167.486 9.33333 167.102 9.232 166.643 9.232C166.195 9.232 165.843 9.31733 165.587 9.488C165.331 9.648 165.203 9.87733 165.203 10.176C165.203 10.496 165.326 10.7307 165.571 10.88C165.827 11.0293 166.169 11.1413 166.595 11.216L167.155 11.312C167.721 11.408 168.238 11.5413 168.707 11.712C169.177 11.8827 169.545 12.128 169.811 12.448C170.089 12.768 170.227 13.1947 170.227 13.728C170.227 14.5173 169.934 15.1307 169.347 15.568C168.761 16.0053 167.971 16.224 166.979 16.224Z" fill="#FDFEFF"/>
<path d="M4.77035 117.196C4.07035 117.196 3.44502 117.075 2.89435 116.832C2.34369 116.58 1.90969 116.202 1.59235 115.698C1.27502 115.185 1.11635 114.536 1.11635 113.752V113.486H2.01235V113.752C2.01235 114.657 2.26902 115.329 2.78235 115.768C3.30502 116.197 3.96769 116.412 4.77035 116.412C5.58235 116.412 6.20769 116.225 6.64635 115.852C7.08502 115.469 7.30435 114.984 7.30435 114.396C7.30435 114.004 7.20635 113.691 7.01035 113.458C6.82369 113.215 6.55769 113.024 6.21235 112.884C5.87635 112.735 5.48435 112.604 5.03635 112.492L4.14035 112.268C3.60835 112.128 3.13235 111.955 2.71235 111.75C2.29235 111.535 1.96102 111.26 1.71835 110.924C1.47568 110.579 1.35435 110.14 1.35435 109.608C1.35435 109.076 1.48968 108.614 1.76035 108.222C2.04035 107.83 2.42302 107.531 2.90835 107.326C3.39369 107.111 3.95835 107.004 4.60235 107.004C5.24635 107.004 5.82502 107.116 6.33835 107.34C6.86102 107.564 7.27169 107.895 7.57035 108.334C7.87835 108.763 8.03235 109.305 8.03235 109.958V110.616H7.13635V109.958C7.13635 109.445 7.02435 109.029 6.80035 108.712C6.57635 108.395 6.27302 108.161 5.89035 108.012C5.50768 107.863 5.07835 107.788 4.60235 107.788C3.92102 107.788 3.35635 107.947 2.90835 108.264C2.46968 108.572 2.25035 109.02 2.25035 109.608C2.25035 110 2.33902 110.313 2.51635 110.546C2.70302 110.779 2.95969 110.966 3.28635 111.106C3.62235 111.246 4.01435 111.372 4.46235 111.484L5.35835 111.708C5.87169 111.829 6.34302 111.993 6.77235 112.198C7.20169 112.394 7.54702 112.669 7.80835 113.024C8.06968 113.369 8.20035 113.827 8.20035 114.396C8.20035 114.965 8.05569 115.46 7.76635 115.88C7.48635 116.3 7.08969 116.627 6.57635 116.86C6.06302 117.084 5.46102 117.196 4.77035 117.196ZM12.6833 117C12.3193 117 12.044 116.907 11.8573 116.72C11.68 116.533 11.5913 116.272 11.5913 115.936V110.952H9.4073V110.196H11.5913V107.648H12.4313V110.196H14.8113V110.952H12.4313V115.824C12.4313 116.104 12.5713 116.244 12.8513 116.244H14.4473V117H12.6833ZM16.6861 117V110.196H17.4981V111.05H17.6661C17.7968 110.742 17.9881 110.518 18.2401 110.378C18.5014 110.238 18.8608 110.168 19.3181 110.168H20.1161V110.952H19.2201C18.7068 110.952 18.2961 111.097 17.9881 111.386C17.6801 111.675 17.5261 112.128 17.5261 112.744V117H16.6861ZM24.716 117.196C24.0253 117.196 23.4186 117.051 22.896 116.762C22.3826 116.463 21.9813 116.053 21.692 115.53C21.412 114.998 21.272 114.382 21.272 113.682V113.514C21.272 112.814 21.412 112.203 21.692 111.68C21.9813 111.148 22.3826 110.737 22.896 110.448C23.4186 110.149 24.0253 110 24.716 110C25.4066 110 26.0086 110.149 26.522 110.448C27.0446 110.737 27.446 111.148 27.726 111.68C28.0153 112.203 28.16 112.814 28.16 113.514V113.682C28.16 114.382 28.0153 114.998 27.726 115.53C27.446 116.053 27.0446 116.463 26.522 116.762C26.0086 117.051 25.4066 117.196 24.716 117.196ZM24.716 116.44C25.5186 116.44 26.1533 116.188 26.62 115.684C27.0866 115.171 27.32 114.494 27.32 113.654V113.542C27.32 112.702 27.0866 112.03 26.62 111.526C26.1533 111.013 25.5186 110.756 24.716 110.756C23.9226 110.756 23.288 111.013 22.812 111.526C22.3453 112.03 22.112 112.702 22.112 113.542V113.654C22.112 114.494 22.3453 115.171 22.812 115.684C23.288 116.188 23.9226 116.44 24.716 116.44ZM30.2896 117V110.196H31.1016V111.456H31.2696C31.4376 111.092 31.713 110.77 32.0956 110.49C32.4783 110.201 33.0336 110.056 33.7616 110.056C34.2563 110.056 34.709 110.159 35.1196 110.364C35.5303 110.569 35.857 110.882 36.0996 111.302C36.3516 111.713 36.4776 112.231 36.4776 112.856V117H35.6376V112.912C35.6376 112.165 35.451 111.629 35.0776 111.302C34.7043 110.975 34.205 110.812 33.5796 110.812C32.8796 110.812 32.2963 111.045 31.8296 111.512C31.363 111.969 31.1296 112.665 31.1296 113.598V117H30.2896ZM38.5259 113.626V113.458C38.5259 112.739 38.6705 112.123 38.9599 111.61C39.2585 111.097 39.6552 110.7 40.1499 110.42C40.6445 110.14 41.1952 110 41.8019 110C42.5485 110 43.1272 110.149 43.5379 110.448C43.9579 110.737 44.2659 111.069 44.4619 111.442H44.6299V110.196H45.4139V118.736C45.4139 119.072 45.3252 119.333 45.1479 119.52C44.9705 119.707 44.6999 119.8 44.3359 119.8H39.6879V119.044H44.1679C44.4572 119.044 44.6019 118.904 44.6019 118.624V115.698H44.4339C44.3125 115.922 44.1399 116.141 43.9159 116.356C43.7012 116.571 43.4212 116.748 43.0759 116.888C42.7305 117.019 42.3059 117.084 41.8019 117.084C41.1952 117.084 40.6399 116.944 40.1359 116.664C39.6412 116.384 39.2492 115.987 38.9599 115.474C38.6705 114.951 38.5259 114.335 38.5259 113.626ZM41.9979 116.328C42.7725 116.328 43.3979 116.085 43.8739 115.6C44.3592 115.115 44.6019 114.447 44.6019 113.598V113.486C44.6019 112.627 44.3592 111.96 43.8739 111.484C43.3979 110.999 42.7725 110.756 41.9979 110.756C41.2325 110.756 40.6072 110.999 40.1219 111.484C39.6365 111.96 39.3939 112.627 39.3939 113.486V113.598C39.3939 114.447 39.6365 115.115 40.1219 115.6C40.6072 116.085 41.2325 116.328 41.9979 116.328ZM16.1043 135.196C15.4043 135.196 14.779 135.075 14.2283 134.832C13.6777 134.58 13.2437 134.202 12.9263 133.698C12.609 133.185 12.4503 132.536 12.4503 131.752V131.486H13.3463V131.752C13.3463 132.657 13.603 133.329 14.1163 133.768C14.639 134.197 15.3017 134.412 16.1043 134.412C16.9163 134.412 17.5417 134.225 17.9803 133.852C18.419 133.469 18.6383 132.984 18.6383 132.396C18.6383 132.004 18.5403 131.691 18.3443 131.458C18.1577 131.215 17.8917 131.024 17.5463 130.884C17.2103 130.735 16.8183 130.604 16.3703 130.492L15.4743 130.268C14.9423 130.128 14.4663 129.955 14.0463 129.75C13.6263 129.535 13.295 129.26 13.0523 128.924C12.8097 128.579 12.6883 128.14 12.6883 127.608C12.6883 127.076 12.8237 126.614 13.0943 126.222C13.3743 125.83 13.757 125.531 14.2423 125.326C14.7277 125.111 15.2923 125.004 15.9363 125.004C16.5803 125.004 17.159 125.116 17.6723 125.34C18.195 125.564 18.6057 125.895 18.9043 126.334C19.2123 126.763 19.3663 127.305 19.3663 127.958V128.616H18.4703V127.958C18.4703 127.445 18.3583 127.029 18.1343 126.712C17.9103 126.395 17.607 126.161 17.2243 126.012C16.8417 125.863 16.4123 125.788 15.9363 125.788C15.255 125.788 14.6903 125.947 14.2423 126.264C13.8037 126.572 13.5843 127.02 13.5843 127.608C13.5843 128 13.673 128.313 13.8503 128.546C14.037 128.779 14.2937 128.966 14.6203 129.106C14.9563 129.246 15.3483 129.372 15.7963 129.484L16.6923 129.708C17.2057 129.829 17.677 129.993 18.1063 130.198C18.5357 130.394 18.881 130.669 19.1423 131.024C19.4037 131.369 19.5343 131.827 19.5343 132.396C19.5343 132.965 19.3897 133.46 19.1003 133.88C18.8203 134.3 18.4237 134.627 17.9103 134.86C17.397 135.084 16.795 135.196 16.1043 135.196ZM24.6893 135.196C23.9893 135.196 23.378 135.051 22.8553 134.762C22.342 134.463 21.9406 134.048 21.6513 133.516C21.362 132.984 21.2173 132.373 21.2173 131.682V131.514C21.2173 130.814 21.362 130.203 21.6513 129.68C21.9406 129.148 22.3373 128.737 22.8413 128.448C23.3546 128.149 23.938 128 24.5913 128C25.226 128 25.786 128.135 26.2713 128.406C26.766 128.667 27.1533 129.05 27.4333 129.554C27.7133 130.049 27.8533 130.641 27.8533 131.332V131.78H22.0573C22.0853 132.629 22.342 133.287 22.8273 133.754C23.322 134.211 23.9426 134.44 24.6893 134.44C25.324 134.44 25.814 134.295 26.1593 134.006C26.514 133.717 26.7846 133.362 26.9713 132.942L27.7273 133.278C27.5873 133.586 27.3913 133.889 27.1393 134.188C26.8966 134.477 26.5793 134.72 26.1873 134.916C25.7953 135.103 25.296 135.196 24.6893 135.196ZM22.0713 131.052H26.9993C26.962 130.315 26.724 129.75 26.2853 129.358C25.8466 128.957 25.282 128.756 24.5913 128.756C23.91 128.756 23.3453 128.957 22.8973 129.358C22.4493 129.75 22.174 130.315 22.0713 131.052ZM29.9205 135V125.2H30.7605V135H29.9205ZM33.2291 135V125.2H34.0691V135H33.2291Z" fill="#757474"/>
<path d="M199.77 117.196C199.07 117.196 198.445 117.075 197.894 116.832C197.344 116.58 196.91 116.202 196.592 115.698C196.275 115.185 196.116 114.536 196.116 113.752V113.486H197.012V113.752C197.012 114.657 197.269 115.329 197.782 115.768C198.305 116.197 198.968 116.412 199.77 116.412C200.582 116.412 201.208 116.225 201.646 115.852C202.085 115.469 202.304 114.984 202.304 114.396C202.304 114.004 202.206 113.691 202.01 113.458C201.824 113.215 201.558 113.024 201.212 112.884C200.876 112.735 200.484 112.604 200.036 112.492L199.14 112.268C198.608 112.128 198.132 111.955 197.712 111.75C197.292 111.535 196.961 111.26 196.718 110.924C196.476 110.579 196.354 110.14 196.354 109.608C196.354 109.076 196.49 108.614 196.76 108.222C197.04 107.83 197.423 107.531 197.908 107.326C198.394 107.111 198.958 107.004 199.602 107.004C200.246 107.004 200.825 107.116 201.338 107.34C201.861 107.564 202.272 107.895 202.57 108.334C202.878 108.763 203.032 109.305 203.032 109.958V110.616H202.136V109.958C202.136 109.445 202.024 109.029 201.8 108.712C201.576 108.395 201.273 108.161 200.89 108.012C200.508 107.863 200.078 107.788 199.602 107.788C198.921 107.788 198.356 107.947 197.908 108.264C197.47 108.572 197.25 109.02 197.25 109.608C197.25 110 197.339 110.313 197.516 110.546C197.703 110.779 197.96 110.966 198.286 111.106C198.622 111.246 199.014 111.372 199.462 111.484L200.358 111.708C200.872 111.829 201.343 111.993 201.772 112.198C202.202 112.394 202.547 112.669 202.808 113.024C203.07 113.369 203.2 113.827 203.2 114.396C203.2 114.965 203.056 115.46 202.766 115.88C202.486 116.3 202.09 116.627 201.576 116.86C201.063 117.084 200.461 117.196 199.77 117.196ZM207.683 117C207.319 117 207.044 116.907 206.857 116.72C206.68 116.533 206.591 116.272 206.591 115.936V110.952H204.407V110.196H206.591V107.648H207.431V110.196H209.811V110.952H207.431V115.824C207.431 116.104 207.571 116.244 207.851 116.244H209.447V117H207.683ZM211.686 117V110.196H212.498V111.05H212.666C212.797 110.742 212.988 110.518 213.24 110.378C213.501 110.238 213.861 110.168 214.318 110.168H215.116V110.952H214.22C213.707 110.952 213.296 111.097 212.988 111.386C212.68 111.675 212.526 112.128 212.526 112.744V117H211.686ZM219.716 117.196C219.025 117.196 218.419 117.051 217.896 116.762C217.383 116.463 216.981 116.053 216.692 115.53C216.412 114.998 216.272 114.382 216.272 113.682V113.514C216.272 112.814 216.412 112.203 216.692 111.68C216.981 111.148 217.383 110.737 217.896 110.448C218.419 110.149 219.025 110 219.716 110C220.407 110 221.009 110.149 221.522 110.448C222.045 110.737 222.446 111.148 222.726 111.68C223.015 112.203 223.16 112.814 223.16 113.514V113.682C223.16 114.382 223.015 114.998 222.726 115.53C222.446 116.053 222.045 116.463 221.522 116.762C221.009 117.051 220.407 117.196 219.716 117.196ZM219.716 116.44C220.519 116.44 221.153 116.188 221.62 115.684C222.087 115.171 222.32 114.494 222.32 113.654V113.542C222.32 112.702 222.087 112.03 221.62 111.526C221.153 111.013 220.519 110.756 219.716 110.756C218.923 110.756 218.288 111.013 217.812 111.526C217.345 112.03 217.112 112.702 217.112 113.542V113.654C217.112 114.494 217.345 115.171 217.812 115.684C218.288 116.188 218.923 116.44 219.716 116.44ZM225.29 117V110.196H226.102V111.456H226.27C226.438 111.092 226.713 110.77 227.096 110.49C227.478 110.201 228.034 110.056 228.762 110.056C229.256 110.056 229.709 110.159 230.12 110.364C230.53 110.569 230.857 110.882 231.1 111.302C231.352 111.713 231.478 112.231 231.478 112.856V117H230.638V112.912C230.638 112.165 230.451 111.629 230.078 111.302C229.704 110.975 229.205 110.812 228.58 110.812C227.88 110.812 227.296 111.045 226.83 111.512C226.363 111.969 226.13 112.665 226.13 113.598V117H225.29ZM233.526 113.626V113.458C233.526 112.739 233.671 112.123 233.96 111.61C234.259 111.097 234.655 110.7 235.15 110.42C235.645 110.14 236.195 110 236.802 110C237.549 110 238.127 110.149 238.538 110.448C238.958 110.737 239.266 111.069 239.462 111.442H239.63V110.196H240.414V118.736C240.414 119.072 240.325 119.333 240.148 119.52C239.971 119.707 239.7 119.8 239.336 119.8H234.688V119.044H239.168C239.457 119.044 239.602 118.904 239.602 118.624V115.698H239.434C239.313 115.922 239.14 116.141 238.916 116.356C238.701 116.571 238.421 116.748 238.076 116.888C237.731 117.019 237.306 117.084 236.802 117.084C236.195 117.084 235.64 116.944 235.136 116.664C234.641 116.384 234.249 115.987 233.96 115.474C233.671 114.951 233.526 114.335 233.526 113.626ZM236.998 116.328C237.773 116.328 238.398 116.085 238.874 115.6C239.359 115.115 239.602 114.447 239.602 113.598V113.486C239.602 112.627 239.359 111.96 238.874 111.484C238.398 110.999 237.773 110.756 236.998 110.756C236.233 110.756 235.607 110.999 235.122 111.484C234.637 111.96 234.394 112.627 234.394 113.486V113.598C234.394 114.447 234.637 115.115 235.122 115.6C235.607 116.085 236.233 116.328 236.998 116.328ZM205.992 135V134.188H207.392V126.012H205.992V125.2H210.85C211.41 125.2 211.91 125.303 212.348 125.508C212.787 125.713 213.128 126.003 213.37 126.376C213.622 126.74 213.748 127.165 213.748 127.65V127.762C213.748 128.219 213.66 128.597 213.482 128.896C213.305 129.195 213.09 129.428 212.838 129.596C212.586 129.764 212.339 129.885 212.096 129.96V130.128C212.339 130.184 212.586 130.301 212.838 130.478C213.1 130.646 213.314 130.879 213.482 131.178C213.66 131.477 213.748 131.855 213.748 132.312V132.452C213.748 132.984 213.618 133.441 213.356 133.824C213.104 134.207 212.754 134.501 212.306 134.706C211.868 134.902 211.368 135 210.808 135H205.992ZM208.288 134.188H210.724C211.424 134.188 211.952 134.025 212.306 133.698C212.67 133.371 212.852 132.933 212.852 132.382V132.27C212.852 131.719 212.67 131.281 212.306 130.954C211.952 130.627 211.424 130.464 210.724 130.464H208.288V134.188ZM208.288 129.652H210.78C211.424 129.652 211.928 129.493 212.292 129.176C212.666 128.849 212.852 128.425 212.852 127.902V127.762C212.852 127.239 212.666 126.819 212.292 126.502C211.928 126.175 211.424 126.012 210.78 126.012H208.288V129.652ZM218.413 135.14C217.927 135.14 217.475 135.037 217.055 134.832C216.644 134.627 216.313 134.319 216.061 133.908C215.818 133.488 215.697 132.965 215.697 132.34V128.196H216.537V132.284C216.537 133.021 216.723 133.558 217.097 133.894C217.47 134.221 217.969 134.384 218.595 134.384C219.295 134.384 219.878 134.155 220.345 133.698C220.811 133.231 221.045 132.531 221.045 131.598V128.196H221.885V135H221.073V133.74H220.905C220.737 134.104 220.461 134.431 220.079 134.72C219.696 135 219.141 135.14 218.413 135.14ZM225.207 137.8V137.044H229.183C229.463 137.044 229.603 136.904 229.603 136.624V133.824H229.435C229.323 134.048 229.164 134.263 228.959 134.468C228.763 134.664 228.502 134.827 228.175 134.958C227.858 135.079 227.456 135.14 226.971 135.14C226.486 135.14 226.033 135.037 225.613 134.832C225.202 134.627 224.871 134.319 224.619 133.908C224.376 133.497 224.255 132.979 224.255 132.354V128.196H225.095V132.298C225.095 133.035 225.282 133.567 225.655 133.894C226.028 134.221 226.528 134.384 227.153 134.384C227.853 134.384 228.436 134.155 228.903 133.698C229.37 133.241 229.603 132.545 229.603 131.612V128.196H230.443V136.736C230.443 137.072 230.35 137.333 230.163 137.52C229.986 137.707 229.715 137.8 229.351 137.8H225.207Z" fill="#757474"/>
<path d="M51.6043 76.196C50.9043 76.196 50.279 76.0747 49.7283 75.832C49.1777 75.58 48.7437 75.202 48.4263 74.698C48.109 74.1847 47.9503 73.536 47.9503 72.752V72.486H48.8463V72.752C48.8463 73.6573 49.103 74.3293 49.6163 74.768C50.139 75.1973 50.8017 75.412 51.6043 75.412C52.4163 75.412 53.0417 75.2253 53.4803 74.852C53.919 74.4693 54.1383 73.984 54.1383 73.396C54.1383 73.004 54.0403 72.6913 53.8443 72.458C53.6577 72.2153 53.3917 72.024 53.0463 71.884C52.7103 71.7347 52.3183 71.604 51.8703 71.492L50.9743 71.268C50.4423 71.128 49.9663 70.9553 49.5463 70.75C49.1263 70.5353 48.795 70.26 48.5523 69.924C48.3097 69.5787 48.1883 69.14 48.1883 68.608C48.1883 68.076 48.3237 67.614 48.5943 67.222C48.8743 66.83 49.257 66.5313 49.7423 66.326C50.2277 66.1113 50.7923 66.004 51.4363 66.004C52.0803 66.004 52.659 66.116 53.1723 66.34C53.695 66.564 54.1057 66.8953 54.4043 67.334C54.7123 67.7633 54.8663 68.3047 54.8663 68.958V69.616H53.9703V68.958C53.9703 68.4447 53.8583 68.0293 53.6343 67.712C53.4103 67.3947 53.107 67.1613 52.7243 67.012C52.3417 66.8627 51.9123 66.788 51.4363 66.788C50.755 66.788 50.1903 66.9467 49.7423 67.264C49.3037 67.572 49.0843 68.02 49.0843 68.608C49.0843 69 49.173 69.3127 49.3503 69.546C49.537 69.7793 49.7937 69.966 50.1203 70.106C50.4563 70.246 50.8483 70.372 51.2963 70.484L52.1923 70.708C52.7057 70.8293 53.177 70.9927 53.6063 71.198C54.0357 71.394 54.381 71.6693 54.6423 72.024C54.9037 72.3693 55.0343 72.8267 55.0343 73.396C55.0343 73.9653 54.8897 74.46 54.6003 74.88C54.3203 75.3 53.9237 75.6267 53.4103 75.86C52.897 76.084 52.295 76.196 51.6043 76.196ZM60.1893 76.196C59.4893 76.196 58.878 76.0513 58.3553 75.762C57.842 75.4633 57.4406 75.048 57.1513 74.516C56.862 73.984 56.7173 73.3727 56.7173 72.682V72.514C56.7173 71.814 56.862 71.2027 57.1513 70.68C57.4406 70.148 57.8373 69.7373 58.3413 69.448C58.8546 69.1493 59.438 69 60.0913 69C60.726 69 61.286 69.1353 61.7713 69.406C62.266 69.6673 62.6533 70.05 62.9333 70.554C63.2133 71.0487 63.3533 71.6413 63.3533 72.332V72.78H57.5573C57.5853 73.6293 57.842 74.2873 58.3273 74.754C58.822 75.2113 59.4426 75.44 60.1893 75.44C60.824 75.44 61.314 75.2953 61.6593 75.006C62.014 74.7167 62.2846 74.362 62.4713 73.942L63.2273 74.278C63.0873 74.586 62.8913 74.8893 62.6393 75.188C62.3966 75.4773 62.0793 75.72 61.6873 75.916C61.2953 76.1027 60.796 76.196 60.1893 76.196ZM57.5713 72.052H62.4993C62.462 71.3147 62.224 70.75 61.7853 70.358C61.3466 69.9567 60.782 69.756 60.0913 69.756C59.41 69.756 58.8453 69.9567 58.3973 70.358C57.9493 70.75 57.674 71.3147 57.5713 72.052ZM65.4205 76V66.2H66.2605V76H65.4205ZM68.7291 76V66.2H69.5691V76H68.7291Z" fill="#FDFEFF"/>
<path d="M47.6043 190.196C46.9043 190.196 46.279 190.075 45.7283 189.832C45.1777 189.58 44.7437 189.202 44.4263 188.698C44.109 188.185 43.9503 187.536 43.9503 186.752V186.486H44.8463V186.752C44.8463 187.657 45.103 188.329 45.6163 188.768C46.139 189.197 46.8017 189.412 47.6043 189.412C48.4163 189.412 49.0417 189.225 49.4803 188.852C49.919 188.469 50.1383 187.984 50.1383 187.396C50.1383 187.004 50.0403 186.691 49.8443 186.458C49.6577 186.215 49.3917 186.024 49.0463 185.884C48.7103 185.735 48.3183 185.604 47.8703 185.492L46.9743 185.268C46.4423 185.128 45.9663 184.955 45.5463 184.75C45.1263 184.535 44.795 184.26 44.5523 183.924C44.3097 183.579 44.1883 183.14 44.1883 182.608C44.1883 182.076 44.3237 181.614 44.5943 181.222C44.8743 180.83 45.257 180.531 45.7423 180.326C46.2277 180.111 46.7923 180.004 47.4363 180.004C48.0803 180.004 48.659 180.116 49.1723 180.34C49.695 180.564 50.1057 180.895 50.4043 181.334C50.7123 181.763 50.8663 182.305 50.8663 182.958V183.616H49.9703V182.958C49.9703 182.445 49.8583 182.029 49.6343 181.712C49.4103 181.395 49.107 181.161 48.7243 181.012C48.3417 180.863 47.9123 180.788 47.4363 180.788C46.755 180.788 46.1903 180.947 45.7423 181.264C45.3037 181.572 45.0843 182.02 45.0843 182.608C45.0843 183 45.173 183.313 45.3503 183.546C45.537 183.779 45.7937 183.966 46.1203 184.106C46.4563 184.246 46.8483 184.372 47.2963 184.484L48.1923 184.708C48.7057 184.829 49.177 184.993 49.6063 185.198C50.0357 185.394 50.381 185.669 50.6423 186.024C50.9037 186.369 51.0343 186.827 51.0343 187.396C51.0343 187.965 50.8897 188.46 50.6003 188.88C50.3203 189.3 49.9237 189.627 49.4103 189.86C48.897 190.084 48.295 190.196 47.6043 190.196ZM56.1893 190.196C55.4893 190.196 54.878 190.051 54.3553 189.762C53.842 189.463 53.4406 189.048 53.1513 188.516C52.862 187.984 52.7173 187.373 52.7173 186.682V186.514C52.7173 185.814 52.862 185.203 53.1513 184.68C53.4406 184.148 53.8373 183.737 54.3413 183.448C54.8546 183.149 55.438 183 56.0913 183C56.726 183 57.286 183.135 57.7713 183.406C58.266 183.667 58.6533 184.05 58.9333 184.554C59.2133 185.049 59.3533 185.641 59.3533 186.332V186.78H53.5573C53.5853 187.629 53.842 188.287 54.3273 188.754C54.822 189.211 55.4426 189.44 56.1893 189.44C56.824 189.44 57.314 189.295 57.6593 189.006C58.014 188.717 58.2846 188.362 58.4713 187.942L59.2273 188.278C59.0873 188.586 58.8913 188.889 58.6393 189.188C58.3966 189.477 58.0793 189.72 57.6873 189.916C57.2953 190.103 56.796 190.196 56.1893 190.196ZM53.5713 186.052H58.4993C58.462 185.315 58.224 184.75 57.7853 184.358C57.3466 183.957 56.782 183.756 56.0913 183.756C55.41 183.756 54.8453 183.957 54.3973 184.358C53.9493 184.75 53.674 185.315 53.5713 186.052ZM61.4205 190V180.2H62.2605V190H61.4205ZM64.7291 190V180.2H65.5691V190H64.7291Z" fill="#757474"/>
<path d="M108.617 152.196C107.861 152.196 107.194 152.061 106.615 151.79C106.036 151.519 105.584 151.132 105.257 150.628C104.93 150.124 104.767 149.517 104.767 148.808V148.416H106.587V148.808C106.587 149.396 106.769 149.839 107.133 150.138C107.497 150.427 107.992 150.572 108.617 150.572C109.252 150.572 109.723 150.446 110.031 150.194C110.348 149.942 110.507 149.62 110.507 149.228C110.507 148.957 110.428 148.738 110.269 148.57C110.12 148.402 109.896 148.267 109.597 148.164C109.308 148.052 108.953 147.949 108.533 147.856L108.211 147.786C107.539 147.637 106.96 147.45 106.475 147.226C105.999 146.993 105.63 146.689 105.369 146.316C105.117 145.943 104.991 145.457 104.991 144.86C104.991 144.263 105.131 143.754 105.411 143.334C105.7 142.905 106.102 142.578 106.615 142.354C107.138 142.121 107.749 142.004 108.449 142.004C109.149 142.004 109.77 142.125 110.311 142.368C110.862 142.601 111.291 142.956 111.599 143.432C111.916 143.899 112.075 144.487 112.075 145.196V145.616H110.255V145.196C110.255 144.823 110.18 144.524 110.031 144.3C109.891 144.067 109.686 143.899 109.415 143.796C109.144 143.684 108.822 143.628 108.449 143.628C107.889 143.628 107.474 143.735 107.203 143.95C106.942 144.155 106.811 144.44 106.811 144.804C106.811 145.047 106.872 145.252 106.993 145.42C107.124 145.588 107.315 145.728 107.567 145.84C107.819 145.952 108.141 146.05 108.533 146.134L108.855 146.204C109.555 146.353 110.162 146.545 110.675 146.778C111.198 147.011 111.604 147.319 111.893 147.702C112.182 148.085 112.327 148.575 112.327 149.172C112.327 149.769 112.173 150.297 111.865 150.754C111.566 151.202 111.137 151.557 110.577 151.818C110.026 152.07 109.373 152.196 108.617 152.196ZM113.705 152V142.2H120.005V143.88H115.553V146.218H119.613V147.898H115.553V150.32H120.089V152H113.705ZM121.457 152V142.2H123.305V150.32H127.785V152H121.457ZM129.045 152V142.2H130.893V150.32H135.373V152H129.045Z" fill="#FDFEFF"/>
<path d="M170.992 76V75.188H172.392V67.012H170.992V66.2H175.85C176.41 66.2 176.91 66.3027 177.348 66.508C177.787 66.7133 178.128 67.0027 178.37 67.376C178.622 67.74 178.748 68.1647 178.748 68.65V68.762C178.748 69.2193 178.66 69.5973 178.482 69.896C178.305 70.1947 178.09 70.428 177.838 70.596C177.586 70.764 177.339 70.8853 177.096 70.96V71.128C177.339 71.184 177.586 71.3007 177.838 71.478C178.1 71.646 178.314 71.8793 178.482 72.178C178.66 72.4767 178.748 72.8547 178.748 73.312V73.452C178.748 73.984 178.618 74.4413 178.356 74.824C178.104 75.2067 177.754 75.5007 177.306 75.706C176.868 75.902 176.368 76 175.808 76H170.992ZM173.288 75.188H175.724C176.424 75.188 176.952 75.0247 177.306 74.698C177.67 74.3713 177.852 73.9327 177.852 73.382V73.27C177.852 72.7193 177.67 72.2807 177.306 71.954C176.952 71.6273 176.424 71.464 175.724 71.464H173.288V75.188ZM173.288 70.652H175.78C176.424 70.652 176.928 70.4933 177.292 70.176C177.666 69.8493 177.852 69.4247 177.852 68.902V68.762C177.852 68.2393 177.666 67.8193 177.292 67.502C176.928 67.1753 176.424 67.012 175.78 67.012H173.288V70.652ZM183.413 76.14C182.927 76.14 182.475 76.0373 182.055 75.832C181.644 75.6267 181.313 75.3187 181.061 74.908C180.818 74.488 180.697 73.9653 180.697 73.34V69.196H181.537V73.284C181.537 74.0213 181.723 74.558 182.097 74.894C182.47 75.2207 182.969 75.384 183.595 75.384C184.295 75.384 184.878 75.1553 185.345 74.698C185.811 74.2313 186.045 73.5313 186.045 72.598V69.196H186.885V76H186.073V74.74H185.905C185.737 75.104 185.461 75.4307 185.079 75.72C184.696 76 184.141 76.14 183.413 76.14ZM190.207 78.8V78.044H194.183C194.463 78.044 194.603 77.904 194.603 77.624V74.824H194.435C194.323 75.048 194.164 75.2627 193.959 75.468C193.763 75.664 193.502 75.8273 193.175 75.958C192.858 76.0793 192.456 76.14 191.971 76.14C191.486 76.14 191.033 76.0373 190.613 75.832C190.202 75.6267 189.871 75.3187 189.619 74.908C189.376 74.4973 189.255 73.9793 189.255 73.354V69.196H190.095V73.298C190.095 74.0353 190.282 74.5673 190.655 74.894C191.028 75.2207 191.528 75.384 192.153 75.384C192.853 75.384 193.436 75.1553 193.903 74.698C194.37 74.2407 194.603 73.5453 194.603 72.612V69.196H195.443V77.736C195.443 78.072 195.35 78.3333 195.163 78.52C194.986 78.7067 194.715 78.8 194.351 78.8H190.207Z" fill="#757474"/>
<path d="M170.992 190V189.188H172.392V181.012H170.992V180.2H175.85C176.41 180.2 176.91 180.303 177.348 180.508C177.787 180.713 178.128 181.003 178.37 181.376C178.622 181.74 178.748 182.165 178.748 182.65V182.762C178.748 183.219 178.66 183.597 178.482 183.896C178.305 184.195 178.09 184.428 177.838 184.596C177.586 184.764 177.339 184.885 177.096 184.96V185.128C177.339 185.184 177.586 185.301 177.838 185.478C178.1 185.646 178.314 185.879 178.482 186.178C178.66 186.477 178.748 186.855 178.748 187.312V187.452C178.748 187.984 178.618 188.441 178.356 188.824C178.104 189.207 177.754 189.501 177.306 189.706C176.868 189.902 176.368 190 175.808 190H170.992ZM173.288 189.188H175.724C176.424 189.188 176.952 189.025 177.306 188.698C177.67 188.371 177.852 187.933 177.852 187.382V187.27C177.852 186.719 177.67 186.281 177.306 185.954C176.952 185.627 176.424 185.464 175.724 185.464H173.288V189.188ZM173.288 184.652H175.78C176.424 184.652 176.928 184.493 177.292 184.176C177.666 183.849 177.852 183.425 177.852 182.902V182.762C177.852 182.239 177.666 181.819 177.292 181.502C176.928 181.175 176.424 181.012 175.78 181.012H173.288V184.652ZM183.413 190.14C182.927 190.14 182.475 190.037 182.055 189.832C181.644 189.627 181.313 189.319 181.061 188.908C180.818 188.488 180.697 187.965 180.697 187.34V183.196H181.537V187.284C181.537 188.021 181.723 188.558 182.097 188.894C182.47 189.221 182.969 189.384 183.595 189.384C184.295 189.384 184.878 189.155 185.345 188.698C185.811 188.231 186.045 187.531 186.045 186.598V183.196H186.885V190H186.073V188.74H185.905C185.737 189.104 185.461 189.431 185.079 189.72C184.696 190 184.141 190.14 183.413 190.14ZM190.207 192.8V192.044H194.183C194.463 192.044 194.603 191.904 194.603 191.624V188.824H194.435C194.323 189.048 194.164 189.263 193.959 189.468C193.763 189.664 193.502 189.827 193.175 189.958C192.858 190.079 192.456 190.14 191.971 190.14C191.486 190.14 191.033 190.037 190.613 189.832C190.202 189.627 189.871 189.319 189.619 188.908C189.376 188.497 189.255 187.979 189.255 187.354V183.196H190.095V187.298C190.095 188.035 190.282 188.567 190.655 188.894C191.028 189.221 191.528 189.384 192.153 189.384C192.853 189.384 193.436 189.155 193.903 188.698C194.37 188.241 194.603 187.545 194.603 186.612V183.196H195.443V191.736C195.443 192.072 195.35 192.333 195.163 192.52C194.986 192.707 194.715 192.8 194.351 192.8H190.207Z" fill="#757474"/>
<path d="M96.2519 59V49.2H98.0299L102.034 58.468H102.202V49.2H103.098V59H101.32L97.3159 49.718H97.1479V59H96.2519ZM108.672 59.196C107.972 59.196 107.36 59.0513 106.838 58.762C106.324 58.4633 105.923 58.048 105.634 57.516C105.344 56.984 105.2 56.3727 105.2 55.682V55.514C105.2 54.814 105.344 54.2027 105.634 53.68C105.923 53.148 106.32 52.7373 106.824 52.448C107.337 52.1493 107.92 52 108.574 52C109.208 52 109.768 52.1353 110.254 52.406C110.748 52.6673 111.136 53.05 111.416 53.554C111.696 54.0487 111.836 54.6413 111.836 55.332V55.78H106.04C106.068 56.6293 106.324 57.2873 106.81 57.754C107.304 58.2113 107.925 58.44 108.672 58.44C109.306 58.44 109.796 58.2953 110.142 58.006C110.496 57.7167 110.767 57.362 110.954 56.942L111.71 57.278C111.57 57.586 111.374 57.8893 111.122 58.188C110.879 58.4773 110.562 58.72 110.17 58.916C109.778 59.1027 109.278 59.196 108.672 59.196ZM106.054 55.052H110.982C110.944 54.3147 110.706 53.75 110.268 53.358C109.829 52.9567 109.264 52.756 108.574 52.756C107.892 52.756 107.328 52.9567 106.88 53.358C106.432 53.75 106.156 54.3147 106.054 55.052ZM116.521 59.14C116.036 59.14 115.583 59.0373 115.163 58.832C114.752 58.6267 114.421 58.3187 114.169 57.908C113.926 57.488 113.805 56.9653 113.805 56.34V52.196H114.645V56.284C114.645 57.0213 114.832 57.558 115.205 57.894C115.578 58.2207 116.078 58.384 116.703 58.384C117.403 58.384 117.986 58.1553 118.453 57.698C118.92 57.2313 119.153 56.5313 119.153 55.598V52.196H119.993V59H119.181V57.74H119.013C118.845 58.104 118.57 58.4307 118.187 58.72C117.804 59 117.249 59.14 116.521 59.14ZM124.925 59C124.561 59 124.286 58.9067 124.099 58.72C123.922 58.5333 123.833 58.272 123.833 57.936V52.952H121.649V52.196H123.833V49.648H124.673V52.196H127.053V52.952H124.673V57.824C124.673 58.104 124.813 58.244 125.093 58.244H126.689V59H124.925ZM128.928 59V52.196H129.74V53.05H129.908C130.039 52.742 130.23 52.518 130.482 52.378C130.744 52.238 131.103 52.168 131.56 52.168H132.358V52.952H131.462C130.949 52.952 130.538 53.0967 130.23 53.386C129.922 53.6753 129.768 54.128 129.768 54.744V59H128.928ZM135.922 59.196C135.446 59.196 135.012 59.1167 134.62 58.958C134.238 58.79 133.934 58.5473 133.71 58.23C133.486 57.9127 133.374 57.53 133.374 57.082C133.374 56.6247 133.486 56.2467 133.71 55.948C133.934 55.6493 134.238 55.4253 134.62 55.276C135.003 55.1267 135.428 55.052 135.894 55.052H138.386V54.506C138.386 53.9553 138.228 53.526 137.91 53.218C137.593 52.91 137.131 52.756 136.524 52.756C135.927 52.756 135.451 52.9053 135.096 53.204C134.751 53.4933 134.518 53.8853 134.396 54.38L133.584 54.142C133.696 53.7407 133.874 53.3813 134.116 53.064C134.359 52.7373 134.681 52.4807 135.082 52.294C135.484 52.098 135.964 52 136.524 52C137.383 52 138.046 52.224 138.512 52.672C138.988 53.12 139.226 53.7453 139.226 54.548V57.852C139.226 58.132 139.357 58.272 139.618 58.272H140.276V59H139.38C139.091 59 138.862 58.916 138.694 58.748C138.526 58.5707 138.442 58.3327 138.442 58.034V57.936H138.302C138.181 58.1413 138.022 58.342 137.826 58.538C137.64 58.734 137.392 58.8927 137.084 59.014C136.776 59.1353 136.389 59.196 135.922 59.196ZM135.978 58.44C136.697 58.44 137.276 58.2253 137.714 57.796C138.162 57.3573 138.386 56.7413 138.386 55.948V55.78H135.908C135.423 55.78 135.017 55.8873 134.69 56.102C134.373 56.3073 134.214 56.6293 134.214 57.068C134.214 57.5067 134.378 57.8473 134.704 58.09C135.04 58.3233 135.465 58.44 135.978 58.44ZM141.876 59V49.2H142.716V59H141.876Z" fill="#757474"/>
<path d="M96.2519 190V180.2H98.0299L102.034 189.468H102.202V180.2H103.098V190H101.32L97.3159 180.718H97.1479V190H96.2519ZM108.672 190.196C107.972 190.196 107.36 190.051 106.838 189.762C106.324 189.463 105.923 189.048 105.634 188.516C105.344 187.984 105.2 187.373 105.2 186.682V186.514C105.2 185.814 105.344 185.203 105.634 184.68C105.923 184.148 106.32 183.737 106.824 183.448C107.337 183.149 107.92 183 108.574 183C109.208 183 109.768 183.135 110.254 183.406C110.748 183.667 111.136 184.05 111.416 184.554C111.696 185.049 111.836 185.641 111.836 186.332V186.78H106.04C106.068 187.629 106.324 188.287 106.81 188.754C107.304 189.211 107.925 189.44 108.672 189.44C109.306 189.44 109.796 189.295 110.142 189.006C110.496 188.717 110.767 188.362 110.954 187.942L111.71 188.278C111.57 188.586 111.374 188.889 111.122 189.188C110.879 189.477 110.562 189.72 110.17 189.916C109.778 190.103 109.278 190.196 108.672 190.196ZM106.054 186.052H110.982C110.944 185.315 110.706 184.75 110.268 184.358C109.829 183.957 109.264 183.756 108.574 183.756C107.892 183.756 107.328 183.957 106.88 184.358C106.432 184.75 106.156 185.315 106.054 186.052ZM116.521 190.14C116.036 190.14 115.583 190.037 115.163 189.832C114.752 189.627 114.421 189.319 114.169 188.908C113.926 188.488 113.805 187.965 113.805 187.34V183.196H114.645V187.284C114.645 188.021 114.832 188.558 115.205 188.894C115.578 189.221 116.078 189.384 116.703 189.384C117.403 189.384 117.986 189.155 118.453 188.698C118.92 188.231 119.153 187.531 119.153 186.598V183.196H119.993V190H119.181V188.74H119.013C118.845 189.104 118.57 189.431 118.187 189.72C117.804 190 117.249 190.14 116.521 190.14ZM124.925 190C124.561 190 124.286 189.907 124.099 189.72C123.922 189.533 123.833 189.272 123.833 188.936V183.952H121.649V183.196H123.833V180.648H124.673V183.196H127.053V183.952H124.673V188.824C124.673 189.104 124.813 189.244 125.093 189.244H126.689V190H124.925ZM128.928 190V183.196H129.74V184.05H129.908C130.039 183.742 130.23 183.518 130.482 183.378C130.744 183.238 131.103 183.168 131.56 183.168H132.358V183.952H131.462C130.949 183.952 130.538 184.097 130.23 184.386C129.922 184.675 129.768 185.128 129.768 185.744V190H128.928ZM135.922 190.196C135.446 190.196 135.012 190.117 134.62 189.958C134.238 189.79 133.934 189.547 133.71 189.23C133.486 188.913 133.374 188.53 133.374 188.082C133.374 187.625 133.486 187.247 133.71 186.948C133.934 186.649 134.238 186.425 134.62 186.276C135.003 186.127 135.428 186.052 135.894 186.052H138.386V185.506C138.386 184.955 138.228 184.526 137.91 184.218C137.593 183.91 137.131 183.756 136.524 183.756C135.927 183.756 135.451 183.905 135.096 184.204C134.751 184.493 134.518 184.885 134.396 185.38L133.584 185.142C133.696 184.741 133.874 184.381 134.116 184.064C134.359 183.737 134.681 183.481 135.082 183.294C135.484 183.098 135.964 183 136.524 183C137.383 183 138.046 183.224 138.512 183.672C138.988 184.12 139.226 184.745 139.226 185.548V188.852C139.226 189.132 139.357 189.272 139.618 189.272H140.276V190H139.38C139.091 190 138.862 189.916 138.694 189.748C138.526 189.571 138.442 189.333 138.442 189.034V188.936H138.302C138.181 189.141 138.022 189.342 137.826 189.538C137.64 189.734 137.392 189.893 137.084 190.014C136.776 190.135 136.389 190.196 135.922 190.196ZM135.978 189.44C136.697 189.44 137.276 189.225 137.714 188.796C138.162 188.357 138.386 187.741 138.386 186.948V186.78H135.908C135.423 186.78 135.017 186.887 134.69 187.102C134.373 187.307 134.214 187.629 134.214 188.068C134.214 188.507 134.378 188.847 134.704 189.09C135.04 189.323 135.465 189.44 135.978 189.44ZM141.876 190V180.2H142.716V190H141.876Z" fill="#757474"/>
<path d="M192.754 142C193.994 142 195.004 140.994 194.966 139.754C194.542 125.589 190.112 111.832 182.191 100.081C181.498 99.052 180.092 98.8238 179.084 99.5476C178.077 100.271 177.85 101.673 178.542 102.703C185.916 113.689 190.051 126.529 190.472 139.754C190.512 140.994 191.514 142 192.754 142Z" fill="#008E76"/>
<path d="M178.75 99.0861C179.751 98.3544 179.973 96.9468 179.212 95.9674C170.508 84.7716 158.806 76.2719 145.468 71.4565C144.301 71.0353 143.031 71.6811 142.645 72.8599C142.259 74.0388 142.903 75.304 144.069 75.7274C156.514 80.2471 167.436 88.1808 175.582 98.6184C176.346 99.5962 177.748 99.8177 178.75 99.0861Z" fill="#7BCCC5"/>
<path d="M142.264 72.7364C142.644 71.5555 141.995 70.287 140.803 69.9429C127.198 66.0149 112.757 66.0191 99.1543 69.9552C97.9627 70.3 97.3144 71.5689 97.6947 72.7496C98.075 73.9303 99.3398 74.5754 100.532 74.2329C113.239 70.5823 126.719 70.5783 139.428 74.2214C140.62 74.5633 141.885 73.9174 142.264 72.7364Z" fill="#FDFEFF"/>
<path d="M97.2668 72.8889C96.8792 71.7106 95.6082 71.0664 94.442 71.4891C81.0927 76.3276 69.3899 84.8576 60.6973 96.085C59.9379 97.0658 60.1621 98.473 61.1652 99.2027C62.1683 99.9324 63.5703 99.7081 64.3316 98.7287C72.4675 88.2616 83.3913 80.2995 95.8464 75.7582C97.0118 75.3333 97.6544 74.0672 97.2668 72.8889Z" fill="#FFA09F"/>
<path d="M60.8813 99.5957C59.8734 98.8727 58.467 99.1021 57.7745 100.131C49.7879 112.001 45.3625 125.909 45.0213 140.211C44.9918 141.451 46.0069 142.451 47.2474 142.443C48.4878 142.436 49.4835 141.424 49.5154 140.184C49.8594 126.83 53.9904 113.847 61.4264 102.751C62.117 101.72 61.8893 100.319 60.8813 99.5957Z" fill="#FF3141"/>
<path d="M88.6251 94.8342C87.9812 93.9367 86.7317 93.7311 85.8342 94.3749C84.9367 95.0188 84.7311 96.2683 85.3749 97.1658L88.6251 94.8342ZM85.3749 97.1658L118.375 143.166L121.625 140.834L88.6251 94.8342L85.3749 97.1658Z" fill="url(#paint1_linear_64_222)"/>
<path d="M52.9884 176V174.894C52.9884 174.213 53.1051 173.653 53.3384 173.214C53.5717 172.775 53.9031 172.421 54.3324 172.15C54.7711 171.87 55.2984 171.637 55.9144 171.45L56.7684 171.184C57.1511 171.063 57.4777 170.913 57.7484 170.736C58.0284 170.559 58.2431 170.339 58.3924 170.078C58.5417 169.807 58.6164 169.495 58.6164 169.14V169.084C58.6164 168.533 58.4297 168.104 58.0564 167.796C57.6831 167.479 57.1931 167.32 56.5864 167.32C55.9611 167.32 55.4524 167.488 55.0604 167.824C54.6777 168.16 54.4864 168.655 54.4864 169.308V169.532H53.0304V169.322C53.0304 168.613 53.1844 168.015 53.4924 167.53C53.8004 167.035 54.2251 166.657 54.7664 166.396C55.3077 166.135 55.9144 166.004 56.5864 166.004C57.2584 166.004 57.8557 166.13 58.3784 166.382C58.9104 166.634 59.3257 166.989 59.6244 167.446C59.9324 167.903 60.0864 168.44 60.0864 169.056V169.182C60.0864 169.817 59.9604 170.344 59.7084 170.764C59.4564 171.184 59.1064 171.529 58.6584 171.8C58.2197 172.071 57.7111 172.299 57.1324 172.486L56.3064 172.738C55.8677 172.869 55.5131 173.013 55.2424 173.172C54.9811 173.321 54.7851 173.503 54.6544 173.718C54.5331 173.933 54.4724 174.208 54.4724 174.544V174.684H60.0024V176H52.9884Z" fill="#FF3141"/>
<path d="M115.872 176V167.236H115.648L114.038 170.54H112.484L114.654 166.2H117.342V176H115.872ZM119.03 176V174.894C119.03 174.213 119.147 173.653 119.38 173.214C119.614 172.775 119.945 172.421 120.374 172.15C120.813 171.87 121.34 171.637 121.956 171.45L122.81 171.184C123.193 171.063 123.52 170.913 123.79 170.736C124.07 170.559 124.285 170.339 124.434 170.078C124.584 169.807 124.658 169.495 124.658 169.14V169.084C124.658 168.533 124.472 168.104 124.098 167.796C123.725 167.479 123.235 167.32 122.628 167.32C122.003 167.32 121.494 167.488 121.102 167.824C120.72 168.16 120.528 168.655 120.528 169.308V169.532H119.072V169.322C119.072 168.613 119.226 168.015 119.534 167.53C119.842 167.035 120.267 166.657 120.808 166.396C121.35 166.135 121.956 166.004 122.628 166.004C123.3 166.004 123.898 166.13 124.42 166.382C124.952 166.634 125.368 166.989 125.666 167.446C125.974 167.903 126.128 168.44 126.128 169.056V169.182C126.128 169.817 126.002 170.344 125.75 170.764C125.498 171.184 125.148 171.529 124.7 171.8C124.262 172.071 123.753 172.299 123.174 172.486L122.348 172.738C121.91 172.869 121.555 173.013 121.284 173.172C121.023 173.321 120.827 173.503 120.696 173.718C120.575 173.933 120.514 174.208 120.514 174.544V174.684H126.044V176H119.03Z" fill="#FDFEFF"/>
<path d="M183.511 176.196C182.792 176.196 182.153 176.065 181.593 175.804C181.033 175.543 180.594 175.165 180.277 174.67C179.969 174.175 179.815 173.587 179.815 172.906V172.654H181.285V172.878C181.285 173.494 181.486 173.984 181.887 174.348C182.298 174.703 182.839 174.88 183.511 174.88C184.183 174.88 184.706 174.712 185.079 174.376C185.452 174.04 185.639 173.615 185.639 173.102V172.976C185.639 172.612 185.55 172.318 185.373 172.094C185.196 171.87 184.958 171.707 184.659 171.604C184.36 171.492 184.024 171.436 183.651 171.436H181.873V169.742L185.317 167.712V167.516H180.053V166.2H186.913V168.188L183.623 170.148V170.344H184.225C184.72 170.344 185.186 170.437 185.625 170.624C186.064 170.811 186.418 171.095 186.689 171.478C186.969 171.861 187.109 172.346 187.109 172.934V173.102C187.109 173.727 186.96 174.273 186.661 174.74C186.362 175.197 185.942 175.557 185.401 175.818C184.86 176.07 184.23 176.196 183.511 176.196Z" fill="#008E76"/>
<g clip-path="url(#clip0_64_222)">
<path d="M191.667 9.71111C191.667 13.2332 188.682 16.0889 185 16.0889C184.567 16.0895 184.136 16.0494 183.71 15.9696C183.404 15.9121 183.251 15.8834 183.144 15.8997C183.038 15.916 182.886 15.9965 182.583 16.1576C181.727 16.6131 180.728 16.774 179.767 16.5953C180.133 16.1462 180.382 15.6074 180.492 15.0298C180.559 14.6765 180.393 14.3333 180.146 14.082C179.022 12.941 178.333 11.4034 178.333 9.71111C178.333 6.18903 181.319 3.33331 185 3.33331C188.682 3.33331 191.667 6.18903 191.667 9.71111Z" stroke="#FDFEFF" stroke-width="1.5" stroke-linejoin="round"/>
<path d="M184 8.69235C184 8.12588 184.448 7.66669 185 7.66669C185.552 7.66669 186 8.12588 186 8.69235C186 8.89649 185.942 9.08675 185.842 9.24655C185.543 9.72295 185 10.1772 185 10.7436V11" stroke="#FDFEFF" stroke-width="1.5" stroke-linecap="round"/>
<path d="M185 12.3333H185.006" stroke="#FDFEFF" stroke-width="1.5" stroke-linecap="round" stroke-linejoin="round"/>
</g>
<defs>
<linearGradient id="paint0_linear_64_222" x1="119.5" y1="69" x2="119.5" y2="143.5" gradientUnits="userSpaceOnUse">
<stop stop-color="#FF8F8F"/>
<stop offset="1" stop-color="#FF8F8F" stop-opacity="0"/>
</linearGradient>
<linearGradient id="paint1_linear_64_222" x1="87" y1="96" x2="120" y2="142" gradientUnits="userSpaceOnUse">
<stop stop-color="#FDFEFF"/>
<stop offset="1" stop-color="white" stop-opacity="0"/>
</linearGradient>
<clipPath id="clip0_64_222">
<rect width="16" height="16" fill="white" transform="translate(177 2)"/>
</clipPath>
</defs>
</svg>
