<svg width="268" height="254" viewBox="0 0 268 254" fill="none" xmlns="http://www.w3.org/2000/svg">
<circle cx="132.961" cy="164.707" r="88.2946" fill="url(#paint0_linear_376_1693)" fill-opacity="0.5"/>
<path d="M94.3094 16.806C93.4667 16.806 92.72 16.6567 92.0694 16.358C91.4187 16.0594 90.9067 15.622 90.5334 15.046C90.1707 14.4594 89.9894 13.75 89.9894 12.918V12.518H91.7014V12.918C91.7014 13.7074 91.936 14.2994 92.4054 14.694C92.8854 15.0887 93.52 15.286 94.3094 15.286C95.1094 15.286 95.712 15.1207 96.1174 14.79C96.5227 14.4487 96.7254 14.0114 96.7254 13.478C96.7254 13.126 96.6294 12.838 96.4374 12.614C96.2454 12.39 95.9734 12.214 95.6214 12.086C95.2694 11.9474 94.848 11.8194 94.3574 11.702L93.7654 11.558C93.0507 11.3874 92.4267 11.1794 91.8934 10.934C91.3707 10.678 90.9654 10.342 90.6774 9.92603C90.3894 9.51003 90.2454 8.9767 90.2454 8.32603C90.2454 7.6647 90.4054 7.09936 90.7254 6.63003C91.056 6.1607 91.5094 5.79803 92.0854 5.54203C92.6614 5.28603 93.3387 5.15803 94.1174 5.15803C94.896 5.15803 95.5894 5.29136 96.1974 5.55803C96.816 5.8247 97.3014 6.21936 97.6534 6.74203C98.0054 7.2647 98.1814 7.9207 98.1814 8.71003V9.28603H96.4694V8.71003C96.4694 8.23003 96.368 7.8407 96.1654 7.54203C95.9734 7.24336 95.7014 7.0247 95.3494 6.88603C94.9974 6.74736 94.5867 6.67803 94.1174 6.67803C93.4347 6.67803 92.9014 6.82203 92.5174 7.11003C92.144 7.38736 91.9574 7.7767 91.9574 8.27803C91.9574 8.61936 92.0374 8.90203 92.1974 9.12603C92.368 9.33936 92.6134 9.51536 92.9334 9.65403C93.2534 9.7927 93.6534 9.91536 94.1334 10.022L94.7254 10.166C95.4507 10.326 96.0907 10.534 96.6454 10.79C97.2 11.0354 97.6374 11.3714 97.9574 11.798C98.2774 12.2247 98.4374 12.774 98.4374 13.446C98.4374 14.118 98.2667 14.7047 97.9254 15.206C97.5947 15.7074 97.12 16.102 96.5014 16.39C95.8827 16.6674 95.152 16.806 94.3094 16.806ZM103.323 16.726C102.726 16.726 102.193 16.5927 101.723 16.326C101.254 16.0594 100.886 15.6807 100.619 15.19C100.353 14.6994 100.219 14.1127 100.219 13.43V8.69403H101.867V13.318C101.867 14.0007 102.038 14.5074 102.379 14.838C102.721 15.158 103.195 15.318 103.803 15.318C104.475 15.318 105.014 15.094 105.419 14.646C105.835 14.1874 106.043 13.5314 106.043 12.678V8.69403H107.691V16.582H106.075V15.398H105.819C105.67 15.718 105.403 16.022 105.019 16.31C104.635 16.5874 104.07 16.726 103.323 16.726ZM110.127 16.582V8.69403H111.743V9.62203H111.999C112.149 9.3447 112.389 9.09936 112.719 8.88603C113.05 8.6727 113.498 8.56603 114.063 8.56603C114.65 8.56603 115.119 8.6887 115.471 8.93403C115.834 9.1687 116.106 9.4727 116.287 9.84603H116.543C116.725 9.48336 116.986 9.17936 117.327 8.93403C117.679 8.6887 118.175 8.56603 118.815 8.56603C119.327 8.56603 119.781 8.6727 120.175 8.88603C120.57 9.0887 120.885 9.39803 121.119 9.81403C121.354 10.2194 121.471 10.726 121.471 11.334V16.582H119.823V11.462C119.823 10.982 119.69 10.614 119.423 10.358C119.167 10.0914 118.799 9.95803 118.319 9.95803C117.807 9.95803 117.397 10.1234 117.087 10.454C116.778 10.7847 116.623 11.2594 116.623 11.878V16.582H114.975V11.462C114.975 10.982 114.842 10.614 114.575 10.358C114.319 10.0914 113.951 9.95803 113.471 9.95803C112.959 9.95803 112.549 10.1234 112.239 10.454C111.93 10.7847 111.775 11.2594 111.775 11.878V16.582H110.127ZM123.846 16.582V8.69403H125.462V9.62203H125.718C125.868 9.3447 126.108 9.09936 126.438 8.88603C126.769 8.6727 127.217 8.56603 127.782 8.56603C128.369 8.56603 128.838 8.6887 129.19 8.93403C129.553 9.1687 129.825 9.4727 130.006 9.84603H130.262C130.444 9.48336 130.705 9.17936 131.046 8.93403C131.398 8.6887 131.894 8.56603 132.534 8.56603C133.046 8.56603 133.5 8.6727 133.894 8.88603C134.289 9.0887 134.604 9.39803 134.838 9.81403C135.073 10.2194 135.19 10.726 135.19 11.334V16.582H133.542V11.462C133.542 10.982 133.409 10.614 133.142 10.358C132.886 10.0914 132.518 9.95803 132.038 9.95803C131.526 9.95803 131.116 10.1234 130.806 10.454C130.497 10.7847 130.342 11.2594 130.342 11.878V16.582H128.694V11.462C128.694 10.982 128.561 10.614 128.294 10.358C128.038 10.0914 127.67 9.95803 127.19 9.95803C126.678 9.95803 126.268 10.1234 125.958 10.454C125.649 10.7847 125.494 11.2594 125.494 11.878V16.582H123.846ZM140.013 16.806C139.448 16.806 138.941 16.71 138.493 16.518C138.056 16.326 137.704 16.0434 137.437 15.67C137.181 15.2967 137.053 14.8434 137.053 14.31C137.053 13.766 137.181 13.318 137.437 12.966C137.704 12.6034 138.061 12.3314 138.509 12.15C138.968 11.9687 139.485 11.878 140.061 11.878H142.461V11.366C142.461 10.9074 142.322 10.5394 142.045 10.262C141.768 9.9847 141.341 9.84603 140.765 9.84603C140.2 9.84603 139.768 9.97936 139.469 10.246C139.17 10.5127 138.973 10.8594 138.877 11.286L137.341 10.79C137.469 10.3634 137.672 9.97936 137.949 9.63803C138.237 9.28603 138.616 9.00336 139.085 8.79003C139.554 8.5767 140.12 8.47003 140.781 8.47003C141.805 8.47003 142.61 8.73136 143.197 9.25403C143.784 9.7767 144.077 10.518 144.077 11.478V14.726C144.077 15.046 144.226 15.206 144.525 15.206H145.197V16.582H143.965C143.592 16.582 143.288 16.486 143.053 16.294C142.818 16.102 142.701 15.8407 142.701 15.51V15.462H142.461C142.376 15.622 142.248 15.8087 142.077 16.022C141.906 16.2354 141.656 16.422 141.325 16.582C140.994 16.7314 140.557 16.806 140.013 16.806ZM140.253 15.446C140.914 15.446 141.448 15.2594 141.853 14.886C142.258 14.502 142.461 13.9794 142.461 13.318V13.158H140.157C139.72 13.158 139.368 13.254 139.101 13.446C138.834 13.6274 138.701 13.8994 138.701 14.262C138.701 14.6247 138.84 14.9127 139.117 15.126C139.394 15.3394 139.773 15.446 140.253 15.446ZM146.799 16.582V8.69403H148.415V9.62203H148.671C148.799 9.29136 149.002 9.05136 149.279 8.90203C149.567 8.74203 149.919 8.66203 150.335 8.66203H151.279V10.15H150.271C149.738 10.15 149.301 10.2994 148.959 10.598C148.618 10.886 148.447 11.334 148.447 11.942V16.582H146.799ZM153.899 19.782V18.342H158.299C158.598 18.342 158.747 18.182 158.747 17.862V15.43H158.491C158.395 15.6434 158.246 15.8514 158.043 16.054C157.851 16.246 157.59 16.406 157.259 16.534C156.928 16.662 156.512 16.726 156.011 16.726C155.414 16.726 154.88 16.5927 154.411 16.326C153.942 16.0594 153.574 15.6807 153.307 15.19C153.04 14.6994 152.907 14.118 152.907 13.446V8.69403H154.555V13.318C154.555 14.0007 154.726 14.5074 155.067 14.838C155.408 15.158 155.883 15.318 156.491 15.318C157.163 15.318 157.702 15.094 158.107 14.646C158.523 14.198 158.731 13.5474 158.731 12.694V8.69403H160.379V18.198C160.379 18.678 160.235 19.062 159.947 19.35C159.67 19.638 159.286 19.782 158.795 19.782H153.899Z" fill="#101313"/>
<path d="M5.6812 130.081C4.9812 130.081 4.35587 129.959 3.8052 129.717C3.25454 129.465 2.82054 129.087 2.5032 128.583C2.18587 128.069 2.0272 127.421 2.0272 126.637V126.371H2.9232V126.637C2.9232 127.542 3.17987 128.214 3.6932 128.653C4.21587 129.082 4.87854 129.297 5.6812 129.297C6.4932 129.297 7.11854 129.11 7.5572 128.737C7.99587 128.354 8.2152 127.869 8.2152 127.281C8.2152 126.889 8.1172 126.576 7.9212 126.343C7.73454 126.1 7.46854 125.909 7.1232 125.769C6.7872 125.619 6.3952 125.489 5.9472 125.377L5.0512 125.153C4.5192 125.013 4.0432 124.84 3.6232 124.635C3.2032 124.42 2.87187 124.145 2.6292 123.809C2.38654 123.463 2.2652 123.025 2.2652 122.493C2.2652 121.961 2.40054 121.499 2.6712 121.107C2.9512 120.715 3.33387 120.416 3.8192 120.211C4.30454 119.996 4.8692 119.889 5.5132 119.889C6.1572 119.889 6.73587 120.001 7.2492 120.225C7.77187 120.449 8.18254 120.78 8.4812 121.219C8.7892 121.648 8.9432 122.189 8.9432 122.843V123.501H8.0472V122.843C8.0472 122.329 7.9352 121.914 7.7112 121.597C7.4872 121.279 7.18387 121.046 6.8012 120.897C6.41854 120.747 5.9892 120.673 5.5132 120.673C4.83187 120.673 4.2672 120.831 3.8192 121.149C3.38054 121.457 3.1612 121.905 3.1612 122.493C3.1612 122.885 3.24987 123.197 3.4272 123.431C3.61387 123.664 3.87054 123.851 4.1972 123.991C4.5332 124.131 4.9252 124.257 5.3732 124.369L6.2692 124.593C6.78254 124.714 7.25387 124.877 7.6832 125.083C8.11254 125.279 8.45787 125.554 8.7192 125.909C8.98054 126.254 9.1112 126.711 9.1112 127.281C9.1112 127.85 8.96654 128.345 8.6772 128.765C8.3972 129.185 8.00054 129.511 7.4872 129.745C6.97387 129.969 6.37187 130.081 5.6812 130.081ZM13.5942 129.885C13.2302 129.885 12.9548 129.791 12.7682 129.605C12.5908 129.418 12.5022 129.157 12.5022 128.821V123.837H10.3182V123.081H12.5022V120.533H13.3422V123.081H15.7222V123.837H13.3422V128.709C13.3422 128.989 13.4822 129.129 13.7622 129.129H15.3582V129.885H13.5942ZM17.597 129.885V123.081H18.409V123.935H18.577C18.7076 123.627 18.899 123.403 19.151 123.263C19.4123 123.123 19.7716 123.053 20.229 123.053H21.027V123.837H20.131C19.6176 123.837 19.207 123.981 18.899 124.271C18.591 124.56 18.437 125.013 18.437 125.629V129.885H17.597ZM25.6268 130.081C24.9362 130.081 24.3295 129.936 23.8068 129.647C23.2935 129.348 22.8922 128.937 22.6028 128.415C22.3228 127.883 22.1828 127.267 22.1828 126.567V126.399C22.1828 125.699 22.3228 125.087 22.6028 124.565C22.8922 124.033 23.2935 123.622 23.8068 123.333C24.3295 123.034 24.9362 122.885 25.6268 122.885C26.3175 122.885 26.9195 123.034 27.4328 123.333C27.9555 123.622 28.3568 124.033 28.6368 124.565C28.9262 125.087 29.0708 125.699 29.0708 126.399V126.567C29.0708 127.267 28.9262 127.883 28.6368 128.415C28.3568 128.937 27.9555 129.348 27.4328 129.647C26.9195 129.936 26.3175 130.081 25.6268 130.081ZM25.6268 129.325C26.4295 129.325 27.0642 129.073 27.5308 128.569C27.9975 128.055 28.2308 127.379 28.2308 126.539V126.427C28.2308 125.587 27.9975 124.915 27.5308 124.411C27.0642 123.897 26.4295 123.641 25.6268 123.641C24.8335 123.641 24.1988 123.897 23.7228 124.411C23.2562 124.915 23.0228 125.587 23.0228 126.427V126.539C23.0228 127.379 23.2562 128.055 23.7228 128.569C24.1988 129.073 24.8335 129.325 25.6268 129.325ZM31.2005 129.885V123.081H32.0125V124.341H32.1805C32.3485 123.977 32.6238 123.655 33.0065 123.375C33.3891 123.085 33.9445 122.941 34.6725 122.941C35.1671 122.941 35.6198 123.043 36.0305 123.249C36.4411 123.454 36.7678 123.767 37.0105 124.187C37.2625 124.597 37.3885 125.115 37.3885 125.741V129.885H36.5485V125.797C36.5485 125.05 36.3618 124.513 35.9885 124.187C35.6151 123.86 35.1158 123.697 34.4905 123.697C33.7905 123.697 33.2071 123.93 32.7405 124.397C32.2738 124.854 32.0405 125.549 32.0405 126.483V129.885H31.2005ZM39.4367 126.511V126.343C39.4367 125.624 39.5814 125.008 39.8707 124.495C40.1694 123.981 40.5661 123.585 41.0607 123.305C41.5554 123.025 42.1061 122.885 42.7127 122.885C43.4594 122.885 44.0381 123.034 44.4487 123.333C44.8687 123.622 45.1767 123.953 45.3727 124.327H45.5407V123.081H46.3247V131.621C46.3247 131.957 46.2361 132.218 46.0587 132.405C45.8814 132.591 45.6107 132.685 45.2467 132.685H40.5987V131.929H45.0787C45.3681 131.929 45.5127 131.789 45.5127 131.509V128.583H45.3447C45.2234 128.807 45.0507 129.026 44.8267 129.241C44.6121 129.455 44.3321 129.633 43.9867 129.773C43.6414 129.903 43.2167 129.969 42.7127 129.969C42.1061 129.969 41.5507 129.829 41.0467 129.549C40.5521 129.269 40.1601 128.872 39.8707 128.359C39.5814 127.836 39.4367 127.22 39.4367 126.511ZM42.9087 129.213C43.6834 129.213 44.3087 128.97 44.7847 128.485C45.2701 127.999 45.5127 127.332 45.5127 126.483V126.371C45.5127 125.512 45.2701 124.845 44.7847 124.369C44.3087 123.883 43.6834 123.641 42.9087 123.641C42.1434 123.641 41.5181 123.883 41.0327 124.369C40.5474 124.845 40.3047 125.512 40.3047 126.371V126.483C40.3047 127.332 40.5474 127.999 41.0327 128.485C41.5181 128.97 42.1434 129.213 42.9087 129.213ZM17.0152 148.081C16.3152 148.081 15.6899 147.959 15.1392 147.717C14.5885 147.465 14.1545 147.087 13.8372 146.583C13.5199 146.069 13.3612 145.421 13.3612 144.637V144.371H14.2572V144.637C14.2572 145.542 14.5139 146.214 15.0272 146.653C15.5499 147.082 16.2125 147.297 17.0152 147.297C17.8272 147.297 18.4525 147.11 18.8912 146.737C19.3299 146.354 19.5492 145.869 19.5492 145.281C19.5492 144.889 19.4512 144.576 19.2552 144.343C19.0685 144.1 18.8025 143.909 18.4572 143.769C18.1212 143.619 17.7292 143.489 17.2812 143.377L16.3852 143.153C15.8532 143.013 15.3772 142.84 14.9572 142.635C14.5372 142.42 14.2059 142.145 13.9632 141.809C13.7205 141.463 13.5992 141.025 13.5992 140.493C13.5992 139.961 13.7345 139.499 14.0052 139.107C14.2852 138.715 14.6679 138.416 15.1532 138.211C15.6385 137.996 16.2032 137.889 16.8472 137.889C17.4912 137.889 18.0699 138.001 18.5832 138.225C19.1059 138.449 19.5165 138.78 19.8152 139.219C20.1232 139.648 20.2772 140.189 20.2772 140.843V141.501H19.3812V140.843C19.3812 140.329 19.2692 139.914 19.0452 139.597C18.8212 139.279 18.5179 139.046 18.1352 138.897C17.7525 138.747 17.3232 138.673 16.8472 138.673C16.1659 138.673 15.6012 138.831 15.1532 139.149C14.7145 139.457 14.4952 139.905 14.4952 140.493C14.4952 140.885 14.5839 141.197 14.7612 141.431C14.9479 141.664 15.2045 141.851 15.5312 141.991C15.8672 142.131 16.2592 142.257 16.7072 142.369L17.6032 142.593C18.1165 142.714 18.5879 142.877 19.0172 143.083C19.4465 143.279 19.7919 143.554 20.0532 143.909C20.3145 144.254 20.4452 144.711 20.4452 145.281C20.4452 145.85 20.3005 146.345 20.0112 146.765C19.7312 147.185 19.3345 147.511 18.8212 147.745C18.3079 147.969 17.7059 148.081 17.0152 148.081ZM25.6001 148.081C24.9001 148.081 24.2888 147.936 23.7661 147.647C23.2528 147.348 22.8515 146.933 22.5621 146.401C22.2728 145.869 22.1281 145.257 22.1281 144.567V144.399C22.1281 143.699 22.2728 143.087 22.5621 142.565C22.8515 142.033 23.2481 141.622 23.7521 141.333C24.2655 141.034 24.8488 140.885 25.5021 140.885C26.1368 140.885 26.6968 141.02 27.1821 141.291C27.6768 141.552 28.0641 141.935 28.3441 142.439C28.6241 142.933 28.7641 143.526 28.7641 144.217V144.665H22.9681C22.9961 145.514 23.2528 146.172 23.7381 146.639C24.2328 147.096 24.8535 147.325 25.6001 147.325C26.2348 147.325 26.7248 147.18 27.0701 146.891C27.4248 146.601 27.6955 146.247 27.8821 145.827L28.6381 146.163C28.4981 146.471 28.3021 146.774 28.0501 147.073C27.8075 147.362 27.4901 147.605 27.0981 147.801C26.7061 147.987 26.2068 148.081 25.6001 148.081ZM22.9821 143.937H27.9101C27.8728 143.199 27.6348 142.635 27.1961 142.243C26.7575 141.841 26.1928 141.641 25.5021 141.641C24.8208 141.641 24.2561 141.841 23.8081 142.243C23.3601 142.635 23.0848 143.199 22.9821 143.937ZM30.8313 147.885V138.085H31.6713V147.885H30.8313ZM34.1399 147.885V138.085H34.9799V147.885H34.1399Z" fill="#2F2F2F"/>
<path d="M224.86 130.081C224.16 130.081 223.534 129.959 222.984 129.717C222.433 129.465 221.999 129.087 221.682 128.583C221.364 128.069 221.206 127.421 221.206 126.637V126.371H222.102V126.637C222.102 127.542 222.358 128.214 222.872 128.653C223.394 129.082 224.057 129.297 224.86 129.297C225.672 129.297 226.297 129.11 226.736 128.737C227.174 128.354 227.394 127.869 227.394 127.281C227.394 126.889 227.296 126.576 227.1 126.343C226.913 126.1 226.647 125.909 226.302 125.769C225.966 125.619 225.574 125.489 225.126 125.377L224.23 125.153C223.698 125.013 223.222 124.84 222.802 124.635C222.382 124.42 222.05 124.145 221.808 123.809C221.565 123.463 221.444 123.025 221.444 122.493C221.444 121.961 221.579 121.499 221.85 121.107C222.13 120.715 222.512 120.416 222.998 120.211C223.483 119.996 224.048 119.889 224.692 119.889C225.336 119.889 225.914 120.001 226.428 120.225C226.95 120.449 227.361 120.78 227.66 121.219C227.968 121.648 228.122 122.189 228.122 122.843V123.501H227.226V122.843C227.226 122.329 227.114 121.914 226.89 121.597C226.666 121.279 226.362 121.046 225.98 120.897C225.597 120.747 225.168 120.673 224.692 120.673C224.01 120.673 223.446 120.831 222.998 121.149C222.559 121.457 222.34 121.905 222.34 122.493C222.34 122.885 222.428 123.197 222.606 123.431C222.792 123.664 223.049 123.851 223.376 123.991C223.712 124.131 224.104 124.257 224.552 124.369L225.448 124.593C225.961 124.714 226.432 124.877 226.862 125.083C227.291 125.279 227.636 125.554 227.898 125.909C228.159 126.254 228.29 126.711 228.29 127.281C228.29 127.85 228.145 128.345 227.856 128.765C227.576 129.185 227.179 129.511 226.666 129.745C226.152 129.969 225.55 130.081 224.86 130.081ZM232.773 129.885C232.409 129.885 232.133 129.791 231.947 129.605C231.769 129.418 231.681 129.157 231.681 128.821V123.837H229.497V123.081H231.681V120.533H232.521V123.081H234.901V123.837H232.521V128.709C232.521 128.989 232.661 129.129 232.941 129.129H234.537V129.885H232.773ZM236.775 129.885V123.081H237.587V123.935H237.755C237.886 123.627 238.077 123.403 238.329 123.263C238.591 123.123 238.95 123.053 239.407 123.053H240.205V123.837H239.309C238.796 123.837 238.385 123.981 238.077 124.271C237.769 124.56 237.615 125.013 237.615 125.629V129.885H236.775ZM244.805 130.081C244.115 130.081 243.508 129.936 242.985 129.647C242.472 129.348 242.071 128.937 241.781 128.415C241.501 127.883 241.361 127.267 241.361 126.567V126.399C241.361 125.699 241.501 125.087 241.781 124.565C242.071 124.033 242.472 123.622 242.985 123.333C243.508 123.034 244.115 122.885 244.805 122.885C245.496 122.885 246.098 123.034 246.611 123.333C247.134 123.622 247.535 124.033 247.815 124.565C248.105 125.087 248.249 125.699 248.249 126.399V126.567C248.249 127.267 248.105 127.883 247.815 128.415C247.535 128.937 247.134 129.348 246.611 129.647C246.098 129.936 245.496 130.081 244.805 130.081ZM244.805 129.325C245.608 129.325 246.243 129.073 246.709 128.569C247.176 128.055 247.409 127.379 247.409 126.539V126.427C247.409 125.587 247.176 124.915 246.709 124.411C246.243 123.897 245.608 123.641 244.805 123.641C244.012 123.641 243.377 123.897 242.901 124.411C242.435 124.915 242.201 125.587 242.201 126.427V126.539C242.201 127.379 242.435 128.055 242.901 128.569C243.377 129.073 244.012 129.325 244.805 129.325ZM250.379 129.885V123.081H251.191V124.341H251.359C251.527 123.977 251.802 123.655 252.185 123.375C252.568 123.085 253.123 122.941 253.851 122.941C254.346 122.941 254.798 123.043 255.209 123.249C255.62 123.454 255.946 123.767 256.189 124.187C256.441 124.597 256.567 125.115 256.567 125.741V129.885H255.727V125.797C255.727 125.05 255.54 124.513 255.167 124.187C254.794 123.86 254.294 123.697 253.669 123.697C252.969 123.697 252.386 123.93 251.919 124.397C251.452 124.854 251.219 125.549 251.219 126.483V129.885H250.379ZM258.615 126.511V126.343C258.615 125.624 258.76 125.008 259.049 124.495C259.348 123.981 259.745 123.585 260.239 123.305C260.734 123.025 261.285 122.885 261.891 122.885C262.638 122.885 263.217 123.034 263.627 123.333C264.047 123.622 264.355 123.953 264.551 124.327H264.719V123.081H265.503V131.621C265.503 131.957 265.415 132.218 265.237 132.405C265.06 132.591 264.789 132.685 264.425 132.685H259.777V131.929H264.257C264.547 131.929 264.691 131.789 264.691 131.509V128.583H264.523C264.402 128.807 264.229 129.026 264.005 129.241C263.791 129.455 263.511 129.633 263.165 129.773C262.82 129.903 262.395 129.969 261.891 129.969C261.285 129.969 260.729 129.829 260.225 129.549C259.731 129.269 259.339 128.872 259.049 128.359C258.76 127.836 258.615 127.22 258.615 126.511ZM262.087 129.213C262.862 129.213 263.487 128.97 263.963 128.485C264.449 127.999 264.691 127.332 264.691 126.483V126.371C264.691 125.512 264.449 124.845 263.963 124.369C263.487 123.883 262.862 123.641 262.087 123.641C261.322 123.641 260.697 123.883 260.211 124.369C259.726 124.845 259.483 125.512 259.483 126.371V126.483C259.483 127.332 259.726 127.999 260.211 128.485C260.697 128.97 261.322 129.213 262.087 129.213ZM231.082 147.885V147.073H232.482V138.897H231.082V138.085H235.94C236.5 138.085 236.999 138.187 237.438 138.393C237.876 138.598 238.217 138.887 238.46 139.261C238.712 139.625 238.838 140.049 238.838 140.535V140.647C238.838 141.104 238.749 141.482 238.572 141.781C238.394 142.079 238.18 142.313 237.928 142.481C237.676 142.649 237.428 142.77 237.186 142.845V143.013C237.428 143.069 237.676 143.185 237.928 143.363C238.189 143.531 238.404 143.764 238.572 144.063C238.749 144.361 238.838 144.739 238.838 145.197V145.337C238.838 145.869 238.707 146.326 238.446 146.709C238.194 147.091 237.844 147.385 237.396 147.591C236.957 147.787 236.458 147.885 235.898 147.885H231.082ZM233.378 147.073H235.814C236.514 147.073 237.041 146.909 237.396 146.583C237.76 146.256 237.942 145.817 237.942 145.267V145.155C237.942 144.604 237.76 144.165 237.396 143.839C237.041 143.512 236.514 143.349 235.814 143.349H233.378V147.073ZM233.378 142.537H235.87C236.514 142.537 237.018 142.378 237.382 142.061C237.755 141.734 237.942 141.309 237.942 140.787V140.647C237.942 140.124 237.755 139.704 237.382 139.387C237.018 139.06 236.514 138.897 235.87 138.897H233.378V142.537ZM243.502 148.025C243.016 148.025 242.564 147.922 242.144 147.717C241.733 147.511 241.402 147.203 241.15 146.793C240.907 146.373 240.786 145.85 240.786 145.225V141.081H241.626V145.169C241.626 145.906 241.812 146.443 242.186 146.779C242.559 147.105 243.058 147.269 243.684 147.269C244.384 147.269 244.967 147.04 245.434 146.583C245.9 146.116 246.134 145.416 246.134 144.483V141.081H246.974V147.885H246.162V146.625H245.994C245.826 146.989 245.55 147.315 245.168 147.605C244.785 147.885 244.23 148.025 243.502 148.025ZM250.296 150.685V149.929H254.272C254.552 149.929 254.692 149.789 254.692 149.509V146.709H254.524C254.412 146.933 254.254 147.147 254.048 147.353C253.852 147.549 253.591 147.712 253.264 147.843C252.947 147.964 252.546 148.025 252.06 148.025C251.575 148.025 251.122 147.922 250.702 147.717C250.292 147.511 249.96 147.203 249.708 146.793C249.466 146.382 249.344 145.864 249.344 145.239V141.081H250.184V145.183C250.184 145.92 250.371 146.452 250.744 146.779C251.118 147.105 251.617 147.269 252.242 147.269C252.942 147.269 253.526 147.04 253.992 146.583C254.459 146.125 254.692 145.43 254.692 144.497V141.081H255.532V149.621C255.532 149.957 255.439 150.218 255.252 150.405C255.075 150.591 254.804 150.685 254.44 150.685H250.296Z" fill="#2F2F2F"/>
<path d="M57.0074 85.4128C56.3074 85.4128 55.6821 85.2915 55.1314 85.0488C54.5808 84.7968 54.1468 84.4188 53.8294 83.9148C53.5121 83.4015 53.3534 82.7528 53.3534 81.9688V81.7028H54.2494V81.9688C54.2494 82.8741 54.5061 83.5461 55.0194 83.9848C55.5421 84.4141 56.2048 84.6288 57.0074 84.6288C57.8194 84.6288 58.4448 84.4421 58.8834 84.0688C59.3221 83.6861 59.5414 83.2008 59.5414 82.6128C59.5414 82.2208 59.4434 81.9081 59.2474 81.6748C59.0608 81.4321 58.7948 81.2408 58.4494 81.1008C58.1134 80.9515 57.7214 80.8208 57.2734 80.7088L56.3774 80.4848C55.8454 80.3448 55.3694 80.1721 54.9494 79.9668C54.5294 79.7521 54.1981 79.4768 53.9554 79.1408C53.7128 78.7955 53.5914 78.3568 53.5914 77.8248C53.5914 77.2928 53.7268 76.8308 53.9974 76.4388C54.2774 76.0468 54.6601 75.7481 55.1454 75.5428C55.6308 75.3281 56.1954 75.2208 56.8394 75.2208C57.4834 75.2208 58.0621 75.3328 58.5754 75.5568C59.0981 75.7808 59.5088 76.1121 59.8074 76.5508C60.1154 76.9801 60.2694 77.5215 60.2694 78.1748V78.8328H59.3734V78.1748C59.3734 77.6615 59.2614 77.2461 59.0374 76.9288C58.8134 76.6115 58.5101 76.3781 58.1274 76.2288C57.7448 76.0795 57.3154 76.0048 56.8394 76.0048C56.1581 76.0048 55.5934 76.1635 55.1454 76.4808C54.7068 76.7888 54.4874 77.2368 54.4874 77.8248C54.4874 78.2168 54.5761 78.5295 54.7534 78.7628C54.9401 78.9961 55.1968 79.1828 55.5234 79.3228C55.8594 79.4628 56.2514 79.5888 56.6994 79.7008L57.5954 79.9248C58.1088 80.0461 58.5801 80.2095 59.0094 80.4148C59.4388 80.6108 59.7841 80.8861 60.0454 81.2408C60.3068 81.5861 60.4374 82.0435 60.4374 82.6128C60.4374 83.1821 60.2928 83.6768 60.0034 84.0968C59.7234 84.5168 59.3268 84.8435 58.8134 85.0768C58.3001 85.3008 57.6981 85.4128 57.0074 85.4128ZM65.5924 85.4128C64.8924 85.4128 64.2811 85.2681 63.7584 84.9788C63.2451 84.6801 62.8437 84.2648 62.5544 83.7328C62.2651 83.2008 62.1204 82.5895 62.1204 81.8988V81.7308C62.1204 81.0308 62.2651 80.4195 62.5544 79.8968C62.8437 79.3648 63.2404 78.9541 63.7444 78.6648C64.2577 78.3661 64.8411 78.2168 65.4944 78.2168C66.1291 78.2168 66.6891 78.3521 67.1744 78.6228C67.6691 78.8841 68.0564 79.2668 68.3364 79.7708C68.6164 80.2655 68.7564 80.8581 68.7564 81.5488V81.9968H62.9604C62.9884 82.8461 63.2451 83.5041 63.7304 83.9708C64.2251 84.4281 64.8457 84.6568 65.5924 84.6568C66.2271 84.6568 66.7171 84.5121 67.0624 84.2228C67.4171 83.9335 67.6877 83.5788 67.8744 83.1588L68.6304 83.4948C68.4904 83.8028 68.2944 84.1061 68.0424 84.4048C67.7997 84.6941 67.4824 84.9368 67.0904 85.1328C66.6984 85.3195 66.1991 85.4128 65.5924 85.4128ZM62.9744 81.2688H67.9024C67.8651 80.5315 67.6271 79.9668 67.1884 79.5748C66.7497 79.1735 66.1851 78.9728 65.4944 78.9728C64.8131 78.9728 64.2484 79.1735 63.8004 79.5748C63.3524 79.9668 63.0771 80.5315 62.9744 81.2688ZM70.8236 85.2168V75.4168H71.6636V85.2168H70.8236ZM74.1322 85.2168V75.4168H74.9722V85.2168H74.1322Z" fill="#101313"/>
<path d="M49.7361 216.298C49.0361 216.298 48.4107 216.176 47.8601 215.934C47.3094 215.682 46.8754 215.304 46.5581 214.8C46.2407 214.286 46.0821 213.638 46.0821 212.854V212.588H46.9781V212.854C46.9781 213.759 47.2347 214.431 47.7481 214.87C48.2707 215.299 48.9334 215.514 49.7361 215.514C50.5481 215.514 51.1734 215.327 51.6121 214.954C52.0507 214.571 52.2701 214.086 52.2701 213.498C52.2701 213.106 52.1721 212.793 51.9761 212.56C51.7894 212.317 51.5234 212.126 51.1781 211.986C50.8421 211.836 50.4501 211.706 50.0021 211.594L49.1061 211.37C48.5741 211.23 48.0981 211.057 47.6781 210.852C47.2581 210.637 46.9267 210.362 46.6841 210.026C46.4414 209.68 46.3201 209.242 46.3201 208.71C46.3201 208.178 46.4554 207.716 46.7261 207.324C47.0061 206.932 47.3887 206.633 47.8741 206.428C48.3594 206.213 48.9241 206.106 49.5681 206.106C50.2121 206.106 50.7907 206.218 51.3041 206.442C51.8267 206.666 52.2374 206.997 52.5361 207.436C52.8441 207.865 52.9981 208.406 52.9981 209.06V209.718H52.1021V209.06C52.1021 208.546 51.9901 208.131 51.7661 207.814C51.5421 207.496 51.2387 207.263 50.8561 207.114C50.4734 206.964 50.0441 206.89 49.5681 206.89C48.8867 206.89 48.3221 207.048 47.8741 207.366C47.4354 207.674 47.2161 208.122 47.2161 208.71C47.2161 209.102 47.3047 209.414 47.4821 209.648C47.6687 209.881 47.9254 210.068 48.2521 210.208C48.5881 210.348 48.9801 210.474 49.4281 210.586L50.3241 210.81C50.8374 210.931 51.3087 211.094 51.7381 211.3C52.1674 211.496 52.5127 211.771 52.7741 212.126C53.0354 212.471 53.1661 212.928 53.1661 213.498C53.1661 214.067 53.0214 214.562 52.7321 214.982C52.4521 215.402 52.0554 215.728 51.5421 215.962C51.0287 216.186 50.4267 216.298 49.7361 216.298ZM58.321 216.298C57.621 216.298 57.0097 216.153 56.487 215.864C55.9737 215.565 55.5724 215.15 55.283 214.618C54.9937 214.086 54.849 213.474 54.849 212.784V212.616C54.849 211.916 54.9937 211.304 55.283 210.782C55.5724 210.25 55.969 209.839 56.473 209.55C56.9864 209.251 57.5697 209.102 58.223 209.102C58.8577 209.102 59.4177 209.237 59.903 209.508C60.3977 209.769 60.785 210.152 61.065 210.656C61.345 211.15 61.485 211.743 61.485 212.434V212.882H55.689C55.717 213.731 55.9737 214.389 56.459 214.856C56.9537 215.313 57.5744 215.542 58.321 215.542C58.9557 215.542 59.4457 215.397 59.791 215.108C60.1457 214.818 60.4164 214.464 60.603 214.044L61.359 214.38C61.219 214.688 61.023 214.991 60.771 215.29C60.5284 215.579 60.211 215.822 59.819 216.018C59.427 216.204 58.9277 216.298 58.321 216.298ZM55.703 212.154H60.631C60.5937 211.416 60.3557 210.852 59.917 210.46C59.4784 210.058 58.9137 209.858 58.223 209.858C57.5417 209.858 56.977 210.058 56.529 210.46C56.081 210.852 55.8057 211.416 55.703 212.154ZM63.5522 216.102V206.302H64.3922V216.102H63.5522ZM66.8608 216.102V206.302H67.7008V216.102H66.8608Z" fill="#2F2F2F"/>
<path d="M120.924 171.436V169.812H122.212V163.26H120.924V161.636H125.964C126.562 161.636 127.08 161.738 127.518 161.944C127.966 162.14 128.312 162.424 128.554 162.798C128.806 163.162 128.932 163.6 128.932 164.114V164.254C128.932 164.702 128.848 165.07 128.68 165.36C128.512 165.64 128.312 165.859 128.078 166.018C127.854 166.167 127.64 166.274 127.434 166.34V166.592C127.64 166.648 127.864 166.755 128.106 166.914C128.349 167.063 128.554 167.282 128.722 167.572C128.9 167.861 128.988 168.239 128.988 168.706V168.846C128.988 169.387 128.862 169.854 128.61 170.246C128.358 170.628 128.008 170.922 127.56 171.128C127.122 171.333 126.608 171.436 126.02 171.436H120.924ZM124.06 169.756H125.796C126.198 169.756 126.52 169.658 126.762 169.462C127.014 169.266 127.14 168.986 127.14 168.622V168.482C127.14 168.118 127.019 167.838 126.776 167.642C126.534 167.446 126.207 167.348 125.796 167.348H124.06V169.756ZM124.06 165.668H125.768C126.151 165.668 126.464 165.57 126.706 165.374C126.958 165.178 127.084 164.907 127.084 164.562V164.422C127.084 164.067 126.963 163.796 126.72 163.61C126.478 163.414 126.16 163.316 125.768 163.316H124.06V165.668ZM134.281 171.632C133.478 171.632 132.788 171.487 132.209 171.198C131.64 170.899 131.201 170.479 130.893 169.938C130.594 169.387 130.445 168.738 130.445 167.992V161.636H132.293V168.048C132.293 168.645 132.461 169.116 132.797 169.462C133.142 169.807 133.637 169.98 134.281 169.98C134.925 169.98 135.415 169.807 135.751 169.462C136.096 169.116 136.269 168.645 136.269 168.048V161.636H138.117V167.992C138.117 168.738 137.963 169.387 137.655 169.938C137.356 170.479 136.918 170.899 136.339 171.198C135.77 171.487 135.084 171.632 134.281 171.632ZM142.427 171.436V168.062L139.095 161.636H141.153L143.225 165.836H143.477L145.549 161.636H147.607L144.275 168.062V171.436H142.427Z" fill="#101313"/>
<path d="M193.686 85.2168V84.4048H195.086V76.2288H193.686V75.4168H198.544C199.104 75.4168 199.603 75.5195 200.042 75.7248C200.481 75.9301 200.821 76.2195 201.064 76.5928C201.316 76.9568 201.442 77.3815 201.442 77.8668V77.9788C201.442 78.4361 201.353 78.8141 201.176 79.1128C200.999 79.4115 200.784 79.6448 200.532 79.8128C200.28 79.9808 200.033 80.1021 199.79 80.1768V80.3448C200.033 80.4008 200.28 80.5175 200.532 80.6948C200.793 80.8628 201.008 81.0961 201.176 81.3948C201.353 81.6935 201.442 82.0715 201.442 82.5288V82.6688C201.442 83.2008 201.311 83.6581 201.05 84.0408C200.798 84.4235 200.448 84.7175 200 84.9228C199.561 85.1188 199.062 85.2168 198.502 85.2168H193.686ZM195.982 84.4048H198.418C199.118 84.4048 199.645 84.2415 200 83.9148C200.364 83.5881 200.546 83.1495 200.546 82.5988V82.4868C200.546 81.9361 200.364 81.4975 200 81.1708C199.645 80.8441 199.118 80.6808 198.418 80.6808H195.982V84.4048ZM195.982 79.8688H198.474C199.118 79.8688 199.622 79.7101 199.986 79.3928C200.359 79.0661 200.546 78.6415 200.546 78.1188V77.9788C200.546 77.4561 200.359 77.0361 199.986 76.7188C199.622 76.3921 199.118 76.2288 198.474 76.2288H195.982V79.8688ZM206.106 85.3568C205.621 85.3568 205.168 85.2541 204.748 85.0488C204.337 84.8435 204.006 84.5355 203.754 84.1248C203.511 83.7048 203.39 83.1821 203.39 82.5568V78.4128H204.23V82.5008C204.23 83.2381 204.417 83.7748 204.79 84.1108C205.163 84.4375 205.663 84.6008 206.288 84.6008C206.988 84.6008 207.571 84.3721 208.038 83.9148C208.505 83.4481 208.738 82.7481 208.738 81.8148V78.4128H209.578V85.2168H208.766V83.9568H208.598C208.43 84.3208 208.155 84.6475 207.772 84.9368C207.389 85.2168 206.834 85.3568 206.106 85.3568ZM212.901 88.0168V87.2608H216.877C217.157 87.2608 217.297 87.1208 217.297 86.8408V84.0408H217.129C217.017 84.2648 216.858 84.4795 216.653 84.6848C216.457 84.8808 216.195 85.0441 215.869 85.1748C215.551 85.2961 215.15 85.3568 214.665 85.3568C214.179 85.3568 213.727 85.2541 213.307 85.0488C212.896 84.8435 212.565 84.5355 212.313 84.1248C212.07 83.7141 211.949 83.1961 211.949 82.5708V78.4128H212.789V82.5148C212.789 83.2521 212.975 83.7841 213.349 84.1108C213.722 84.4375 214.221 84.6008 214.847 84.6008C215.547 84.6008 216.13 84.3721 216.597 83.9148C217.063 83.4575 217.297 82.7621 217.297 81.8288V78.4128H218.137V86.9528C218.137 87.2888 218.043 87.5501 217.857 87.7368C217.679 87.9235 217.409 88.0168 217.045 88.0168H212.901Z" fill="#2F2F2F"/>
<path d="M196.802 216.102V215.29H198.202V207.114H196.802V206.302H201.66C202.22 206.302 202.72 206.404 203.158 206.61C203.597 206.815 203.938 207.104 204.18 207.478C204.432 207.842 204.558 208.266 204.558 208.752V208.864C204.558 209.321 204.47 209.699 204.292 209.998C204.115 210.296 203.9 210.53 203.648 210.698C203.396 210.866 203.149 210.987 202.906 211.062V211.23C203.149 211.286 203.396 211.402 203.648 211.58C203.91 211.748 204.124 211.981 204.292 212.28C204.47 212.578 204.558 212.956 204.558 213.414V213.554C204.558 214.086 204.428 214.543 204.166 214.926C203.914 215.308 203.564 215.602 203.116 215.808C202.678 216.004 202.178 216.102 201.618 216.102H196.802ZM199.098 215.29H201.534C202.234 215.29 202.762 215.126 203.116 214.8C203.48 214.473 203.662 214.034 203.662 213.484V213.372C203.662 212.821 203.48 212.382 203.116 212.056C202.762 211.729 202.234 211.566 201.534 211.566H199.098V215.29ZM199.098 210.754H201.59C202.234 210.754 202.738 210.595 203.102 210.278C203.476 209.951 203.662 209.526 203.662 209.004V208.864C203.662 208.341 203.476 207.921 203.102 207.604C202.738 207.277 202.234 207.114 201.59 207.114H199.098V210.754ZM209.222 216.242C208.737 216.242 208.284 216.139 207.864 215.934C207.454 215.728 207.122 215.42 206.87 215.01C206.628 214.59 206.506 214.067 206.506 213.442V209.298H207.346V213.386C207.346 214.123 207.533 214.66 207.906 214.996C208.28 215.322 208.779 215.486 209.404 215.486C210.104 215.486 210.688 215.257 211.154 214.8C211.621 214.333 211.854 213.633 211.854 212.7V209.298H212.694V216.102H211.882V214.842H211.714C211.546 215.206 211.271 215.532 210.888 215.822C210.506 216.102 209.95 216.242 209.222 216.242ZM216.017 218.902V218.146H219.993C220.273 218.146 220.413 218.006 220.413 217.726V214.926H220.245C220.133 215.15 219.974 215.364 219.769 215.57C219.573 215.766 219.312 215.929 218.985 216.06C218.668 216.181 218.266 216.242 217.781 216.242C217.296 216.242 216.843 216.139 216.423 215.934C216.012 215.728 215.681 215.42 215.429 215.01C215.186 214.599 215.065 214.081 215.065 213.456V209.298H215.905V213.4C215.905 214.137 216.092 214.669 216.465 214.996C216.838 215.322 217.338 215.486 217.963 215.486C218.663 215.486 219.246 215.257 219.713 214.8C220.18 214.342 220.413 213.647 220.413 212.714V209.298H221.253V217.838C221.253 218.174 221.16 218.435 220.973 218.622C220.796 218.808 220.525 218.902 220.161 218.902H216.017Z" fill="#2F2F2F"/>
<path d="M110.232 64.4434V54.6434H112.01L116.014 63.9114H116.182V54.6434H117.078V64.4434H115.3L111.296 55.1614H111.128V64.4434H110.232ZM122.652 64.6394C121.952 64.6394 121.341 64.4947 120.818 64.2054C120.305 63.9067 119.904 63.4914 119.614 62.9594C119.325 62.4274 119.18 61.816 119.18 61.1254V60.9574C119.18 60.2574 119.325 59.646 119.614 59.1234C119.904 58.5914 120.3 58.1807 120.804 57.8914C121.318 57.5927 121.901 57.4434 122.554 57.4434C123.189 57.4434 123.749 57.5787 124.234 57.8494C124.729 58.1107 125.116 58.4934 125.396 58.9974C125.676 59.492 125.816 60.0847 125.816 60.7754V61.2234H120.02C120.048 62.0727 120.305 62.7307 120.79 63.1974C121.285 63.6547 121.906 63.8834 122.652 63.8834C123.287 63.8834 123.777 63.7387 124.122 63.4494C124.477 63.16 124.748 62.8054 124.934 62.3854L125.69 62.7214C125.55 63.0294 125.354 63.3327 125.102 63.6314C124.86 63.9207 124.542 64.1634 124.15 64.3594C123.758 64.546 123.259 64.6394 122.652 64.6394ZM120.034 60.4954H124.962C124.925 59.758 124.687 59.1934 124.248 58.8014C123.81 58.4 123.245 58.1994 122.554 58.1994C121.873 58.1994 121.308 58.4 120.86 58.8014C120.412 59.1934 120.137 59.758 120.034 60.4954ZM130.501 64.5834C130.016 64.5834 129.563 64.4807 129.143 64.2754C128.733 64.07 128.401 63.762 128.149 63.3514C127.907 62.9314 127.785 62.4087 127.785 61.7834V57.6394H128.625V61.7274C128.625 62.4647 128.812 63.0014 129.185 63.3374C129.559 63.664 130.058 63.8274 130.683 63.8274C131.383 63.8274 131.967 63.5987 132.433 63.1414C132.9 62.6747 133.133 61.9747 133.133 61.0414V57.6394H133.973V64.4434H133.161V63.1834H132.993C132.825 63.5474 132.55 63.874 132.167 64.1634C131.785 64.4434 131.229 64.5834 130.501 64.5834ZM138.906 64.4434C138.542 64.4434 138.267 64.35 138.08 64.1634C137.903 63.9767 137.814 63.7154 137.814 63.3794V58.3954H135.63V57.6394H137.814V55.0914H138.654V57.6394H141.034V58.3954H138.654V63.2674C138.654 63.5474 138.794 63.6874 139.074 63.6874H140.67V64.4434H138.906ZM142.909 64.4434V57.6394H143.721V58.4934H143.889C144.019 58.1854 144.211 57.9614 144.463 57.8214C144.724 57.6814 145.083 57.6114 145.541 57.6114H146.339V58.3954H145.443C144.929 58.3954 144.519 58.54 144.211 58.8294C143.903 59.1187 143.749 59.5714 143.749 60.1874V64.4434H142.909ZM149.903 64.6394C149.427 64.6394 148.993 64.56 148.601 64.4014C148.218 64.2334 147.915 63.9907 147.691 63.6734C147.467 63.356 147.355 62.9734 147.355 62.5254C147.355 62.068 147.467 61.69 147.691 61.3914C147.915 61.0927 148.218 60.8687 148.601 60.7194C148.984 60.57 149.408 60.4954 149.875 60.4954H152.367V59.9494C152.367 59.3987 152.208 58.9694 151.891 58.6614C151.574 58.3534 151.112 58.1994 150.505 58.1994C149.908 58.1994 149.432 58.3487 149.077 58.6474C148.732 58.9367 148.498 59.3287 148.377 59.8234L147.565 59.5854C147.677 59.184 147.854 58.8247 148.097 58.5074C148.34 58.1807 148.662 57.924 149.063 57.7374C149.464 57.5414 149.945 57.4434 150.505 57.4434C151.364 57.4434 152.026 57.6674 152.493 58.1154C152.969 58.5634 153.207 59.1887 153.207 59.9914V63.2954C153.207 63.5754 153.338 63.7154 153.599 63.7154H154.257V64.4434H153.361C153.072 64.4434 152.843 64.3594 152.675 64.1914C152.507 64.014 152.423 63.776 152.423 63.4774V63.3794H152.283C152.162 63.5847 152.003 63.7854 151.807 63.9814C151.62 64.1774 151.373 64.336 151.065 64.4574C150.757 64.5787 150.37 64.6394 149.903 64.6394ZM149.959 63.8834C150.678 63.8834 151.256 63.6687 151.695 63.2394C152.143 62.8007 152.367 62.1847 152.367 61.3914V61.2234H149.889C149.404 61.2234 148.998 61.3307 148.671 61.5454C148.354 61.7507 148.195 62.0727 148.195 62.5114C148.195 62.95 148.358 63.2907 148.685 63.5334C149.021 63.7667 149.446 63.8834 149.959 63.8834ZM155.856 64.4434V54.6434H156.696V64.4434H155.856Z" fill="#2F2F2F"/>
<path d="M109.713 216.102V206.302H111.491L115.495 215.57H115.663V206.302H116.559V216.102H114.781L110.777 206.82H110.609V216.102H109.713ZM122.133 216.298C121.433 216.298 120.822 216.153 120.299 215.864C119.786 215.565 119.384 215.15 119.095 214.618C118.806 214.086 118.661 213.474 118.661 212.784V212.616C118.661 211.916 118.806 211.304 119.095 210.782C119.384 210.25 119.781 209.839 120.285 209.55C120.798 209.251 121.382 209.102 122.035 209.102C122.67 209.102 123.23 209.237 123.715 209.508C124.21 209.769 124.597 210.152 124.877 210.656C125.157 211.15 125.297 211.743 125.297 212.434V212.882H119.501C119.529 213.731 119.786 214.389 120.271 214.856C120.766 215.313 121.386 215.542 122.133 215.542C122.768 215.542 123.258 215.397 123.603 215.108C123.958 214.818 124.228 214.464 124.415 214.044L125.171 214.38C125.031 214.688 124.835 214.991 124.583 215.29C124.34 215.579 124.023 215.822 123.631 216.018C123.239 216.204 122.74 216.298 122.133 216.298ZM119.515 212.154H124.443C124.406 211.416 124.168 210.852 123.729 210.46C123.29 210.058 122.726 209.858 122.035 209.858C121.354 209.858 120.789 210.058 120.341 210.46C119.893 210.852 119.618 211.416 119.515 212.154ZM129.982 216.242C129.497 216.242 129.044 216.139 128.624 215.934C128.213 215.728 127.882 215.42 127.63 215.01C127.387 214.59 127.266 214.067 127.266 213.442V209.298H128.106V213.386C128.106 214.123 128.293 214.66 128.666 214.996C129.039 215.322 129.539 215.486 130.164 215.486C130.864 215.486 131.447 215.257 131.914 214.8C132.381 214.333 132.614 213.633 132.614 212.7V209.298H133.454V216.102H132.642V214.842H132.474C132.306 215.206 132.031 215.532 131.648 215.822C131.265 216.102 130.71 216.242 129.982 216.242ZM138.387 216.102C138.023 216.102 137.747 216.008 137.561 215.822C137.383 215.635 137.295 215.374 137.295 215.038V210.054H135.111V209.298H137.295V206.75H138.135V209.298H140.515V210.054H138.135V214.926C138.135 215.206 138.275 215.346 138.555 215.346H140.151V216.102H138.387ZM142.39 216.102V209.298H143.202V210.152H143.37C143.5 209.844 143.692 209.62 143.944 209.48C144.205 209.34 144.564 209.27 145.022 209.27H145.82V210.054H144.924C144.41 210.054 144 210.198 143.692 210.488C143.384 210.777 143.23 211.23 143.23 211.846V216.102H142.39ZM149.384 216.298C148.908 216.298 148.474 216.218 148.082 216.06C147.699 215.892 147.396 215.649 147.172 215.332C146.948 215.014 146.836 214.632 146.836 214.184C146.836 213.726 146.948 213.348 147.172 213.05C147.396 212.751 147.699 212.527 148.082 212.378C148.464 212.228 148.889 212.154 149.356 212.154H151.848V211.608C151.848 211.057 151.689 210.628 151.372 210.32C151.054 210.012 150.592 209.858 149.986 209.858C149.388 209.858 148.912 210.007 148.558 210.306C148.212 210.595 147.979 210.987 147.858 211.482L147.046 211.244C147.158 210.842 147.335 210.483 147.578 210.166C147.82 209.839 148.142 209.582 148.544 209.396C148.945 209.2 149.426 209.102 149.986 209.102C150.844 209.102 151.507 209.326 151.974 209.774C152.45 210.222 152.688 210.847 152.688 211.65V214.954C152.688 215.234 152.818 215.374 153.08 215.374H153.738V216.102H152.842C152.552 216.102 152.324 216.018 152.156 215.85C151.988 215.672 151.904 215.434 151.904 215.136V215.038H151.764C151.642 215.243 151.484 215.444 151.288 215.64C151.101 215.836 150.854 215.994 150.546 216.116C150.238 216.237 149.85 216.298 149.384 216.298ZM149.44 215.542C150.158 215.542 150.737 215.327 151.176 214.898C151.624 214.459 151.848 213.843 151.848 213.05V212.882H149.37C148.884 212.882 148.478 212.989 148.152 213.204C147.834 213.409 147.676 213.731 147.676 214.17C147.676 214.608 147.839 214.949 148.166 215.192C148.502 215.425 148.926 215.542 149.44 215.542ZM155.337 216.102V206.302H156.177V216.102H155.337Z" fill="#2F2F2F"/>
<path d="M219.635 162.628C221.104 162.628 222.299 161.437 222.255 159.969C221.756 143.094 216.512 126.705 207.132 112.706C206.31 111.478 204.633 111.206 203.435 112.071C202.247 112.93 201.98 114.585 202.794 115.804C211.536 128.898 216.437 144.205 216.933 159.969C216.98 161.437 218.166 162.628 219.635 162.628Z" fill="#008E76"/>
<path d="M203.063 111.504C204.245 110.636 204.506 108.974 203.61 107.814C193.306 94.4763 179.453 84.3496 163.66 78.6105C162.269 78.1049 160.752 78.876 160.294 80.2835C159.838 81.6842 160.602 83.1858 161.986 83.6913C176.719 89.0737 189.649 98.5203 199.294 110.948C200.2 112.115 201.872 112.379 203.063 111.504Z" fill="#7BCCC5"/>
<path d="M159.848 80.119C160.297 78.7158 159.527 77.21 158.112 76.7992C142.003 72.1219 124.905 72.1269 108.799 76.8138C107.384 77.2254 106.615 78.7317 107.064 80.1347C107.516 81.5444 109.026 82.3146 110.448 81.9041C125.482 77.5638 141.429 77.5591 156.466 81.8904C157.888 82.3001 159.398 81.529 159.848 80.119Z" fill="#757474"/>
<path d="M106.563 80.318C106.103 78.9111 104.585 78.1419 103.195 78.6493C87.3892 84.416 73.5338 94.5788 63.2433 107.954C62.3493 109.116 62.6141 110.777 63.7973 111.643C64.9898 112.516 66.6614 112.248 67.5651 111.079C77.1982 98.6166 90.1305 89.1362 104.875 83.7279C106.258 83.2207 107.021 81.7181 106.563 80.318Z" fill="#FFA09F"/>
<path d="M63.485 112.129C62.2867 111.264 60.6102 111.538 59.7888 112.766C50.3316 126.906 45.0926 143.475 44.6915 160.512C44.6569 161.981 45.8592 163.165 47.3281 163.156C48.7969 163.147 49.976 161.949 50.0133 160.48C50.418 144.563 55.3142 129.087 64.1297 115.861C64.9428 114.641 64.6739 112.986 63.485 112.129Z" fill="#FF3141"/>
<path d="M165.849 110.665C166.408 109.713 166.089 108.487 165.137 107.928C164.185 107.368 162.959 107.687 162.4 108.639L165.849 110.665ZM162.4 108.639L132.617 159.344L136.066 161.369L165.849 110.665L162.4 108.639Z" fill="url(#paint1_linear_376_1693)"/>
<path d="M54.1394 200.52V199.414C54.1394 198.732 54.2561 198.172 54.4894 197.734C54.7228 197.295 55.0541 196.94 55.4834 196.67C55.9221 196.39 56.4494 196.156 57.0654 195.97L57.9194 195.704C58.3021 195.582 58.6288 195.433 58.8994 195.256C59.1794 195.078 59.3941 194.859 59.5434 194.598C59.6928 194.327 59.7674 194.014 59.7674 193.66V193.604C59.7674 193.053 59.5808 192.624 59.2074 192.316C58.8341 191.998 58.3441 191.84 57.7374 191.84C57.1121 191.84 56.6034 192.008 56.2114 192.344C55.8288 192.68 55.6374 193.174 55.6374 193.828V194.052H54.1814V193.842C54.1814 193.132 54.3354 192.535 54.6434 192.05C54.9514 191.555 55.3761 191.177 55.9174 190.916C56.4588 190.654 57.0654 190.524 57.7374 190.524C58.4094 190.524 59.0068 190.65 59.5294 190.902C60.0614 191.154 60.4768 191.508 60.7754 191.966C61.0834 192.423 61.2374 192.96 61.2374 193.576V193.702C61.2374 194.336 61.1114 194.864 60.8594 195.284C60.6074 195.704 60.2574 196.049 59.8094 196.32C59.3708 196.59 58.8621 196.819 58.2834 197.006L57.4574 197.258C57.0188 197.388 56.6641 197.533 56.3934 197.692C56.1321 197.841 55.9361 198.023 55.8054 198.238C55.6841 198.452 55.6234 198.728 55.6234 199.064V199.204H61.1534V200.52H54.1394Z" fill="#FF3141"/>
<path d="M129.853 200.52V191.756H129.629L128.019 195.06H126.465L128.635 190.72H131.323V200.52H129.853ZM133.011 200.52V199.414C133.011 198.732 133.128 198.172 133.361 197.734C133.594 197.295 133.926 196.94 134.355 196.67C134.794 196.39 135.321 196.156 135.937 195.97L136.791 195.704C137.174 195.582 137.5 195.433 137.771 195.256C138.051 195.078 138.266 194.859 138.415 194.598C138.564 194.327 138.639 194.014 138.639 193.66V193.604C138.639 193.053 138.452 192.624 138.079 192.316C137.706 191.998 137.216 191.84 136.609 191.84C135.984 191.84 135.475 192.008 135.083 192.344C134.7 192.68 134.509 193.174 134.509 193.828V194.052H133.053V193.842C133.053 193.132 133.207 192.535 133.515 192.05C133.823 191.555 134.248 191.177 134.789 190.916C135.33 190.654 135.937 190.524 136.609 190.524C137.281 190.524 137.878 190.65 138.401 190.902C138.933 191.154 139.348 191.508 139.647 191.966C139.955 192.423 140.109 192.96 140.109 193.576V193.702C140.109 194.336 139.983 194.864 139.731 195.284C139.479 195.704 139.129 196.049 138.681 196.32C138.242 196.59 137.734 196.819 137.155 197.006L136.329 197.258C135.89 197.388 135.536 197.533 135.265 197.692C135.004 197.841 134.808 198.023 134.677 198.238C134.556 198.452 134.495 198.728 134.495 199.064V199.204H140.025V200.52H133.011Z" fill="#101313"/>
<path d="M208.801 200.716C208.083 200.716 207.443 200.585 206.883 200.324C206.323 200.062 205.885 199.684 205.567 199.19C205.259 198.695 205.105 198.107 205.105 197.426V197.174H206.575V197.398C206.575 198.014 206.776 198.504 207.177 198.868C207.588 199.222 208.129 199.4 208.801 199.4C209.473 199.4 209.996 199.232 210.369 198.896C210.743 198.56 210.929 198.135 210.929 197.622V197.496C210.929 197.132 210.841 196.838 210.663 196.614C210.486 196.39 210.248 196.226 209.949 196.124C209.651 196.012 209.315 195.956 208.941 195.956H207.163V194.262L210.607 192.232V192.036H205.343V190.72H212.203V192.708L208.913 194.668V194.864H209.515C210.01 194.864 210.477 194.957 210.915 195.144C211.354 195.33 211.709 195.615 211.979 195.998C212.259 196.38 212.399 196.866 212.399 197.454V197.622C212.399 198.247 212.25 198.793 211.951 199.26C211.653 199.717 211.233 200.076 210.691 200.338C210.15 200.59 209.52 200.716 208.801 200.716Z" fill="#008E76"/>
<path d="M188.535 11.6719C188.535 15.7879 185.046 19.125 180.744 19.125C180.238 19.1257 179.734 19.0789 179.237 18.9856C178.879 18.9184 178.701 18.8848 178.576 18.9039C178.451 18.923 178.274 19.017 177.92 19.2052C176.919 19.7376 175.752 19.9256 174.629 19.7168C175.056 19.192 175.348 18.5624 175.476 17.8874C175.554 17.4745 175.361 17.0734 175.072 16.7798C173.759 15.4463 172.954 13.6495 172.954 11.6719C172.954 7.55595 176.442 4.21875 180.744 4.21875C185.046 4.21875 188.535 7.55595 188.535 11.6719Z" stroke="#101313" stroke-width="1.5" stroke-linejoin="round"/>
<path d="M179.576 10.4818C179.576 9.81982 180.099 9.2832 180.744 9.2832C181.39 9.2832 181.913 9.81982 181.913 10.4818C181.913 10.7204 181.845 10.9427 181.728 11.1294C181.379 11.6862 180.744 12.2169 180.744 12.8789V13.1786" stroke="#101313" stroke-width="1.5" stroke-linecap="round"/>
<path d="M180.744 14.7363H180.75" stroke="#101313" stroke-width="1.5" stroke-linecap="round" stroke-linejoin="round"/>
<defs>
<linearGradient id="paint0_linear_376_1693" x1="132.961" y1="76.4121" x2="132.961" y2="164.707" gradientUnits="userSpaceOnUse">
<stop stop-color="#3D8E87"/>
<stop offset="1" stop-color="#3D8E87" stop-opacity="0"/>
</linearGradient>
<linearGradient id="paint1_linear_376_1693" x1="164.124" y1="109.652" x2="134.341" y2="160.356" gradientUnits="userSpaceOnUse">
<stop stop-color="#2F2F2F"/>
<stop offset="1" stop-color="white" stop-opacity="0"/>
</linearGradient>
</defs>
</svg>
