<svg width="268" height="253" viewBox="0 0 268 253" fill="none" xmlns="http://www.w3.org/2000/svg">
<circle cx="132.961" cy="164.705" r="88.2946" fill="url(#paint0_linear_64_220)" fill-opacity="0.4"/>
<path d="M94.3094 16.8054C93.4667 16.8054 92.72 16.6561 92.0694 16.3574C91.4187 16.0588 90.9067 15.6214 90.5334 15.0454C90.1707 14.4588 89.9894 13.7494 89.9894 12.9174V12.5174H91.7014V12.9174C91.7014 13.7068 91.936 14.2988 92.4054 14.6934C92.8854 15.0881 93.52 15.2854 94.3094 15.2854C95.1094 15.2854 95.712 15.1201 96.1174 14.7894C96.5227 14.4481 96.7254 14.0108 96.7254 13.4774C96.7254 13.1254 96.6294 12.8374 96.4374 12.6134C96.2454 12.3894 95.9734 12.2134 95.6214 12.0854C95.2694 11.9468 94.848 11.8188 94.3574 11.7014L93.7654 11.5574C93.0507 11.3868 92.4267 11.1788 91.8934 10.9334C91.3707 10.6774 90.9654 10.3414 90.6774 9.92542C90.3894 9.50942 90.2454 8.97609 90.2454 8.32542C90.2454 7.66409 90.4054 7.09875 90.7254 6.62942C91.056 6.16009 91.5094 5.79742 92.0854 5.54142C92.6614 5.28542 93.3387 5.15742 94.1174 5.15742C94.896 5.15742 95.5894 5.29075 96.1974 5.55742C96.816 5.82409 97.3014 6.21875 97.6534 6.74142C98.0054 7.26409 98.1814 7.92009 98.1814 8.70942V9.28542H96.4694V8.70942C96.4694 8.22942 96.368 7.84009 96.1654 7.54142C95.9734 7.24275 95.7014 7.02409 95.3494 6.88542C94.9974 6.74675 94.5867 6.67742 94.1174 6.67742C93.4347 6.67742 92.9014 6.82142 92.5174 7.10942C92.144 7.38675 91.9574 7.77609 91.9574 8.27742C91.9574 8.61875 92.0374 8.90142 92.1974 9.12542C92.368 9.33875 92.6134 9.51475 92.9334 9.65342C93.2534 9.79209 93.6534 9.91475 94.1334 10.0214L94.7254 10.1654C95.4507 10.3254 96.0907 10.5334 96.6454 10.7894C97.2 11.0348 97.6374 11.3708 97.9574 11.7974C98.2774 12.2241 98.4374 12.7734 98.4374 13.4454C98.4374 14.1174 98.2667 14.7041 97.9254 15.2054C97.5947 15.7068 97.12 16.1014 96.5014 16.3894C95.8827 16.6668 95.152 16.8054 94.3094 16.8054ZM103.323 16.7254C102.726 16.7254 102.193 16.5921 101.723 16.3254C101.254 16.0588 100.886 15.6801 100.619 15.1894C100.353 14.6988 100.219 14.1121 100.219 13.4294V8.69342H101.867V13.3174C101.867 14.0001 102.038 14.5068 102.379 14.8374C102.721 15.1574 103.195 15.3174 103.803 15.3174C104.475 15.3174 105.014 15.0934 105.419 14.6454C105.835 14.1868 106.043 13.5308 106.043 12.6774V8.69342H107.691V16.5814H106.075V15.3974H105.819C105.67 15.7174 105.403 16.0214 105.019 16.3094C104.635 16.5868 104.07 16.7254 103.323 16.7254ZM110.127 16.5814V8.69342H111.743V9.62142H111.999C112.149 9.34409 112.389 9.09875 112.719 8.88542C113.05 8.67209 113.498 8.56542 114.063 8.56542C114.65 8.56542 115.119 8.68809 115.471 8.93342C115.834 9.16809 116.106 9.47209 116.287 9.84542H116.543C116.725 9.48275 116.986 9.17875 117.327 8.93342C117.679 8.68809 118.175 8.56542 118.815 8.56542C119.327 8.56542 119.781 8.67209 120.175 8.88542C120.57 9.08809 120.885 9.39742 121.119 9.81342C121.354 10.2188 121.471 10.7254 121.471 11.3334V16.5814H119.823V11.4614C119.823 10.9814 119.69 10.6134 119.423 10.3574C119.167 10.0908 118.799 9.95742 118.319 9.95742C117.807 9.95742 117.397 10.1228 117.087 10.4534C116.778 10.7841 116.623 11.2588 116.623 11.8774V16.5814H114.975V11.4614C114.975 10.9814 114.842 10.6134 114.575 10.3574C114.319 10.0908 113.951 9.95742 113.471 9.95742C112.959 9.95742 112.549 10.1228 112.239 10.4534C111.93 10.7841 111.775 11.2588 111.775 11.8774V16.5814H110.127ZM123.846 16.5814V8.69342H125.462V9.62142H125.718C125.868 9.34409 126.108 9.09875 126.438 8.88542C126.769 8.67209 127.217 8.56542 127.782 8.56542C128.369 8.56542 128.838 8.68809 129.19 8.93342C129.553 9.16809 129.825 9.47209 130.006 9.84542H130.262C130.444 9.48275 130.705 9.17875 131.046 8.93342C131.398 8.68809 131.894 8.56542 132.534 8.56542C133.046 8.56542 133.5 8.67209 133.894 8.88542C134.289 9.08809 134.604 9.39742 134.838 9.81342C135.073 10.2188 135.19 10.7254 135.19 11.3334V16.5814H133.542V11.4614C133.542 10.9814 133.409 10.6134 133.142 10.3574C132.886 10.0908 132.518 9.95742 132.038 9.95742C131.526 9.95742 131.116 10.1228 130.806 10.4534C130.497 10.7841 130.342 11.2588 130.342 11.8774V16.5814H128.694V11.4614C128.694 10.9814 128.561 10.6134 128.294 10.3574C128.038 10.0908 127.67 9.95742 127.19 9.95742C126.678 9.95742 126.268 10.1228 125.958 10.4534C125.649 10.7841 125.494 11.2588 125.494 11.8774V16.5814H123.846ZM140.013 16.8054C139.448 16.8054 138.941 16.7094 138.493 16.5174C138.056 16.3254 137.704 16.0428 137.437 15.6694C137.181 15.2961 137.053 14.8428 137.053 14.3094C137.053 13.7654 137.181 13.3174 137.437 12.9654C137.704 12.6028 138.061 12.3308 138.509 12.1494C138.968 11.9681 139.485 11.8774 140.061 11.8774H142.461V11.3654C142.461 10.9068 142.322 10.5388 142.045 10.2614C141.768 9.98409 141.341 9.84542 140.765 9.84542C140.2 9.84542 139.768 9.97875 139.469 10.2454C139.17 10.5121 138.973 10.8588 138.877 11.2854L137.341 10.7894C137.469 10.3628 137.672 9.97875 137.949 9.63742C138.237 9.28542 138.616 9.00275 139.085 8.78942C139.554 8.57609 140.12 8.46942 140.781 8.46942C141.805 8.46942 142.61 8.73075 143.197 9.25342C143.784 9.77609 144.077 10.5174 144.077 11.4774V14.7254C144.077 15.0454 144.226 15.2054 144.525 15.2054H145.197V16.5814H143.965C143.592 16.5814 143.288 16.4854 143.053 16.2934C142.818 16.1014 142.701 15.8401 142.701 15.5094V15.4614H142.461C142.376 15.6214 142.248 15.8081 142.077 16.0214C141.906 16.2348 141.656 16.4214 141.325 16.5814C140.994 16.7308 140.557 16.8054 140.013 16.8054ZM140.253 15.4454C140.914 15.4454 141.448 15.2588 141.853 14.8854C142.258 14.5014 142.461 13.9788 142.461 13.3174V13.1574H140.157C139.72 13.1574 139.368 13.2534 139.101 13.4454C138.834 13.6268 138.701 13.8988 138.701 14.2614C138.701 14.6241 138.84 14.9121 139.117 15.1254C139.394 15.3388 139.773 15.4454 140.253 15.4454ZM146.799 16.5814V8.69342H148.415V9.62142H148.671C148.799 9.29075 149.002 9.05075 149.279 8.90142C149.567 8.74142 149.919 8.66142 150.335 8.66142H151.279V10.1494H150.271C149.738 10.1494 149.301 10.2988 148.959 10.5974C148.618 10.8854 148.447 11.3334 148.447 11.9414V16.5814H146.799ZM153.899 19.7814V18.3414H158.299C158.598 18.3414 158.747 18.1814 158.747 17.8614V15.4294H158.491C158.395 15.6428 158.246 15.8508 158.043 16.0534C157.851 16.2454 157.59 16.4054 157.259 16.5334C156.928 16.6614 156.512 16.7254 156.011 16.7254C155.414 16.7254 154.88 16.5921 154.411 16.3254C153.942 16.0588 153.574 15.6801 153.307 15.1894C153.04 14.6988 152.907 14.1174 152.907 13.4454V8.69342H154.555V13.3174C154.555 14.0001 154.726 14.5068 155.067 14.8374C155.408 15.1574 155.883 15.3174 156.491 15.3174C157.163 15.3174 157.702 15.0934 158.107 14.6454C158.523 14.1974 158.731 13.5468 158.731 12.6934V8.69342H160.379V18.1974C160.379 18.6774 160.235 19.0614 159.947 19.3494C159.67 19.6374 159.286 19.7814 158.795 19.7814H153.899Z" fill="#FDFEFF"/>
<path d="M5.6812 130.08C4.9812 130.08 4.35587 129.958 3.8052 129.716C3.25454 129.464 2.82054 129.086 2.5032 128.582C2.18587 128.068 2.0272 127.42 2.0272 126.636V126.37H2.9232V126.636C2.9232 127.541 3.17987 128.213 3.6932 128.652C4.21587 129.081 4.87854 129.296 5.6812 129.296C6.4932 129.296 7.11854 129.109 7.5572 128.736C7.99587 128.353 8.2152 127.868 8.2152 127.28C8.2152 126.888 8.1172 126.575 7.9212 126.342C7.73454 126.099 7.46854 125.908 7.1232 125.768C6.7872 125.618 6.3952 125.488 5.9472 125.376L5.0512 125.152C4.5192 125.012 4.0432 124.839 3.6232 124.634C3.2032 124.419 2.87187 124.144 2.6292 123.808C2.38654 123.462 2.2652 123.024 2.2652 122.492C2.2652 121.96 2.40054 121.498 2.6712 121.106C2.9512 120.714 3.33387 120.415 3.8192 120.21C4.30454 119.995 4.8692 119.888 5.5132 119.888C6.1572 119.888 6.73587 120 7.2492 120.224C7.77187 120.448 8.18254 120.779 8.4812 121.218C8.7892 121.647 8.9432 122.188 8.9432 122.842V123.5H8.0472V122.842C8.0472 122.328 7.9352 121.913 7.7112 121.596C7.4872 121.278 7.18387 121.045 6.8012 120.896C6.41854 120.746 5.9892 120.672 5.5132 120.672C4.83187 120.672 4.2672 120.83 3.8192 121.148C3.38054 121.456 3.1612 121.904 3.1612 122.492C3.1612 122.884 3.24987 123.196 3.4272 123.43C3.61387 123.663 3.87054 123.85 4.1972 123.99C4.5332 124.13 4.9252 124.256 5.3732 124.368L6.2692 124.592C6.78254 124.713 7.25387 124.876 7.6832 125.082C8.11254 125.278 8.45787 125.553 8.7192 125.908C8.98054 126.253 9.1112 126.71 9.1112 127.28C9.1112 127.849 8.96654 128.344 8.6772 128.764C8.3972 129.184 8.00054 129.51 7.4872 129.744C6.97387 129.968 6.37187 130.08 5.6812 130.08ZM13.5942 129.884C13.2302 129.884 12.9548 129.79 12.7682 129.604C12.5908 129.417 12.5022 129.156 12.5022 128.82V123.836H10.3182V123.08H12.5022V120.532H13.3422V123.08H15.7222V123.836H13.3422V128.708C13.3422 128.988 13.4822 129.128 13.7622 129.128H15.3582V129.884H13.5942ZM17.597 129.884V123.08H18.409V123.934H18.577C18.7076 123.626 18.899 123.402 19.151 123.262C19.4123 123.122 19.7716 123.052 20.229 123.052H21.027V123.836H20.131C19.6176 123.836 19.207 123.98 18.899 124.27C18.591 124.559 18.437 125.012 18.437 125.628V129.884H17.597ZM25.6268 130.08C24.9362 130.08 24.3295 129.935 23.8068 129.646C23.2935 129.347 22.8922 128.936 22.6028 128.414C22.3228 127.882 22.1828 127.266 22.1828 126.566V126.398C22.1828 125.698 22.3228 125.086 22.6028 124.564C22.8922 124.032 23.2935 123.621 23.8068 123.332C24.3295 123.033 24.9362 122.884 25.6268 122.884C26.3175 122.884 26.9195 123.033 27.4328 123.332C27.9555 123.621 28.3568 124.032 28.6368 124.564C28.9262 125.086 29.0708 125.698 29.0708 126.398V126.566C29.0708 127.266 28.9262 127.882 28.6368 128.414C28.3568 128.936 27.9555 129.347 27.4328 129.646C26.9195 129.935 26.3175 130.08 25.6268 130.08ZM25.6268 129.324C26.4295 129.324 27.0642 129.072 27.5308 128.568C27.9975 128.054 28.2308 127.378 28.2308 126.538V126.426C28.2308 125.586 27.9975 124.914 27.5308 124.41C27.0642 123.896 26.4295 123.64 25.6268 123.64C24.8335 123.64 24.1988 123.896 23.7228 124.41C23.2562 124.914 23.0228 125.586 23.0228 126.426V126.538C23.0228 127.378 23.2562 128.054 23.7228 128.568C24.1988 129.072 24.8335 129.324 25.6268 129.324ZM31.2005 129.884V123.08H32.0125V124.34H32.1805C32.3485 123.976 32.6238 123.654 33.0065 123.374C33.3891 123.084 33.9445 122.94 34.6725 122.94C35.1671 122.94 35.6198 123.042 36.0305 123.248C36.4411 123.453 36.7678 123.766 37.0105 124.186C37.2625 124.596 37.3885 125.114 37.3885 125.74V129.884H36.5485V125.796C36.5485 125.049 36.3618 124.512 35.9885 124.186C35.6151 123.859 35.1158 123.696 34.4905 123.696C33.7905 123.696 33.2071 123.929 32.7405 124.396C32.2738 124.853 32.0405 125.548 32.0405 126.482V129.884H31.2005ZM39.4367 126.51V126.342C39.4367 125.623 39.5814 125.007 39.8707 124.494C40.1694 123.98 40.5661 123.584 41.0607 123.304C41.5554 123.024 42.1061 122.884 42.7127 122.884C43.4594 122.884 44.0381 123.033 44.4487 123.332C44.8687 123.621 45.1767 123.952 45.3727 124.326H45.5407V123.08H46.3247V131.62C46.3247 131.956 46.2361 132.217 46.0587 132.404C45.8814 132.59 45.6107 132.684 45.2467 132.684H40.5987V131.928H45.0787C45.3681 131.928 45.5127 131.788 45.5127 131.508V128.582H45.3447C45.2234 128.806 45.0507 129.025 44.8267 129.24C44.6121 129.454 44.3321 129.632 43.9867 129.772C43.6414 129.902 43.2167 129.968 42.7127 129.968C42.1061 129.968 41.5507 129.828 41.0467 129.548C40.5521 129.268 40.1601 128.871 39.8707 128.358C39.5814 127.835 39.4367 127.219 39.4367 126.51ZM42.9087 129.212C43.6834 129.212 44.3087 128.969 44.7847 128.484C45.2701 127.998 45.5127 127.331 45.5127 126.482V126.37C45.5127 125.511 45.2701 124.844 44.7847 124.368C44.3087 123.882 43.6834 123.64 42.9087 123.64C42.1434 123.64 41.5181 123.882 41.0327 124.368C40.5474 124.844 40.3047 125.511 40.3047 126.37V126.482C40.3047 127.331 40.5474 127.998 41.0327 128.484C41.5181 128.969 42.1434 129.212 42.9087 129.212ZM17.0152 148.08C16.3152 148.08 15.6899 147.958 15.1392 147.716C14.5885 147.464 14.1545 147.086 13.8372 146.582C13.5199 146.068 13.3612 145.42 13.3612 144.636V144.37H14.2572V144.636C14.2572 145.541 14.5139 146.213 15.0272 146.652C15.5499 147.081 16.2125 147.296 17.0152 147.296C17.8272 147.296 18.4525 147.109 18.8912 146.736C19.3299 146.353 19.5492 145.868 19.5492 145.28C19.5492 144.888 19.4512 144.575 19.2552 144.342C19.0685 144.099 18.8025 143.908 18.4572 143.768C18.1212 143.618 17.7292 143.488 17.2812 143.376L16.3852 143.152C15.8532 143.012 15.3772 142.839 14.9572 142.634C14.5372 142.419 14.2059 142.144 13.9632 141.808C13.7205 141.462 13.5992 141.024 13.5992 140.492C13.5992 139.96 13.7345 139.498 14.0052 139.106C14.2852 138.714 14.6679 138.415 15.1532 138.21C15.6385 137.995 16.2032 137.888 16.8472 137.888C17.4912 137.888 18.0699 138 18.5832 138.224C19.1059 138.448 19.5165 138.779 19.8152 139.218C20.1232 139.647 20.2772 140.188 20.2772 140.842V141.5H19.3812V140.842C19.3812 140.328 19.2692 139.913 19.0452 139.596C18.8212 139.278 18.5179 139.045 18.1352 138.896C17.7525 138.746 17.3232 138.672 16.8472 138.672C16.1659 138.672 15.6012 138.83 15.1532 139.148C14.7145 139.456 14.4952 139.904 14.4952 140.492C14.4952 140.884 14.5839 141.196 14.7612 141.43C14.9479 141.663 15.2045 141.85 15.5312 141.99C15.8672 142.13 16.2592 142.256 16.7072 142.368L17.6032 142.592C18.1165 142.713 18.5879 142.876 19.0172 143.082C19.4465 143.278 19.7919 143.553 20.0532 143.908C20.3145 144.253 20.4452 144.71 20.4452 145.28C20.4452 145.849 20.3005 146.344 20.0112 146.764C19.7312 147.184 19.3345 147.51 18.8212 147.744C18.3079 147.968 17.7059 148.08 17.0152 148.08ZM25.6001 148.08C24.9001 148.08 24.2888 147.935 23.7661 147.646C23.2528 147.347 22.8515 146.932 22.5621 146.4C22.2728 145.868 22.1281 145.256 22.1281 144.566V144.398C22.1281 143.698 22.2728 143.086 22.5621 142.564C22.8515 142.032 23.2481 141.621 23.7521 141.332C24.2655 141.033 24.8488 140.884 25.5021 140.884C26.1368 140.884 26.6968 141.019 27.1821 141.29C27.6768 141.551 28.0641 141.934 28.3441 142.438C28.6241 142.932 28.7641 143.525 28.7641 144.216V144.664H22.9681C22.9961 145.513 23.2528 146.171 23.7381 146.638C24.2328 147.095 24.8535 147.324 25.6001 147.324C26.2348 147.324 26.7248 147.179 27.0701 146.89C27.4248 146.6 27.6955 146.246 27.8821 145.826L28.6381 146.162C28.4981 146.47 28.3021 146.773 28.0501 147.072C27.8075 147.361 27.4901 147.604 27.0981 147.8C26.7061 147.986 26.2068 148.08 25.6001 148.08ZM22.9821 143.936H27.9101C27.8728 143.198 27.6348 142.634 27.1961 142.242C26.7575 141.84 26.1928 141.64 25.5021 141.64C24.8208 141.64 24.2561 141.84 23.8081 142.242C23.3601 142.634 23.0848 143.198 22.9821 143.936ZM30.8313 147.884V138.084H31.6713V147.884H30.8313ZM34.1399 147.884V138.084H34.9799V147.884H34.1399Z" fill="#757474"/>
<path d="M224.86 130.08C224.16 130.08 223.534 129.958 222.984 129.716C222.433 129.464 221.999 129.086 221.682 128.582C221.364 128.068 221.206 127.42 221.206 126.636V126.37H222.102V126.636C222.102 127.541 222.358 128.213 222.872 128.652C223.394 129.081 224.057 129.296 224.86 129.296C225.672 129.296 226.297 129.109 226.736 128.736C227.174 128.353 227.394 127.868 227.394 127.28C227.394 126.888 227.296 126.575 227.1 126.342C226.913 126.099 226.647 125.908 226.302 125.768C225.966 125.618 225.574 125.488 225.126 125.376L224.23 125.152C223.698 125.012 223.222 124.839 222.802 124.634C222.382 124.419 222.05 124.144 221.808 123.808C221.565 123.462 221.444 123.024 221.444 122.492C221.444 121.96 221.579 121.498 221.85 121.106C222.13 120.714 222.512 120.415 222.998 120.21C223.483 119.995 224.048 119.888 224.692 119.888C225.336 119.888 225.914 120 226.428 120.224C226.95 120.448 227.361 120.779 227.66 121.218C227.968 121.647 228.122 122.188 228.122 122.842V123.5H227.226V122.842C227.226 122.328 227.114 121.913 226.89 121.596C226.666 121.278 226.362 121.045 225.98 120.896C225.597 120.746 225.168 120.672 224.692 120.672C224.01 120.672 223.446 120.83 222.998 121.148C222.559 121.456 222.34 121.904 222.34 122.492C222.34 122.884 222.428 123.196 222.606 123.43C222.792 123.663 223.049 123.85 223.376 123.99C223.712 124.13 224.104 124.256 224.552 124.368L225.448 124.592C225.961 124.713 226.432 124.876 226.862 125.082C227.291 125.278 227.636 125.553 227.898 125.908C228.159 126.253 228.29 126.71 228.29 127.28C228.29 127.849 228.145 128.344 227.856 128.764C227.576 129.184 227.179 129.51 226.666 129.744C226.152 129.968 225.55 130.08 224.86 130.08ZM232.773 129.884C232.409 129.884 232.133 129.79 231.947 129.604C231.769 129.417 231.681 129.156 231.681 128.82V123.836H229.497V123.08H231.681V120.532H232.521V123.08H234.901V123.836H232.521V128.708C232.521 128.988 232.661 129.128 232.941 129.128H234.537V129.884H232.773ZM236.775 129.884V123.08H237.587V123.934H237.755C237.886 123.626 238.077 123.402 238.329 123.262C238.591 123.122 238.95 123.052 239.407 123.052H240.205V123.836H239.309C238.796 123.836 238.385 123.98 238.077 124.27C237.769 124.559 237.615 125.012 237.615 125.628V129.884H236.775ZM244.805 130.08C244.115 130.08 243.508 129.935 242.985 129.646C242.472 129.347 242.071 128.936 241.781 128.414C241.501 127.882 241.361 127.266 241.361 126.566V126.398C241.361 125.698 241.501 125.086 241.781 124.564C242.071 124.032 242.472 123.621 242.985 123.332C243.508 123.033 244.115 122.884 244.805 122.884C245.496 122.884 246.098 123.033 246.611 123.332C247.134 123.621 247.535 124.032 247.815 124.564C248.105 125.086 248.249 125.698 248.249 126.398V126.566C248.249 127.266 248.105 127.882 247.815 128.414C247.535 128.936 247.134 129.347 246.611 129.646C246.098 129.935 245.496 130.08 244.805 130.08ZM244.805 129.324C245.608 129.324 246.243 129.072 246.709 128.568C247.176 128.054 247.409 127.378 247.409 126.538V126.426C247.409 125.586 247.176 124.914 246.709 124.41C246.243 123.896 245.608 123.64 244.805 123.64C244.012 123.64 243.377 123.896 242.901 124.41C242.435 124.914 242.201 125.586 242.201 126.426V126.538C242.201 127.378 242.435 128.054 242.901 128.568C243.377 129.072 244.012 129.324 244.805 129.324ZM250.379 129.884V123.08H251.191V124.34H251.359C251.527 123.976 251.802 123.654 252.185 123.374C252.568 123.084 253.123 122.94 253.851 122.94C254.346 122.94 254.798 123.042 255.209 123.248C255.62 123.453 255.946 123.766 256.189 124.186C256.441 124.596 256.567 125.114 256.567 125.74V129.884H255.727V125.796C255.727 125.049 255.54 124.512 255.167 124.186C254.794 123.859 254.294 123.696 253.669 123.696C252.969 123.696 252.386 123.929 251.919 124.396C251.452 124.853 251.219 125.548 251.219 126.482V129.884H250.379ZM258.615 126.51V126.342C258.615 125.623 258.76 125.007 259.049 124.494C259.348 123.98 259.745 123.584 260.239 123.304C260.734 123.024 261.285 122.884 261.891 122.884C262.638 122.884 263.217 123.033 263.627 123.332C264.047 123.621 264.355 123.952 264.551 124.326H264.719V123.08H265.503V131.62C265.503 131.956 265.415 132.217 265.237 132.404C265.06 132.59 264.789 132.684 264.425 132.684H259.777V131.928H264.257C264.547 131.928 264.691 131.788 264.691 131.508V128.582H264.523C264.402 128.806 264.229 129.025 264.005 129.24C263.791 129.454 263.511 129.632 263.165 129.772C262.82 129.902 262.395 129.968 261.891 129.968C261.285 129.968 260.729 129.828 260.225 129.548C259.731 129.268 259.339 128.871 259.049 128.358C258.76 127.835 258.615 127.219 258.615 126.51ZM262.087 129.212C262.862 129.212 263.487 128.969 263.963 128.484C264.449 127.998 264.691 127.331 264.691 126.482V126.37C264.691 125.511 264.449 124.844 263.963 124.368C263.487 123.882 262.862 123.64 262.087 123.64C261.322 123.64 260.697 123.882 260.211 124.368C259.726 124.844 259.483 125.511 259.483 126.37V126.482C259.483 127.331 259.726 127.998 260.211 128.484C260.697 128.969 261.322 129.212 262.087 129.212ZM231.082 147.884V147.072H232.482V138.896H231.082V138.084H235.94C236.5 138.084 236.999 138.186 237.438 138.392C237.876 138.597 238.217 138.886 238.46 139.26C238.712 139.624 238.838 140.048 238.838 140.534V140.646C238.838 141.103 238.749 141.481 238.572 141.78C238.394 142.078 238.18 142.312 237.928 142.48C237.676 142.648 237.428 142.769 237.186 142.844V143.012C237.428 143.068 237.676 143.184 237.928 143.362C238.189 143.53 238.404 143.763 238.572 144.062C238.749 144.36 238.838 144.738 238.838 145.196V145.336C238.838 145.868 238.707 146.325 238.446 146.708C238.194 147.09 237.844 147.384 237.396 147.59C236.957 147.786 236.458 147.884 235.898 147.884H231.082ZM233.378 147.072H235.814C236.514 147.072 237.041 146.908 237.396 146.582C237.76 146.255 237.942 145.816 237.942 145.266V145.154C237.942 144.603 237.76 144.164 237.396 143.838C237.041 143.511 236.514 143.348 235.814 143.348H233.378V147.072ZM233.378 142.536H235.87C236.514 142.536 237.018 142.377 237.382 142.06C237.755 141.733 237.942 141.308 237.942 140.786V140.646C237.942 140.123 237.755 139.703 237.382 139.386C237.018 139.059 236.514 138.896 235.87 138.896H233.378V142.536ZM243.502 148.024C243.016 148.024 242.564 147.921 242.144 147.716C241.733 147.51 241.402 147.202 241.15 146.792C240.907 146.372 240.786 145.849 240.786 145.224V141.08H241.626V145.168C241.626 145.905 241.812 146.442 242.186 146.778C242.559 147.104 243.058 147.268 243.684 147.268C244.384 147.268 244.967 147.039 245.434 146.582C245.9 146.115 246.134 145.415 246.134 144.482V141.08H246.974V147.884H246.162V146.624H245.994C245.826 146.988 245.55 147.314 245.168 147.604C244.785 147.884 244.23 148.024 243.502 148.024ZM250.296 150.684V149.928H254.272C254.552 149.928 254.692 149.788 254.692 149.508V146.708H254.524C254.412 146.932 254.254 147.146 254.048 147.352C253.852 147.548 253.591 147.711 253.264 147.842C252.947 147.963 252.546 148.024 252.06 148.024C251.575 148.024 251.122 147.921 250.702 147.716C250.292 147.51 249.96 147.202 249.708 146.792C249.466 146.381 249.344 145.863 249.344 145.238V141.08H250.184V145.182C250.184 145.919 250.371 146.451 250.744 146.778C251.118 147.104 251.617 147.268 252.242 147.268C252.942 147.268 253.526 147.039 253.992 146.582C254.459 146.124 254.692 145.429 254.692 144.496V141.08H255.532V149.62C255.532 149.956 255.439 150.217 255.252 150.404C255.075 150.59 254.804 150.684 254.44 150.684H250.296Z" fill="#757474"/>
<path d="M57.0074 85.4131C56.3074 85.4131 55.6821 85.2918 55.1314 85.0491C54.5808 84.7971 54.1468 84.4191 53.8294 83.9151C53.5121 83.4018 53.3534 82.7531 53.3534 81.9691V81.7031H54.2494V81.9691C54.2494 82.8744 54.5061 83.5464 55.0194 83.9851C55.5421 84.4144 56.2048 84.6291 57.0074 84.6291C57.8194 84.6291 58.4448 84.4424 58.8834 84.0691C59.3221 83.6864 59.5414 83.2011 59.5414 82.6131C59.5414 82.2211 59.4434 81.9084 59.2474 81.6751C59.0608 81.4324 58.7948 81.2411 58.4494 81.1011C58.1134 80.9518 57.7214 80.8211 57.2734 80.7091L56.3774 80.4851C55.8454 80.3451 55.3694 80.1724 54.9494 79.9671C54.5294 79.7524 54.1981 79.4771 53.9554 79.1411C53.7128 78.7958 53.5914 78.3571 53.5914 77.8251C53.5914 77.2931 53.7268 76.8311 53.9974 76.4391C54.2774 76.0471 54.6601 75.7484 55.1454 75.5431C55.6308 75.3284 56.1954 75.2211 56.8394 75.2211C57.4834 75.2211 58.0621 75.3331 58.5754 75.5571C59.0981 75.7811 59.5088 76.1124 59.8074 76.5511C60.1154 76.9804 60.2694 77.5218 60.2694 78.1751V78.8331H59.3734V78.1751C59.3734 77.6618 59.2614 77.2464 59.0374 76.9291C58.8134 76.6118 58.5101 76.3784 58.1274 76.2291C57.7448 76.0798 57.3154 76.0051 56.8394 76.0051C56.1581 76.0051 55.5934 76.1638 55.1454 76.4811C54.7068 76.7891 54.4874 77.2371 54.4874 77.8251C54.4874 78.2171 54.5761 78.5298 54.7534 78.7631C54.9401 78.9964 55.1968 79.1831 55.5234 79.3231C55.8594 79.4631 56.2514 79.5891 56.6994 79.7011L57.5954 79.9251C58.1088 80.0464 58.5801 80.2098 59.0094 80.4151C59.4388 80.6111 59.7841 80.8864 60.0454 81.2411C60.3068 81.5864 60.4374 82.0438 60.4374 82.6131C60.4374 83.1824 60.2928 83.6771 60.0034 84.0971C59.7234 84.5171 59.3268 84.8438 58.8134 85.0771C58.3001 85.3011 57.6981 85.4131 57.0074 85.4131ZM65.5924 85.4131C64.8924 85.4131 64.2811 85.2684 63.7584 84.9791C63.2451 84.6804 62.8437 84.2651 62.5544 83.7331C62.2651 83.2011 62.1204 82.5898 62.1204 81.8991V81.7311C62.1204 81.0311 62.2651 80.4198 62.5544 79.8971C62.8437 79.3651 63.2404 78.9544 63.7444 78.6651C64.2577 78.3664 64.8411 78.2171 65.4944 78.2171C66.1291 78.2171 66.6891 78.3524 67.1744 78.6231C67.6691 78.8844 68.0564 79.2671 68.3364 79.7711C68.6164 80.2658 68.7564 80.8584 68.7564 81.5491V81.9971H62.9604C62.9884 82.8464 63.2451 83.5044 63.7304 83.9711C64.2251 84.4284 64.8457 84.6571 65.5924 84.6571C66.2271 84.6571 66.7171 84.5124 67.0624 84.2231C67.4171 83.9338 67.6877 83.5791 67.8744 83.1591L68.6304 83.4951C68.4904 83.8031 68.2944 84.1064 68.0424 84.4051C67.7997 84.6944 67.4824 84.9371 67.0904 85.1331C66.6984 85.3198 66.1991 85.4131 65.5924 85.4131ZM62.9744 81.2691H67.9024C67.8651 80.5318 67.6271 79.9671 67.1884 79.5751C66.7497 79.1738 66.1851 78.9731 65.4944 78.9731C64.8131 78.9731 64.2484 79.1738 63.8004 79.5751C63.3524 79.9671 63.0771 80.5318 62.9744 81.2691ZM70.8236 85.2171V75.4171H71.6636V85.2171H70.8236ZM74.1322 85.2171V75.4171H74.9722V85.2171H74.1322Z" fill="#FDFEFF"/>
<path d="M49.7361 216.297C49.0361 216.297 48.4107 216.175 47.8601 215.933C47.3094 215.681 46.8754 215.303 46.5581 214.799C46.2407 214.285 46.0821 213.637 46.0821 212.853V212.587H46.9781V212.853C46.9781 213.758 47.2347 214.43 47.7481 214.869C48.2707 215.298 48.9334 215.513 49.7361 215.513C50.5481 215.513 51.1734 215.326 51.6121 214.953C52.0507 214.57 52.2701 214.085 52.2701 213.497C52.2701 213.105 52.1721 212.792 51.9761 212.559C51.7894 212.316 51.5234 212.125 51.1781 211.985C50.8421 211.835 50.4501 211.705 50.0021 211.593L49.1061 211.369C48.5741 211.229 48.0981 211.056 47.6781 210.851C47.2581 210.636 46.9267 210.361 46.6841 210.025C46.4414 209.679 46.3201 209.241 46.3201 208.709C46.3201 208.177 46.4554 207.715 46.7261 207.323C47.0061 206.931 47.3887 206.632 47.8741 206.427C48.3594 206.212 48.9241 206.105 49.5681 206.105C50.2121 206.105 50.7907 206.217 51.3041 206.441C51.8267 206.665 52.2374 206.996 52.5361 207.435C52.8441 207.864 52.9981 208.405 52.9981 209.059V209.717H52.1021V209.059C52.1021 208.545 51.9901 208.13 51.7661 207.813C51.5421 207.495 51.2387 207.262 50.8561 207.113C50.4734 206.963 50.0441 206.889 49.5681 206.889C48.8867 206.889 48.3221 207.047 47.8741 207.365C47.4354 207.673 47.2161 208.121 47.2161 208.709C47.2161 209.101 47.3047 209.413 47.4821 209.647C47.6687 209.88 47.9254 210.067 48.2521 210.207C48.5881 210.347 48.9801 210.473 49.4281 210.585L50.3241 210.809C50.8374 210.93 51.3087 211.093 51.7381 211.299C52.1674 211.495 52.5127 211.77 52.7741 212.125C53.0354 212.47 53.1661 212.927 53.1661 213.497C53.1661 214.066 53.0214 214.561 52.7321 214.981C52.4521 215.401 52.0554 215.727 51.5421 215.961C51.0287 216.185 50.4267 216.297 49.7361 216.297ZM58.321 216.297C57.621 216.297 57.0097 216.152 56.487 215.863C55.9737 215.564 55.5724 215.149 55.283 214.617C54.9937 214.085 54.849 213.473 54.849 212.783V212.615C54.849 211.915 54.9937 211.303 55.283 210.781C55.5724 210.249 55.969 209.838 56.473 209.549C56.9864 209.25 57.5697 209.101 58.223 209.101C58.8577 209.101 59.4177 209.236 59.903 209.507C60.3977 209.768 60.785 210.151 61.065 210.655C61.345 211.149 61.485 211.742 61.485 212.433V212.881H55.689C55.717 213.73 55.9737 214.388 56.459 214.855C56.9537 215.312 57.5744 215.541 58.321 215.541C58.9557 215.541 59.4457 215.396 59.791 215.107C60.1457 214.817 60.4164 214.463 60.603 214.043L61.359 214.379C61.219 214.687 61.023 214.99 60.771 215.289C60.5284 215.578 60.211 215.821 59.819 216.017C59.427 216.203 58.9277 216.297 58.321 216.297ZM55.703 212.153H60.631C60.5937 211.415 60.3557 210.851 59.917 210.459C59.4784 210.057 58.9137 209.857 58.223 209.857C57.5417 209.857 56.977 210.057 56.529 210.459C56.081 210.851 55.8057 211.415 55.703 212.153ZM63.5522 216.101V206.301H64.3922V216.101H63.5522ZM66.8608 216.101V206.301H67.7008V216.101H66.8608Z" fill="#757474"/>
<path d="M120.924 171.434V169.81H122.212V163.258H120.924V161.634H125.964C126.562 161.634 127.08 161.737 127.518 161.942C127.966 162.138 128.312 162.423 128.554 162.796C128.806 163.16 128.932 163.599 128.932 164.112V164.252C128.932 164.7 128.848 165.069 128.68 165.358C128.512 165.638 128.312 165.857 128.078 166.016C127.854 166.165 127.64 166.273 127.434 166.338V166.59C127.64 166.646 127.864 166.753 128.106 166.912C128.349 167.061 128.554 167.281 128.722 167.57C128.9 167.859 128.988 168.237 128.988 168.704V168.844C128.988 169.385 128.862 169.852 128.61 170.244C128.358 170.627 128.008 170.921 127.56 171.126C127.122 171.331 126.608 171.434 126.02 171.434H120.924ZM124.06 169.754H125.796C126.198 169.754 126.52 169.656 126.762 169.46C127.014 169.264 127.14 168.984 127.14 168.62V168.48C127.14 168.116 127.019 167.836 126.776 167.64C126.534 167.444 126.207 167.346 125.796 167.346H124.06V169.754ZM124.06 165.666H125.768C126.151 165.666 126.464 165.568 126.706 165.372C126.958 165.176 127.084 164.905 127.084 164.56V164.42C127.084 164.065 126.963 163.795 126.72 163.608C126.478 163.412 126.16 163.314 125.768 163.314H124.06V165.666ZM134.281 171.63C133.478 171.63 132.788 171.485 132.209 171.196C131.64 170.897 131.201 170.477 130.893 169.936C130.594 169.385 130.445 168.737 130.445 167.99V161.634H132.293V168.046C132.293 168.643 132.461 169.115 132.797 169.46C133.142 169.805 133.637 169.978 134.281 169.978C134.925 169.978 135.415 169.805 135.751 169.46C136.096 169.115 136.269 168.643 136.269 168.046V161.634H138.117V167.99C138.117 168.737 137.963 169.385 137.655 169.936C137.356 170.477 136.918 170.897 136.339 171.196C135.77 171.485 135.084 171.63 134.281 171.63ZM142.427 171.434V168.06L139.095 161.634H141.153L143.225 165.834H143.477L145.549 161.634H147.607L144.275 168.06V171.434H142.427Z" fill="#FDFEFF"/>
<path d="M193.686 85.2171V84.4051H195.086V76.2291H193.686V75.4171H198.544C199.104 75.4171 199.603 75.5198 200.042 75.7251C200.481 75.9304 200.821 76.2198 201.064 76.5931C201.316 76.9571 201.442 77.3818 201.442 77.8671V77.9791C201.442 78.4364 201.353 78.8144 201.176 79.1131C200.999 79.4118 200.784 79.6451 200.532 79.8131C200.28 79.9811 200.033 80.1024 199.79 80.1771V80.3451C200.033 80.4011 200.28 80.5178 200.532 80.6951C200.793 80.8631 201.008 81.0964 201.176 81.3951C201.353 81.6938 201.442 82.0718 201.442 82.5291V82.6691C201.442 83.2011 201.311 83.6584 201.05 84.0411C200.798 84.4238 200.448 84.7178 200 84.9231C199.561 85.1191 199.062 85.2171 198.502 85.2171H193.686ZM195.982 84.4051H198.418C199.118 84.4051 199.645 84.2418 200 83.9151C200.364 83.5884 200.546 83.1498 200.546 82.5991V82.4871C200.546 81.9364 200.364 81.4978 200 81.1711C199.645 80.8444 199.118 80.6811 198.418 80.6811H195.982V84.4051ZM195.982 79.8691H198.474C199.118 79.8691 199.622 79.7104 199.986 79.3931C200.359 79.0664 200.546 78.6418 200.546 78.1191V77.9791C200.546 77.4564 200.359 77.0364 199.986 76.7191C199.622 76.3924 199.118 76.2291 198.474 76.2291H195.982V79.8691ZM206.106 85.3571C205.621 85.3571 205.168 85.2544 204.748 85.0491C204.337 84.8438 204.006 84.5358 203.754 84.1251C203.511 83.7051 203.39 83.1824 203.39 82.5571V78.4131H204.23V82.5011C204.23 83.2384 204.417 83.7751 204.79 84.1111C205.163 84.4378 205.663 84.6011 206.288 84.6011C206.988 84.6011 207.571 84.3724 208.038 83.9151C208.505 83.4484 208.738 82.7484 208.738 81.8151V78.4131H209.578V85.2171H208.766V83.9571H208.598C208.43 84.3211 208.155 84.6478 207.772 84.9371C207.389 85.2171 206.834 85.3571 206.106 85.3571ZM212.901 88.0171V87.2611H216.877C217.157 87.2611 217.297 87.1211 217.297 86.8411V84.0411H217.129C217.017 84.2651 216.858 84.4798 216.653 84.6851C216.457 84.8811 216.195 85.0444 215.869 85.1751C215.551 85.2964 215.15 85.3571 214.665 85.3571C214.179 85.3571 213.727 85.2544 213.307 85.0491C212.896 84.8438 212.565 84.5358 212.313 84.1251C212.07 83.7144 211.949 83.1964 211.949 82.5711V78.4131H212.789V82.5151C212.789 83.2524 212.975 83.7844 213.349 84.1111C213.722 84.4378 214.221 84.6011 214.847 84.6011C215.547 84.6011 216.13 84.3724 216.597 83.9151C217.063 83.4578 217.297 82.7624 217.297 81.8291V78.4131H218.137V86.9531C218.137 87.2891 218.043 87.5504 217.857 87.7371C217.679 87.9238 217.409 88.0171 217.045 88.0171H212.901Z" fill="#757474"/>
<path d="M196.802 216.101V215.289H198.202V207.113H196.802V206.301H201.66C202.22 206.301 202.72 206.403 203.158 206.609C203.597 206.814 203.938 207.103 204.18 207.477C204.432 207.841 204.558 208.265 204.558 208.751V208.863C204.558 209.32 204.47 209.698 204.292 209.997C204.115 210.295 203.9 210.529 203.648 210.697C203.396 210.865 203.149 210.986 202.906 211.061V211.229C203.149 211.285 203.396 211.401 203.648 211.579C203.91 211.747 204.124 211.98 204.292 212.279C204.47 212.577 204.558 212.955 204.558 213.413V213.553C204.558 214.085 204.428 214.542 204.166 214.925C203.914 215.307 203.564 215.601 203.116 215.807C202.678 216.003 202.178 216.101 201.618 216.101H196.802ZM199.098 215.289H201.534C202.234 215.289 202.762 215.125 203.116 214.799C203.48 214.472 203.662 214.033 203.662 213.483V213.371C203.662 212.82 203.48 212.381 203.116 212.055C202.762 211.728 202.234 211.565 201.534 211.565H199.098V215.289ZM199.098 210.753H201.59C202.234 210.753 202.738 210.594 203.102 210.277C203.476 209.95 203.662 209.525 203.662 209.003V208.863C203.662 208.34 203.476 207.92 203.102 207.603C202.738 207.276 202.234 207.113 201.59 207.113H199.098V210.753ZM209.222 216.241C208.737 216.241 208.284 216.138 207.864 215.933C207.454 215.727 207.122 215.419 206.87 215.009C206.628 214.589 206.506 214.066 206.506 213.441V209.297H207.346V213.385C207.346 214.122 207.533 214.659 207.906 214.995C208.28 215.321 208.779 215.485 209.404 215.485C210.104 215.485 210.688 215.256 211.154 214.799C211.621 214.332 211.854 213.632 211.854 212.699V209.297H212.694V216.101H211.882V214.841H211.714C211.546 215.205 211.271 215.531 210.888 215.821C210.506 216.101 209.95 216.241 209.222 216.241ZM216.017 218.901V218.145H219.993C220.273 218.145 220.413 218.005 220.413 217.725V214.925H220.245C220.133 215.149 219.974 215.363 219.769 215.569C219.573 215.765 219.312 215.928 218.985 216.059C218.668 216.18 218.266 216.241 217.781 216.241C217.296 216.241 216.843 216.138 216.423 215.933C216.012 215.727 215.681 215.419 215.429 215.009C215.186 214.598 215.065 214.08 215.065 213.455V209.297H215.905V213.399C215.905 214.136 216.092 214.668 216.465 214.995C216.838 215.321 217.338 215.485 217.963 215.485C218.663 215.485 219.246 215.256 219.713 214.799C220.18 214.341 220.413 213.646 220.413 212.713V209.297H221.253V217.837C221.253 218.173 221.16 218.434 220.973 218.621C220.796 218.807 220.525 218.901 220.161 218.901H216.017Z" fill="#757474"/>
<path d="M110.232 64.4418V54.6418H112.01L116.014 63.9098H116.182V54.6418H117.078V64.4418H115.3L111.296 55.1598H111.128V64.4418H110.232ZM122.652 64.6378C121.952 64.6378 121.341 64.4932 120.818 64.2038C120.305 63.9052 119.904 63.4898 119.614 62.9578C119.325 62.4258 119.18 61.8145 119.18 61.1238V60.9558C119.18 60.2558 119.325 59.6445 119.614 59.1218C119.904 58.5898 120.3 58.1792 120.804 57.8898C121.318 57.5912 121.901 57.4418 122.554 57.4418C123.189 57.4418 123.749 57.5772 124.234 57.8478C124.729 58.1092 125.116 58.4918 125.396 58.9958C125.676 59.4905 125.816 60.0832 125.816 60.7738V61.2218H120.02C120.048 62.0712 120.305 62.7292 120.79 63.1958C121.285 63.6532 121.906 63.8818 122.652 63.8818C123.287 63.8818 123.777 63.7372 124.122 63.4478C124.477 63.1585 124.748 62.8038 124.934 62.3838L125.69 62.7198C125.55 63.0278 125.354 63.3312 125.102 63.6298C124.86 63.9192 124.542 64.1618 124.15 64.3578C123.758 64.5445 123.259 64.6378 122.652 64.6378ZM120.034 60.4938H124.962C124.925 59.7565 124.687 59.1918 124.248 58.7998C123.81 58.3985 123.245 58.1978 122.554 58.1978C121.873 58.1978 121.308 58.3985 120.86 58.7998C120.412 59.1918 120.137 59.7565 120.034 60.4938ZM130.501 64.5818C130.016 64.5818 129.563 64.4792 129.143 64.2738C128.733 64.0685 128.401 63.7605 128.149 63.3498C127.907 62.9298 127.785 62.4072 127.785 61.7818V57.6378H128.625V61.7258C128.625 62.4632 128.812 62.9998 129.185 63.3358C129.559 63.6625 130.058 63.8258 130.683 63.8258C131.383 63.8258 131.967 63.5972 132.433 63.1398C132.9 62.6732 133.133 61.9732 133.133 61.0398V57.6378H133.973V64.4418H133.161V63.1818H132.993C132.825 63.5458 132.55 63.8725 132.167 64.1618C131.785 64.4418 131.229 64.5818 130.501 64.5818ZM138.906 64.4418C138.542 64.4418 138.267 64.3485 138.08 64.1618C137.903 63.9752 137.814 63.7138 137.814 63.3778V58.3938H135.63V57.6378H137.814V55.0898H138.654V57.6378H141.034V58.3938H138.654V63.2658C138.654 63.5458 138.794 63.6858 139.074 63.6858H140.67V64.4418H138.906ZM142.909 64.4418V57.6378H143.721V58.4918H143.889C144.019 58.1838 144.211 57.9598 144.463 57.8198C144.724 57.6798 145.083 57.6098 145.541 57.6098H146.339V58.3938H145.443C144.929 58.3938 144.519 58.5385 144.211 58.8278C143.903 59.1172 143.749 59.5698 143.749 60.1858V64.4418H142.909ZM149.903 64.6378C149.427 64.6378 148.993 64.5585 148.601 64.3998C148.218 64.2318 147.915 63.9892 147.691 63.6718C147.467 63.3545 147.355 62.9718 147.355 62.5238C147.355 62.0665 147.467 61.6885 147.691 61.3898C147.915 61.0912 148.218 60.8672 148.601 60.7178C148.984 60.5685 149.408 60.4938 149.875 60.4938H152.367V59.9478C152.367 59.3972 152.208 58.9678 151.891 58.6598C151.574 58.3518 151.112 58.1978 150.505 58.1978C149.908 58.1978 149.432 58.3472 149.077 58.6458C148.732 58.9352 148.498 59.3272 148.377 59.8218L147.565 59.5838C147.677 59.1825 147.854 58.8232 148.097 58.5058C148.34 58.1792 148.662 57.9225 149.063 57.7358C149.464 57.5398 149.945 57.4418 150.505 57.4418C151.364 57.4418 152.026 57.6658 152.493 58.1138C152.969 58.5618 153.207 59.1872 153.207 59.9898V63.2938C153.207 63.5738 153.338 63.7138 153.599 63.7138H154.257V64.4418H153.361C153.072 64.4418 152.843 64.3578 152.675 64.1898C152.507 64.0125 152.423 63.7745 152.423 63.4758V63.3778H152.283C152.162 63.5832 152.003 63.7838 151.807 63.9798C151.62 64.1758 151.373 64.3345 151.065 64.4558C150.757 64.5772 150.37 64.6378 149.903 64.6378ZM149.959 63.8818C150.678 63.8818 151.256 63.6672 151.695 63.2378C152.143 62.7992 152.367 62.1832 152.367 61.3898V61.2218H149.889C149.404 61.2218 148.998 61.3292 148.671 61.5438C148.354 61.7492 148.195 62.0712 148.195 62.5098C148.195 62.9485 148.358 63.2892 148.685 63.5318C149.021 63.7652 149.446 63.8818 149.959 63.8818ZM155.856 64.4418V54.6418H156.696V64.4418H155.856Z" fill="#757474"/>
<path d="M109.713 216.101V206.301H111.491L115.495 215.569H115.663V206.301H116.559V216.101H114.781L110.777 206.819H110.609V216.101H109.713ZM122.133 216.297C121.433 216.297 120.822 216.152 120.299 215.863C119.786 215.564 119.384 215.149 119.095 214.617C118.806 214.085 118.661 213.473 118.661 212.783V212.615C118.661 211.915 118.806 211.303 119.095 210.781C119.384 210.249 119.781 209.838 120.285 209.549C120.798 209.25 121.382 209.101 122.035 209.101C122.67 209.101 123.23 209.236 123.715 209.507C124.21 209.768 124.597 210.151 124.877 210.655C125.157 211.149 125.297 211.742 125.297 212.433V212.881H119.501C119.529 213.73 119.786 214.388 120.271 214.855C120.766 215.312 121.386 215.541 122.133 215.541C122.768 215.541 123.258 215.396 123.603 215.107C123.958 214.817 124.228 214.463 124.415 214.043L125.171 214.379C125.031 214.687 124.835 214.99 124.583 215.289C124.34 215.578 124.023 215.821 123.631 216.017C123.239 216.203 122.74 216.297 122.133 216.297ZM119.515 212.153H124.443C124.406 211.415 124.168 210.851 123.729 210.459C123.29 210.057 122.726 209.857 122.035 209.857C121.354 209.857 120.789 210.057 120.341 210.459C119.893 210.851 119.618 211.415 119.515 212.153ZM129.982 216.241C129.497 216.241 129.044 216.138 128.624 215.933C128.213 215.727 127.882 215.419 127.63 215.009C127.387 214.589 127.266 214.066 127.266 213.441V209.297H128.106V213.385C128.106 214.122 128.293 214.659 128.666 214.995C129.039 215.321 129.539 215.485 130.164 215.485C130.864 215.485 131.447 215.256 131.914 214.799C132.381 214.332 132.614 213.632 132.614 212.699V209.297H133.454V216.101H132.642V214.841H132.474C132.306 215.205 132.031 215.531 131.648 215.821C131.265 216.101 130.71 216.241 129.982 216.241ZM138.387 216.101C138.023 216.101 137.747 216.007 137.561 215.821C137.383 215.634 137.295 215.373 137.295 215.037V210.053H135.111V209.297H137.295V206.749H138.135V209.297H140.515V210.053H138.135V214.925C138.135 215.205 138.275 215.345 138.555 215.345H140.151V216.101H138.387ZM142.39 216.101V209.297H143.202V210.151H143.37C143.5 209.843 143.692 209.619 143.944 209.479C144.205 209.339 144.564 209.269 145.022 209.269H145.82V210.053H144.924C144.41 210.053 144 210.197 143.692 210.487C143.384 210.776 143.23 211.229 143.23 211.845V216.101H142.39ZM149.384 216.297C148.908 216.297 148.474 216.217 148.082 216.059C147.699 215.891 147.396 215.648 147.172 215.331C146.948 215.013 146.836 214.631 146.836 214.183C146.836 213.725 146.948 213.347 147.172 213.049C147.396 212.75 147.699 212.526 148.082 212.377C148.464 212.227 148.889 212.153 149.356 212.153H151.848V211.607C151.848 211.056 151.689 210.627 151.372 210.319C151.054 210.011 150.592 209.857 149.986 209.857C149.388 209.857 148.912 210.006 148.558 210.305C148.212 210.594 147.979 210.986 147.858 211.481L147.046 211.243C147.158 210.841 147.335 210.482 147.578 210.165C147.82 209.838 148.142 209.581 148.544 209.395C148.945 209.199 149.426 209.101 149.986 209.101C150.844 209.101 151.507 209.325 151.974 209.773C152.45 210.221 152.688 210.846 152.688 211.649V214.953C152.688 215.233 152.818 215.373 153.08 215.373H153.738V216.101H152.842C152.552 216.101 152.324 216.017 152.156 215.849C151.988 215.671 151.904 215.433 151.904 215.135V215.037H151.764C151.642 215.242 151.484 215.443 151.288 215.639C151.101 215.835 150.854 215.993 150.546 216.115C150.238 216.236 149.85 216.297 149.384 216.297ZM149.44 215.541C150.158 215.541 150.737 215.326 151.176 214.897C151.624 214.458 151.848 213.842 151.848 213.049V212.881H149.37C148.884 212.881 148.478 212.988 148.152 213.203C147.834 213.408 147.676 213.73 147.676 214.169C147.676 214.607 147.839 214.948 148.166 215.191C148.502 215.424 148.926 215.541 149.44 215.541ZM155.337 216.101V206.301H156.177V216.101H155.337Z" fill="#757474"/>
<path d="M219.635 162.628C221.104 162.628 222.299 161.437 222.255 159.968C221.756 143.094 216.512 126.705 207.132 112.705C206.31 111.478 204.633 111.206 203.435 112.071C202.247 112.93 201.98 114.585 202.794 115.804C211.536 128.897 216.437 144.204 216.933 159.968C216.98 161.437 218.166 162.628 219.635 162.628Z" fill="#008E76"/>
<path d="M203.063 111.504C204.245 110.636 204.506 108.974 203.61 107.813C193.306 94.476 179.453 84.3494 163.66 78.6103C162.269 78.1047 160.752 78.8758 160.294 80.2833C159.838 81.684 160.602 83.1856 161.986 83.6911C176.719 89.0735 189.649 98.5201 199.294 110.948C200.2 112.115 201.872 112.379 203.063 111.504Z" fill="#7BCCC5"/>
<path d="M159.848 80.1188C160.297 78.7155 159.527 77.2097 158.112 76.7989C142.003 72.1216 124.905 72.1267 108.799 76.8136C107.384 77.2252 106.615 78.7315 107.064 80.1344C107.516 81.5441 109.026 82.3144 110.448 81.9038C125.482 77.5636 141.429 77.5589 156.466 81.8902C157.888 82.2999 159.398 81.5287 159.848 80.1188Z" fill="#FDFEFF"/>
<path d="M106.563 80.3178C106.103 78.9108 104.585 78.1417 103.195 78.6491C87.3892 84.4158 73.5338 94.5785 63.2433 107.953C62.3493 109.115 62.6141 110.777 63.7973 111.643C64.9898 112.515 66.6614 112.248 67.5651 111.079C77.1982 98.6163 90.1305 89.1359 104.875 83.7277C106.258 83.2204 107.021 81.7179 106.563 80.3178Z" fill="#FFA09F"/>
<path d="M63.485 112.128C62.2867 111.264 60.6102 111.537 59.7888 112.766C50.3316 126.906 45.0926 143.475 44.6915 160.512C44.6569 161.981 45.8592 163.165 47.3281 163.156C48.7969 163.147 49.976 161.948 50.0133 160.48C50.418 144.562 55.3142 129.086 64.1297 115.861C64.9428 114.641 64.6739 112.986 63.485 112.128Z" fill="#FF3141"/>
<path d="M165.849 110.664C166.408 109.712 166.089 108.486 165.137 107.927C164.185 107.367 162.959 107.686 162.4 108.638L165.849 110.664ZM162.4 108.638L132.617 159.342L136.066 161.368L165.849 110.664L162.4 108.638Z" fill="url(#paint1_linear_64_220)"/>
<path d="M54.1394 200.519V199.413C54.1394 198.732 54.2561 198.172 54.4894 197.733C54.7228 197.295 55.0541 196.94 55.4834 196.669C55.9221 196.389 56.4494 196.156 57.0654 195.969L57.9194 195.703C58.3021 195.582 58.6288 195.433 58.8994 195.255C59.1794 195.078 59.3941 194.859 59.5434 194.597C59.6928 194.327 59.7674 194.014 59.7674 193.659V193.603C59.7674 193.053 59.5808 192.623 59.2074 192.315C58.8341 191.998 58.3441 191.839 57.7374 191.839C57.1121 191.839 56.6034 192.007 56.2114 192.343C55.8288 192.679 55.6374 193.174 55.6374 193.827V194.051H54.1814V193.841C54.1814 193.132 54.3354 192.535 54.6434 192.049C54.9514 191.555 55.3761 191.177 55.9174 190.915C56.4588 190.654 57.0654 190.523 57.7374 190.523C58.4094 190.523 59.0068 190.649 59.5294 190.901C60.0614 191.153 60.4768 191.508 60.7754 191.965C61.0834 192.423 61.2374 192.959 61.2374 193.575V193.701C61.2374 194.336 61.1114 194.863 60.8594 195.283C60.6074 195.703 60.2574 196.049 59.8094 196.319C59.3708 196.59 58.8621 196.819 58.2834 197.005L57.4574 197.257C57.0188 197.388 56.6641 197.533 56.3934 197.691C56.1321 197.841 55.9361 198.023 55.8054 198.237C55.6841 198.452 55.6234 198.727 55.6234 199.063V199.203H61.1534V200.519H54.1394Z" fill="#FF3141"/>
<path d="M129.853 200.519V191.755H129.629L128.019 195.059H126.465L128.635 190.719H131.323V200.519H129.853ZM133.011 200.519V199.413C133.011 198.732 133.128 198.172 133.361 197.733C133.594 197.295 133.926 196.94 134.355 196.669C134.794 196.389 135.321 196.156 135.937 195.969L136.791 195.703C137.174 195.582 137.5 195.433 137.771 195.255C138.051 195.078 138.266 194.859 138.415 194.597C138.564 194.327 138.639 194.014 138.639 193.659V193.603C138.639 193.053 138.452 192.623 138.079 192.315C137.706 191.998 137.216 191.839 136.609 191.839C135.984 191.839 135.475 192.007 135.083 192.343C134.7 192.679 134.509 193.174 134.509 193.827V194.051H133.053V193.841C133.053 193.132 133.207 192.535 133.515 192.049C133.823 191.555 134.248 191.177 134.789 190.915C135.33 190.654 135.937 190.523 136.609 190.523C137.281 190.523 137.878 190.649 138.401 190.901C138.933 191.153 139.348 191.508 139.647 191.965C139.955 192.423 140.109 192.959 140.109 193.575V193.701C140.109 194.336 139.983 194.863 139.731 195.283C139.479 195.703 139.129 196.049 138.681 196.319C138.242 196.59 137.734 196.819 137.155 197.005L136.329 197.257C135.89 197.388 135.536 197.533 135.265 197.691C135.004 197.841 134.808 198.023 134.677 198.237C134.556 198.452 134.495 198.727 134.495 199.063V199.203H140.025V200.519H133.011Z" fill="#FDFEFF"/>
<path d="M208.801 200.715C208.083 200.715 207.443 200.585 206.883 200.323C206.323 200.062 205.885 199.684 205.567 199.189C205.259 198.695 205.105 198.107 205.105 197.425V197.173H206.575V197.397C206.575 198.013 206.776 198.503 207.177 198.867C207.588 199.222 208.129 199.399 208.801 199.399C209.473 199.399 209.996 199.231 210.369 198.895C210.743 198.559 210.929 198.135 210.929 197.621V197.495C210.929 197.131 210.841 196.837 210.663 196.613C210.486 196.389 210.248 196.226 209.949 196.123C209.651 196.011 209.315 195.955 208.941 195.955H207.163V194.261L210.607 192.231V192.035H205.343V190.719H212.203V192.707L208.913 194.667V194.863H209.515C210.01 194.863 210.477 194.957 210.915 195.143C211.354 195.33 211.709 195.615 211.979 195.997C212.259 196.38 212.399 196.865 212.399 197.453V197.621C212.399 198.247 212.25 198.793 211.951 199.259C211.653 199.717 211.233 200.076 210.691 200.337C210.15 200.589 209.52 200.715 208.801 200.715Z" fill="#008E76"/>
<path d="M188.535 11.6702C188.535 15.7862 185.046 19.1234 180.744 19.1234C180.238 19.1241 179.734 19.0772 179.237 18.984C178.879 18.9167 178.701 18.8832 178.576 18.9023C178.451 18.9213 178.274 19.0154 177.92 19.2036C176.919 19.7359 175.752 19.9239 174.629 19.7151C175.056 19.1904 175.348 18.5607 175.476 17.8857C175.554 17.4728 175.361 17.0718 175.072 16.7781C173.759 15.4447 172.954 13.6478 172.954 11.6702C172.954 7.5543 176.442 4.2171 180.744 4.2171C185.046 4.2171 188.535 7.5543 188.535 11.6702Z" stroke="#FDFEFF" stroke-width="1.5" stroke-linejoin="round"/>
<path d="M179.576 10.4796C179.576 9.81762 180.099 9.28101 180.744 9.28101C181.39 9.28101 181.913 9.81762 181.913 10.4796C181.913 10.7182 181.845 10.9405 181.728 11.1272C181.379 11.684 180.744 12.2147 180.744 12.8767V13.1764" stroke="#FDFEFF" stroke-width="1.5" stroke-linecap="round"/>
<path d="M180.744 14.7345H180.75" stroke="#FDFEFF" stroke-width="1.5" stroke-linecap="round" stroke-linejoin="round"/>
<defs>
<linearGradient id="paint0_linear_64_220" x1="132.961" y1="76.4109" x2="132.961" y2="164.705" gradientUnits="userSpaceOnUse">
<stop stop-color="#ECFFEF"/>
<stop offset="1" stop-color="#AEFFBB" stop-opacity="0"/>
</linearGradient>
<linearGradient id="paint1_linear_64_220" x1="164.124" y1="109.651" x2="134.341" y2="160.355" gradientUnits="userSpaceOnUse">
<stop stop-color="#FDFEFF"/>
<stop offset="1" stop-color="white" stop-opacity="0"/>
</linearGradient>
</defs>
</svg>
